<?xml version="1.0" encoding="UTF-8"?>
<svg id="Calque_1" xmlns="http://www.w3.org/2000/svg" version="1.1" viewBox="0 0 59.04 54.68">
  <!-- Generator: Adobe Illustrator 30.1.0, SVG Export Plug-In . SVG Version: 2.1.1 Build 136)  -->
  <defs>
    <style>
      .st0 {
        fill: #700b06;
      }

      .st1 {
        font-size: 101.53px;
      }

      .st1, .st2 {
        fill: #fff;
        font-family: BebasNeue-Regular, 'Bebas Neue';
      }

      .st3 {
        font-family: Pacifico-Regular, Pacifico;
        font-size: 39.35px;
      }

      .st3, .st4 {
        fill: #d46f66;
      }

      .st2 {
        font-size: 57.63px;
      }

      .st5 {
        fill: #f9f4f4;
      }

      .st6 {
        fill: #b61600;
      }

      .st7 {
        opacity: .4;
      }
    </style>
  </defs>
  <rect class="st6" x="471.82" y="-545.07" width="1920" height="1080"/>
  <g>
    <g>
      <path id="path233" class="st0" d="M1124.84-335.09c-26.56,0-48.12,21.56-48.12,48.12,0,54.03,54.51,68.21,91.66,121.63,35.12-53.1,91.65-69.32,91.65-121.63,0-26.56-21.56-48.12-48.13-48.12-19.26,0-35.85,11.38-43.53,27.75-7.68-16.37-24.27-27.75-43.54-27.75Z"/>
      <path class="st4" d="M1168.41-162.46l-1.36-1.95c-14.13-20.32-31.09-35.18-46.06-48.29-24.62-21.57-45.89-40.2-45.89-74.26,0-27.42,22.31-49.73,49.74-49.73,18.09,0,34.84,10.03,43.54,25.81,8.69-15.78,25.44-25.81,43.53-25.81,27.43,0,49.74,22.31,49.74,49.73,0,32.47-21.12,51.19-45.58,72.87-15.31,13.57-32.65,28.95-46.34,49.65l-1.31,1.98ZM1124.84-333.48c-25.65,0-46.51,20.86-46.51,46.51,0,32.59,20.75,50.77,44.79,71.83,14.63,12.82,31.16,27.3,45.23,46.95,13.7-20.07,30.61-35.05,45.58-48.33,23.87-21.17,44.49-39.44,44.49-70.46,0-25.65-20.87-46.51-46.51-46.51-17.92,0-34.43,10.53-42.07,26.82l-1.46,3.11-1.46-3.11c-7.65-16.29-24.16-26.82-42.08-26.82Z"/>
    </g>
    <g>
      <g class="st7">
        <g>
          <path class="st5" d="M989.73-205c1.36,0,2.58.11,3.64.34,1.06.23,1.99.54,2.79.95.8.4,1.48.88,2.03,1.44.55.56,1,1.17,1.34,1.83.34.66.59,1.36.75,2.1.15.74.23,1.5.23,2.27,0,1.06-.12,2.21-.35,3.44-.23,1.24-.57,2.36-1.02,3.38-.44,1.02-.99,1.97-1.64,2.86-.65.89-1.39,1.67-2.23,2.33-.84.66-1.76,1.19-2.76,1.57-1,.38-2.09.57-3.25.57-.39,0-.79-.03-1.2-.09-.41-.06-.8-.14-1.18-.24-.38-.1-.75-.21-1.09-.34-.34-.13-.64-.26-.9-.39-.11-.03-.19-.07-.26-.12-.06-.05-.11-.1-.14-.16-.03-.06-.05-.14-.06-.23,0-.09-.01-.21-.01-.35,0-1.39.04-2.82.11-4.29.07-1.46.21-2.96.43-4.51.22-1.54.53-2.9.94-4.08.41-1.18.95-2.27,1.62-3.27.17-.24.7-.37,1.61-.37.71,0,1.23.26,1.54.78-.39.52-.71,1.1-.97,1.74-.26.64-.48,1.27-.66,1.88-.18.62-.32,1.29-.44,2.02-.23,1.41-.34,2.13-.33,2.14.03.02-.07.82-.29,2.42-.08.55-.15,1.04-.2,1.45-.05.41-.08.77-.1,1.08-.02.31-.03.61-.03.91,0,.31.01.57.03.78.02.21.07.38.15.5.08.12.2.21.37.27.16.06.39.08.66.08.84,0,1.64-.17,2.4-.5.76-.33,1.45-.78,2.09-1.34.64-.56,1.21-1.21,1.72-1.95.51-.74.94-1.59,1.3-2.56.36-.97.63-1.88.83-2.73.19-.85.29-1.67.29-2.46,0-.97-.16-1.85-.48-2.62-.32-.77-.77-1.42-1.34-1.95-.58-.53-1.27-.94-2.07-1.22-.81-.28-1.7-.42-2.66-.42-.71,0-1.41.04-2.1.13-.69.08-1.34.21-1.93.39-.59.18-1.11.4-1.56.67-.45.27-.79.6-1.02.98-.61.95-1.12,1.68-1.51,2.2-.39.52-.73.78-1,.78-.37,0-.55-.42-.55-1.27s.11-1.56.32-2.22c.21-.66.51-1.24.89-1.75.38-.51.84-.94,1.36-1.3.52-.36,1.1-.65,1.73-.88.62-.23,1.29-.4,2-.51.71-.11,1.43-.16,2.17-.16Z"/>
          <path class="st5" d="M1002.43-199.3c0-.15,0-.35.02-.58.02-.24.03-.5.06-.79.02-.3.05-.61.08-.93l.09-.94c.07-.73.16-1.52.25-2.36,0-.25.06-.48.18-.67.12-.2.28-.37.48-.5.2-.14.42-.25.66-.32.25-.08.49-.11.74-.11.21,0,.4.03.59.08.19.06.35.14.5.25.15.11.26.25.35.43.09.18.13.38.13.62,0,.1,0,.2-.03.31-.02.11-.04.22-.08.33l-.38,1.34-.43,1.44-.43,1.36c-.14.44-.26.81-.38,1.11-.14.4-.35.7-.61.9-.26.2-.53.3-.8.3s-.5-.1-.71-.31c-.2-.21-.3-.52-.3-.93Z"/>
        </g>
      </g>
      <g>
        <path class="st5" d="M912.84-217.54v-47.4h5.48c6.45,0,9.93,1.29,11.8,4.9,1.81,3.61,2.06,9.54,2.06,18.83s-.26,15.16-2.06,18.77c-1.87,3.61-5.35,4.9-11.8,4.9h-5.48ZM919.81-224.5c2.39,0,3.74-.26,4.45-2.58.32-1.1.58-2.77.64-5.03.06-2.26.06-5.29.06-9.16s0-6.9-.06-9.16c-.06-2.19-.32-3.87-.64-5.03-.71-2.26-2.06-2.52-4.45-2.52v33.47Z"/>
        <path class="st5" d="M936.83-264.94h15.93v7.16h-8.96v12.45h6.45v7.61h-6.45v13.03h8.96v7.16h-15.93v-47.4Z"/>
        <path class="st5" d="M974.75-233.79v6.51c-.06,1.93-.45,3.68-1.16,5.16-.58,1.29-1.48,2.52-2.77,3.48-1.29,1.03-3.03,1.61-5.35,1.61s-4.13-.58-5.42-1.61c-1.29-.97-2.13-2.19-2.71-3.48-.71-1.48-1.1-3.23-1.16-5.16v-27.93c.07-1.87.45-3.61,1.16-5.09.58-1.29,1.42-2.58,2.71-3.55,1.29-.97,3.1-1.61,5.42-1.61s4.06.65,5.35,1.61c1.29.97,2.19,2.26,2.77,3.55.71,1.48,1.1,3.22,1.16,5.09v6.51h-6.51v-6.51c0-1.29-.32-2.19-1.03-2.97-.32-.32-.9-.52-1.61-.52-1.23,0-1.81.9-2.13,1.74-.19.52-.26,1.1-.32,1.74v27.93c.06,1.35.45,2.26,1.1,2.97.32.32.77.52,1.35.52,1.48,0,2.06-.77,2.39-1.74.19-.45.26-1.03.26-1.74v-6.51h6.51Z"/>
        <path class="st5" d="M978.94-264.94h6.96v40.95h9.22v6.45h-16.19v-47.4Z"/>
        <path class="st5" d="M996.68-217.54l7.16-47.4h8.51l7.16,47.4h-6.77l-1.29-9.67h-6.71l-1.29,9.67h-6.77ZM1008.48-249.53l-.19-1.23h-.39l-.19,1.23-2,14.96h4.77l-2-14.96Z"/>
        <path class="st5" d="M1035.18-217.54l-3.61-19.99h-1.87v19.99h-6.97v-47.4h6.97c8.32,0,11.87,4.71,11.87,13.67,0,4.71-1.23,8.96-3.87,10.77l4.45,22.96h-6.97ZM1029.7-243.98c.97,0,2.26-.13,3.29-1.03,1.03-.9,1.87-2.64,1.87-6s-.84-5.16-1.87-6.06c-1.03-.9-2.32-.97-3.29-.97v14.06Z"/>
        <path class="st5" d="M1044.08-217.54l7.16-47.4h8.51l7.16,47.4h-6.77l-1.29-9.67h-6.71l-1.29,9.67h-6.77ZM1055.88-249.53l-.19-1.23h-.39l-.19,1.23-2,14.96h4.77l-2-14.96Z"/>
        <path class="st5" d="M1066.26-257.78v-7.16h20.12v7.16h-6.58v40.24h-6.97v-40.24h-6.58Z"/>
        <path class="st5" d="M1089.09-264.94h6.97v47.4h-6.97v-47.4Z"/>
        <path class="st5" d="M1119.34-227.28c-.06,1.93-.45,3.68-1.16,5.16-.58,1.29-1.48,2.52-2.77,3.48-1.29,1.03-3.03,1.61-5.35,1.61s-4.13-.58-5.42-1.61c-1.29-.97-2.13-2.19-2.71-3.48-.71-1.48-1.1-3.23-1.16-5.16v-27.93c.06-1.87.45-3.61,1.16-5.09.58-1.29,1.42-2.58,2.71-3.55,1.29-.97,3.09-1.61,5.42-1.61s4.06.65,5.35,1.61c1.29.97,2.19,2.26,2.77,3.55.71,1.48,1.1,3.22,1.16,5.09v27.93ZM1112.37-255.2c0-1.29-.26-2.19-.9-2.97-.32-.32-.84-.52-1.42-.52-1.22,0-1.81.9-2.06,1.74-.19.52-.26,1.1-.26,1.74v27.93c0,1.35.32,2.26.97,2.97.32.32.77.52,1.35.52,1.23,0,1.81-.77,2.06-1.74.19-.45.26-1.03.26-1.74v-27.93Z"/>
        <path class="st5" d="M1131.4-242.24l-.58-2.19h-.39v26.89h-6.38v-47.4h6.19l6.77,24.7.58,2.19h.39v-26.89h6.39v47.4h-6.19l-6.77-24.7Z"/>
      </g>
      <g class="st7">
        <path class="st5" d="M915.8-273.58c-.03.25-.11.46-.24.62-.13.16-.28.29-.45.38-.18.09-.37.16-.57.2-.2.04-.39.06-.58.06-.22,0-.43-.02-.64-.07-.21-.05-.39-.12-.55-.21-.16-.1-.29-.21-.38-.35-.09-.14-.14-.3-.14-.47,0-.34.02-.66.05-.95.03-.29.08-.58.15-.88.21-.97.41-1.86.59-2.69.18-.83.34-1.63.47-2.41.13-.78.24-1.53.33-2.25.09-.72.17-1.44.25-2.17.07-.73.14-1.48.2-2.26l.19-2.49v-.29c0-.12-.01-.23-.04-.34-.03-.11-.07-.2-.14-.28-.07-.08-.16-.11-.29-.11-.21,0-.46.07-.76.22-.3.14-.61.34-.94.59-.33.24-.66.53-.99.86-.33.33-.63.68-.91,1.06-.05.13-.13.23-.25.28-.11.06-.24.09-.38.09-.04,0-.09-.04-.14-.11-.05-.08-.09-.16-.13-.27-.04-.11-.07-.22-.1-.34-.03-.12-.04-.23-.04-.32,0-.05.02-.1.05-.13.3-.98.65-1.8,1.03-2.47.38-.66.79-1.19,1.21-1.59.42-.4.86-.68,1.3-.84.44-.17.86-.25,1.27-.25.52,0,.95.1,1.3.29.35.19.62.46.82.81.2.35.34.77.42,1.26.08.49.12,1.04.12,1.64,0,.49-.02,1.06-.05,1.71-.03.65-.11,1.32-.24,2.01-.13.69-.25,1.39-.38,2.09l-.36,1.96c.27-1.12.6-2.19.97-3.22.37-1.03.77-1.99,1.21-2.88.43-.89.89-1.71,1.36-2.43.48-.73.96-1.35,1.47-1.87.5-.52,1.01-.92,1.53-1.21.52-.29,1.03-.43,1.54-.43.38,0,.74.08,1.07.25.33.16.61.42.84.76.23.34.42.78.55,1.31.13.52.2,1.15.2,1.87,0,.07,0,.18-.02.33-.01.15-.03.32-.05.51-.02.19-.05.4-.08.62-.03.22-.06.44-.08.65l-.21,1.66h.26c.33-1.26.73-2.37,1.21-3.36s1.02-1.83,1.62-2.53c.6-.69,1.24-1.22,1.93-1.59.69-.37,1.41-.55,2.15-.55.51,0,.97.15,1.37.45.4.3.73.71,1,1.22.27.51.47,1.11.62,1.8.14.69.21,1.42.21,2.18s-.07,1.48-.21,2.23c-.14.75-.28,1.5-.42,2.25-.14.75-.28,1.48-.41,2.19l-.39,2.05c-.12.65-.23,1.24-.34,1.79-.1.55-.15,1.02-.15,1.41,0,.5.09.85.27,1.08.18.22.44.33.79.33.19,0,.4-.05.61-.16.21-.1.43-.24.64-.42.21-.17.43-.37.64-.59.21-.22.41-.45.6-.69.45-.54.89-1.16,1.32-1.85,0,0,.04.1.11.26l.29.73.57,1.49c-.42.74-.85,1.37-1.3,1.88-.45.51-.9.93-1.36,1.25-.46.32-.93.56-1.41.7-.47.14-.95.21-1.42.21s-.9-.08-1.33-.24c-.43-.16-.82-.4-1.15-.71-.34-.32-.6-.71-.81-1.17-.2-.47-.3-1-.3-1.61,0-.07,0-.14,0-.22,0-.08.01-.15.02-.23.03-.57.11-1.17.22-1.81.11-.64.24-1.29.38-1.97l.37-2.06c.13-.71.25-1.41.38-2.1.12-.69.25-1.37.37-2.04.12-.67.18-1.32.18-1.95,0-.38-.01-.72-.04-1.02-.03-.3-.08-.56-.15-.78-.08-.21-.19-.38-.33-.5-.15-.12-.34-.18-.57-.18-.43,0-.84.16-1.22.47-.38.31-.75.74-1.09,1.29-.34.55-.66,1.2-.96,1.95-.3.75-.58,1.56-.84,2.43-.27.87-.5,1.79-.7,2.75-.2.96-.4,1.93-.61,2.89-.2.97-.4,1.91-.6,2.84l-.56,2.66c-.07.24-.18.43-.33.6-.15.16-.32.3-.51.4-.19.1-.4.17-.61.22-.22.05-.43.07-.65.07-.18,0-.35-.03-.52-.1-.17-.07-.32-.17-.46-.32-.13-.15-.24-.33-.32-.56-.08-.23-.12-.5-.12-.83.09-.22.19-.6.3-1.13.1-.54.22-1.17.37-1.92l.47-2.45c.17-.89.34-1.79.52-2.71.18-.92.29-1.82.35-2.72.06-.9.09-1.73.09-2.48,0-.52-.01-1-.04-1.41-.02-.41-.08-.77-.18-1.05-.09-.29-.23-.51-.4-.66-.17-.15-.4-.23-.69-.23-.24,0-.51.16-.81.47-.3.31-.63.75-.98,1.3-.35.55-.7,1.21-1.04,1.99-.35.77-.71,1.59-1.1,2.46-.39.87-.74,1.79-1.05,2.77-.31.97-.6,1.95-.86,2.92s-.49,1.92-.68,2.85c-.19.93-.36,1.79-.53,2.58Z"/>
        <path class="st5" d="M961.18-275.01c-.18.18-.4.38-.67.6-.27.22-.58.45-.92.68-.34.23-.71.45-1.1.67-.4.22-.8.41-1.21.58-.41.17-.83.3-1.24.4-.42.1-.83.15-1.23.15-.28,0-.57-.04-.86-.13-.29-.09-.55-.25-.79-.48-.24-.23-.43-.56-.58-.97-.15-.41-.23-.95-.23-1.61,0-.31.03-.65.09-1.01.06-.36.13-.75.23-1.17-.55.9-1.11,1.8-1.65,2.69-.55.89-1.16,1.58-1.84,2.06-.68.48-1.38.84-2.11,1.09-.73.25-1.45.37-2.18.37-.78,0-1.52-.13-2.22-.4-.7-.27-1.32-.67-1.86-1.2-.54-.53-.96-1.19-1.28-1.98-.31-.79-.47-1.85-.47-3.18,0-.82.09-1.68.29-2.58.19-.9.47-1.81.83-2.72.36-.92.8-1.82,1.32-2.72.52-.9,1.1-1.75,1.76-2.56.66-.81,1.38-1.56,2.16-2.25.78-.69,1.61-1.29,2.5-1.79.89-.5,1.82-.9,2.8-1.19.98-.29,2-.43,3.05-.43.3,0,.54.02.73.07.18.05.32.11.41.18.09.07.15.15.18.22s.04.14.04.2c0,.04,0,.08,0,.11,0,.03,0,.06,0,.08v.06c.21.13.43.22.65.25.22.03.44.05.65.08.21.02.41.07.61.13.19.07.36.2.5.4.14.2.26.49.35.87.09.38.13.9.13,1.55,0,.5-.05,1.06-.15,1.69-.1.63-.24,1.28-.43,1.96-.19.68-.38,1.38-.58,2.08l-.58,2.06-.53,1.89c-.17.59-.31,1.1-.43,1.54.02.39.04.75.06,1.09.02.34.02.69.02,1.05,0,.28,0,.52.02.7.01.18.03.33.07.43.03.11.08.18.14.22.06.04.13.06.23.06.17,0,.38-.04.64-.13.26-.09.53-.2.82-.34.29-.14.59-.29.9-.47l.91-.54.82-.47.63-.36.64,2.46ZM955.05-291.46c-.29-.08-.58-.14-.89-.18-.31-.04-.6-.06-.89-.06-.68,0-1.36.13-2.03.39-.67.26-1.31.62-1.94,1.08-.63.45-1.23.99-1.8,1.61-.57.62-1.1,1.28-1.6,1.99-.49.71-.94,1.45-1.34,2.21-.4.76-.74,1.53-1.03,2.29-.29.76-.51,1.5-.66,2.22-.15.72-.23,1.38-.23,1.98,0,1.42.24,2.44.71,3.07.47.63,1.21.94,2.21.94.62,0,1.21-.13,1.77-.39.56-.26,1.08-.6,1.56-1.03.48-.42.91-.98,1.31-1.66l1.06-1.83c.29-.55.54-1.07.73-1.58.19-.51.33-.95.42-1.32l2.62-9.73Z"/>
      </g>
      <g>
        <path class="st5" d="M1007.84-127.11l11.66-77.19h13.86l11.66,77.19h-11.03l-2.1-15.75h-10.92l-2.1,15.75h-11.03ZM1027.06-179.2l-.31-2h-.63l-.31,2-3.26,24.36h7.77l-3.26-24.36Z"/>
        <path class="st5" d="M1069.07-127.11l-7.25-48.52-.42-3.26h-.63v51.77h-10.5v-77.19h13.86l6.72,35.28.53,4.1h.21l.53-4.1,6.72-35.28h13.86v77.19h-10.5v-51.77h-.63l-.42,3.26-7.25,48.52h-4.83Z"/>
        <path class="st5" d="M1130.61-142.97c-.11,3.15-.73,5.99-1.89,8.4-.95,2.1-2.42,4.1-4.52,5.67-2.1,1.68-4.94,2.62-8.72,2.62s-6.72-.95-8.82-2.62c-2.1-1.57-3.47-3.57-4.41-5.67-1.15-2.42-1.79-5.25-1.89-8.4v-45.47c.1-3.05.73-5.88,1.89-8.3.95-2.1,2.31-4.2,4.41-5.78,2.1-1.58,5.04-2.63,8.82-2.63s6.61,1.05,8.72,2.63c2.1,1.58,3.57,3.68,4.52,5.78,1.16,2.41,1.78,5.25,1.89,8.3v45.47ZM1119.27-188.44c0-2.1-.42-3.57-1.47-4.83-.52-.53-1.36-.84-2.31-.84-2,0-2.94,1.47-3.36,2.84-.32.84-.42,1.79-.42,2.84v45.47c0,2.2.52,3.67,1.58,4.83.53.52,1.26.84,2.21.84,1.99,0,2.94-1.26,3.36-2.83.31-.74.42-1.68.42-2.83v-45.47Z"/>
        <path class="st5" d="M1168.41-204.3v61.33c-.11,3.15-.73,5.99-1.89,8.4-.94,2.1-2.41,4.1-4.52,5.67-2.1,1.68-4.93,2.62-8.72,2.62s-6.72-.95-8.82-2.62c-2.1-1.57-3.46-3.57-4.41-5.67-1.16-2.42-1.79-5.25-1.89-8.4v-61.33h11.34v61.33c0,2.2.52,3.67,1.58,4.83.52.52,1.26.84,2.21.84,1.99,0,2.94-1.26,3.36-2.83.31-.74.42-1.68.42-2.83v-61.33h11.34Z"/>
        <path class="st5" d="M1196.98-127.11l-5.88-32.56h-3.05v32.56h-11.34v-77.19h11.34c13.55,0,19.32,7.67,19.32,22.26,0,7.67-1.99,14.6-6.3,17.54l7.25,37.39h-11.34ZM1188.05-170.17c1.57,0,3.67-.21,5.36-1.68,1.68-1.47,3.05-4.3,3.05-9.77s-1.37-8.4-3.05-9.87c-1.68-1.47-3.78-1.58-5.36-1.58v22.89Z"/>
      </g>
    </g>
    <path id="path2331" data-name="path233" class="st4" d="M1224.61-239.42c-8.55,0-15.5,6.94-15.5,15.5,0,17.4,17.56,21.97,29.52,39.18,11.32-17.1,29.52-22.33,29.52-39.18,0-8.56-6.94-15.5-15.5-15.5-6.2,0-11.55,3.67-14.02,8.94-2.47-5.27-7.82-8.94-14.02-8.94Z"/>
    <g>
      <path id="path2332" data-name="path233" class="st0" d="M891.65-182.48c-10.73,0-19.43,8.71-19.43,19.43,0,21.82,22.01,27.55,37.02,49.12,14.18-21.44,37.01-27.99,37.01-49.12,0-10.73-8.7-19.43-19.44-19.43-7.78,0-14.48,4.59-17.58,11.2-3.1-6.61-9.8-11.2-17.58-11.2Z"/>
      <path class="st4" d="M909.25-112.38l-.73-1.05c-5.69-8.18-12.53-14.18-18.57-19.46-9.98-8.75-18.61-16.3-18.61-30.15,0-11.2,9.11-20.3,20.3-20.3,7.25,0,13.98,3.95,17.58,10.2,3.6-6.25,10.32-10.2,17.58-10.2,11.2,0,20.3,9.1,20.3,20.3,0,13.21-8.56,20.8-18.48,29.59-6.17,5.47-13.17,11.67-18.68,20.01l-.71,1.07ZM891.65-181.61c-10.24,0-18.57,8.33-18.57,18.56,0,13.06,7.95,20.03,18.01,28.84,5.86,5.13,12.46,10.92,18.12,18.75,5.52-8,12.28-13.99,18.27-19.3,9.6-8.51,17.89-15.86,17.89-28.29,0-10.24-8.33-18.56-18.57-18.56-7.15,0-13.74,4.2-16.79,10.7l-.79,1.68-.79-1.68c-3.05-6.5-9.65-10.7-16.8-10.7Z"/>
    </g>
  </g>
  <g>
    <g>
      <path id="path2333" data-name="path233" class="st0" d="M932.95,231.6c-26.56,0-48.12,21.56-48.12,48.12,0,54.03,54.51,68.21,91.66,121.63,35.12-53.1,91.65-69.32,91.65-121.63,0-26.56-21.56-48.12-48.13-48.12-19.26,0-35.85,11.38-43.53,27.75-7.68-16.37-24.27-27.75-43.54-27.75Z"/>
      <path class="st4" d="M976.52,404.22l-1.36-1.95c-14.13-20.32-31.09-35.18-46.06-48.29-24.62-21.57-45.89-40.2-45.89-74.26,0-27.42,22.31-49.73,49.74-49.73,18.09,0,34.84,10.03,43.54,25.81,8.69-15.78,25.44-25.81,43.53-25.81,27.43,0,49.74,22.31,49.74,49.73,0,32.47-21.12,51.19-45.58,72.87-15.31,13.57-32.65,28.95-46.34,49.65l-1.31,1.98ZM932.95,233.21c-25.65,0-46.51,20.86-46.51,46.51,0,32.59,20.75,50.77,44.79,71.83,14.63,12.82,31.16,27.3,45.23,46.95,13.7-20.07,30.61-35.05,45.58-48.33,23.87-21.17,44.49-39.44,44.49-70.46,0-25.65-20.87-46.51-46.51-46.51-17.92,0-34.43,10.53-42.07,26.82l-1.46,3.11-1.46-3.11c-7.65-16.29-24.16-26.82-42.08-26.82Z"/>
    </g>
    <path id="path2334" data-name="path233" class="st4" d="M1032.72,327.27c-8.55,0-15.5,6.94-15.5,15.5,0,17.4,17.56,21.97,29.52,39.18,11.32-17.1,29.52-22.33,29.52-39.18,0-8.56-6.94-15.5-15.5-15.5-6.2,0-11.55,3.67-14.02,8.94-2.47-5.27-7.82-8.94-14.02-8.94Z"/>
    <g>
      <path id="path2335" data-name="path233" class="st0" d="M717.76,384.21c-10.73,0-19.43,8.71-19.43,19.43,0,21.82,22.01,27.55,37.02,49.12,14.18-21.44,37.01-27.99,37.01-49.12,0-10.73-8.7-19.43-19.44-19.43-7.78,0-14.48,4.59-17.58,11.2-3.1-6.61-9.8-11.2-17.58-11.2Z"/>
      <path class="st4" d="M735.36,454.31l-.73-1.05c-5.69-8.18-12.53-14.18-18.57-19.46-9.98-8.75-18.61-16.3-18.61-30.15,0-11.2,9.11-20.3,20.3-20.3,7.25,0,13.98,3.95,17.58,10.2,3.6-6.25,10.32-10.2,17.58-10.2,11.2,0,20.3,9.1,20.3,20.3,0,13.21-8.56,20.8-18.48,29.59-6.17,5.47-13.17,11.67-18.68,20.01l-.71,1.07ZM717.76,385.08c-10.24,0-18.57,8.33-18.57,18.56,0,13.06,7.95,20.03,18.01,28.84,5.86,5.13,12.46,10.92,18.12,18.75,5.52-8,12.28-13.99,18.27-19.3,9.6-8.51,17.89-15.86,17.89-28.29,0-10.24-8.33-18.56-18.57-18.56-7.15,0-13.74,4.2-16.79,10.7l-.79,1.68-.79-1.68c-3.05-6.5-9.65-10.7-16.8-10.7Z"/>
    </g>
  </g>
  <g>
    <text class="st3" transform="translate(-300.11 -581.48)"><tspan x="0" y="0">minha</tspan></text>
    <text class="st3" transform="translate(-241.54 -482.9)"><tspan x="0" y="0">D’</tspan></text>
    <g>
      <g>
        <path id="path2336" data-name="path233" class="st0" d="M-77.05-666.98c-26.56,0-48.12,21.56-48.12,48.12,0,54.03,54.51,68.21,91.66,121.63,35.12-53.1,91.65-69.32,91.65-121.63,0-26.56-21.56-48.12-48.13-48.12-19.26,0-35.85,11.38-43.53,27.75-7.68-16.37-24.27-27.75-43.54-27.75Z"/>
        <path class="st4" d="M-33.48-494.36l-1.36-1.95c-14.13-20.32-31.09-35.18-46.06-48.29-24.62-21.57-45.89-40.2-45.89-74.26,0-27.42,22.31-49.73,49.74-49.73,18.09,0,34.84,10.03,43.54,25.81,8.69-15.78,25.44-25.81,43.53-25.81,27.43,0,49.74,22.31,49.74,49.73,0,32.47-21.12,51.19-45.58,72.87-15.31,13.57-32.65,28.95-46.34,49.65l-1.31,1.98ZM-77.05-665.37c-25.65,0-46.51,20.86-46.51,46.51,0,32.59,20.75,50.77,44.79,71.83,14.63,12.82,31.16,27.3,45.23,46.95,13.7-20.07,30.61-35.05,45.58-48.33,23.87-21.17,44.49-39.44,44.49-70.46,0-25.65-20.87-46.51-46.51-46.51-17.92,0-34.43,10.53-42.07,26.82l-1.46,3.11-1.46-3.11c-7.65-16.29-24.16-26.82-42.08-26.82Z"/>
      </g>
      <path id="path2337" data-name="path233" class="st4" d="M22.72-571.31c-8.55,0-15.5,6.94-15.5,15.5,0,17.4,17.56,21.97,29.52,39.18,11.32-17.1,29.52-22.33,29.52-39.18,0-8.56-6.94-15.5-15.5-15.5-6.2,0-11.55,3.67-14.02,8.94-2.47-5.27-7.82-8.94-14.02-8.94Z"/>
    </g>
    <g>
      <path id="path2338" data-name="path233" class="st0" d="M-323.84-501.77c-10.73,0-19.43,8.71-19.43,19.43,0,21.82,22.01,27.55,37.02,49.12,14.18-21.44,37.01-27.99,37.01-49.12,0-10.73-8.7-19.43-19.44-19.43-7.78,0-14.48,4.59-17.58,11.2-3.1-6.61-9.8-11.2-17.58-11.2Z"/>
      <path class="st4" d="M-306.23-431.67l-.73-1.05c-5.69-8.18-12.53-14.18-18.57-19.46-9.98-8.75-18.61-16.3-18.61-30.15,0-11.2,9.11-20.3,20.3-20.3,7.25,0,13.98,3.95,17.58,10.2,3.6-6.25,10.32-10.2,17.58-10.2,11.2,0,20.3,9.1,20.3,20.3,0,13.21-8.56,20.8-18.48,29.59-6.17,5.47-13.17,11.67-18.68,20.01l-.71,1.07ZM-323.84-500.9c-10.24,0-18.57,8.33-18.57,18.56,0,13.06,7.95,20.03,18.01,28.84,5.86,5.13,12.46,10.92,18.12,18.75,5.52-8,12.28-13.99,18.27-19.3,9.6-8.51,17.89-15.86,17.89-28.29,0-10.24-8.33-18.56-18.57-18.56-7.15,0-13.74,4.2-16.79,10.7l-.79,1.68-.79-1.68c-3.05-6.5-9.65-10.7-16.8-10.7Z"/>
    </g>
    <text class="st1" transform="translate(-194.79 -448.32)"><tspan x="0" y="0">AMORE</tspan></text>
    <text class="st2" transform="translate(-302.26 -534.35)"><tspan x="0" y="0">MANIFESTAÇAO</tspan></text>
  </g>
  <g>
    <text class="st3" transform="translate(-46.55 -224.97)"><tspan x="0" y="0">my</tspan></text>
    <g>
      <g>
        <path id="path2339" data-name="path233" class="st0" d="M103.65-298.29c-26.56,0-48.12,21.56-48.12,48.12,0,54.03,54.51,68.21,91.66,121.63,35.12-53.1,91.65-69.32,91.65-121.63,0-26.56-21.56-48.12-48.13-48.12-19.26,0-35.85,11.38-43.53,27.75-7.68-16.37-24.27-27.75-43.54-27.75Z"/>
        <path class="st4" d="M147.22-125.67l-1.36-1.95c-14.13-20.32-31.09-35.18-46.06-48.29-24.62-21.57-45.89-40.2-45.89-74.26,0-27.42,22.31-49.73,49.74-49.73,18.09,0,34.84,10.03,43.54,25.81,8.69-15.78,25.44-25.81,43.53-25.81,27.43,0,49.74,22.31,49.74,49.73,0,32.47-21.12,51.19-45.58,72.87-15.31,13.57-32.65,28.95-46.34,49.65l-1.31,1.98ZM103.65-296.68c-25.65,0-46.51,20.86-46.51,46.51,0,32.59,20.75,50.77,44.79,71.83,14.63,12.82,31.16,27.3,45.23,46.95,13.7-20.07,30.61-35.05,45.58-48.33,23.87-21.17,44.49-39.44,44.49-70.46,0-25.65-20.87-46.51-46.51-46.51-17.92,0-34.43,10.53-42.07,26.82l-1.46,3.11-1.46-3.11c-7.65-16.29-24.16-26.82-42.08-26.82Z"/>
      </g>
      <path id="path23310" data-name="path233" class="st4" d="M203.42-202.62c-8.55,0-15.5,6.94-15.5,15.5,0,17.4,17.56,21.97,29.52,39.18,11.32-17.1,29.52-22.33,29.52-39.18,0-8.56-6.94-15.5-15.5-15.5-6.2,0-11.55,3.67-14.02,8.94-2.47-5.27-7.82-8.94-14.02-8.94Z"/>
    </g>
    <g>
      <path id="path23311" data-name="path233" class="st0" d="M-113.61-132.58c-10.73,0-19.43,8.71-19.43,19.43,0,21.82,22.01,27.55,37.02,49.12,14.18-21.44,37.01-27.99,37.01-49.12,0-10.73-8.7-19.43-19.44-19.43-7.78,0-14.48,4.59-17.58,11.2-3.1-6.61-9.8-11.2-17.58-11.2Z"/>
      <path class="st4" d="M-96.01-62.48l-.73-1.05c-5.69-8.18-12.53-14.18-18.57-19.46-9.98-8.75-18.61-16.3-18.61-30.15,0-11.2,9.11-20.3,20.3-20.3,7.25,0,13.98,3.95,17.58,10.2,3.6-6.25,10.32-10.2,17.58-10.2,11.2,0,20.3,9.1,20.3,20.3,0,13.21-8.56,20.8-18.48,29.59-6.17,5.47-13.17,11.67-18.68,20.01l-.71,1.07ZM-113.61-131.71c-10.24,0-18.57,8.33-18.57,18.56,0,13.06,7.95,20.03,18.01,28.84,5.86,5.13,12.46,10.92,18.12,18.75,5.52-8,12.28-13.99,18.27-19.3,9.6-8.51,17.89-15.86,17.89-28.29,0-10.24-8.33-18.56-18.57-18.56-7.15,0-13.74,4.2-16.79,10.7l-.79,1.68-.79-1.68c-3.05-6.5-9.65-10.7-16.8-10.7Z"/>
    </g>
    <text class="st2" transform="translate(-18.54 -93.96)"><tspan x="0" y="0">MANIFESTATION</tspan></text>
    <text class="st1" transform="translate(-41.55 -144.71)"><tspan x="0" y="0">LOVE</tspan></text>
  </g>
  <g>
    <text class="st3" transform="translate(619.34 -487.26)"><tspan x="0" y="0">meine</tspan></text>
    <g>
      <g>
        <path id="path23312" data-name="path233" class="st0" d="M769.53-560.58c-26.56,0-48.12,21.56-48.12,48.12,0,54.03,54.51,68.21,91.66,121.63,35.12-53.1,91.65-69.32,91.65-121.63,0-26.56-21.56-48.12-48.13-48.12-19.26,0-35.85,11.38-43.53,27.75-7.68-16.37-24.27-27.75-43.54-27.75Z"/>
        <path class="st4" d="M813.1-387.96l-1.36-1.95c-14.13-20.32-31.09-35.18-46.06-48.29-24.62-21.57-45.89-40.2-45.89-74.26,0-27.42,22.31-49.73,49.74-49.73,18.09,0,34.84,10.03,43.54,25.81,8.69-15.78,25.44-25.81,43.53-25.81,27.43,0,49.74,22.31,49.74,49.73,0,32.47-21.12,51.19-45.58,72.87-15.31,13.57-32.65,28.95-46.34,49.65l-1.31,1.98ZM769.53-558.97c-25.65,0-46.51,20.86-46.51,46.51,0,32.59,20.75,50.77,44.79,71.83,14.63,12.82,31.16,27.3,45.23,46.95,13.7-20.07,30.61-35.05,45.58-48.33,23.87-21.17,44.49-39.44,44.49-70.46,0-25.65-20.87-46.51-46.51-46.51-17.92,0-34.43,10.53-42.07,26.82l-1.46,3.11-1.46-3.11c-7.65-16.29-24.16-26.82-42.08-26.82Z"/>
      </g>
      <path id="path23313" data-name="path233" class="st4" d="M869.3-464.91c-8.55,0-15.5,6.94-15.5,15.5,0,17.4,17.56,21.97,29.52,39.18,11.32-17.1,29.52-22.33,29.52-39.18,0-8.56-6.94-15.5-15.5-15.5-6.2,0-11.55,3.67-14.02,8.94-2.47-5.27-7.82-8.94-14.02-8.94Z"/>
    </g>
    <g>
      <path id="path23314" data-name="path233" class="st0" d="M553.16-397.35c-10.73,0-19.43,8.71-19.43,19.43,0,21.82,22.01,27.55,37.02,49.12,14.18-21.44,37.01-27.99,37.01-49.12,0-10.73-8.7-19.43-19.44-19.43-7.78,0-14.48,4.59-17.58,11.2-3.1-6.61-9.8-11.2-17.58-11.2Z"/>
      <path class="st4" d="M570.76-327.25l-.73-1.05c-5.69-8.18-12.53-14.18-18.57-19.46-9.98-8.75-18.61-16.3-18.61-30.15,0-11.2,9.11-20.3,20.3-20.3,7.25,0,13.98,3.95,17.58,10.2,3.6-6.25,10.32-10.2,17.58-10.2,11.2,0,20.3,9.1,20.3,20.3,0,13.21-8.56,20.8-18.48,29.59-6.17,5.47-13.17,11.67-18.68,20.01l-.71,1.07ZM553.16-396.48c-10.24,0-18.57,8.33-18.57,18.56,0,13.06,7.95,20.03,18.01,28.84,5.86,5.13,12.46,10.92,18.12,18.75,5.52-8,12.28-13.99,18.27-19.3,9.6-8.51,17.89-15.86,17.89-28.29,0-10.24-8.33-18.56-18.57-18.56-7.15,0-13.74,4.2-16.79,10.7l-.79,1.68-.79-1.68c-3.05-6.5-9.65-10.7-16.8-10.7Z"/>
    </g>
    <text class="st2" transform="translate(647.34 -356.26)"><tspan x="0" y="0">MANIFESTATION</tspan></text>
    <text class="st1" transform="translate(624.34 -407)"><tspan x="0" y="0">LIEBER</tspan></text>
  </g>
  <g>
    <text class="st3" transform="translate(158.47 -393.83)"><tspan x="0" y="0">mi</tspan></text>
    <text class="st3" transform="translate(226.03 -302.26)"><tspan x="0" y="0">De</tspan></text>
    <g>
      <g>
        <path id="path23315" data-name="path233" class="st0" d="M381.52-472.34c-26.56,0-48.12,21.56-48.12,48.12,0,54.03,54.51,68.21,91.66,121.63,35.12-53.1,91.65-69.32,91.65-121.63,0-26.56-21.56-48.12-48.13-48.12-19.26,0-35.85,11.38-43.53,27.75-7.68-16.37-24.27-27.75-43.54-27.75Z"/>
        <path class="st4" d="M425.09-299.71l-1.36-1.95c-14.13-20.32-31.09-35.18-46.06-48.29-24.62-21.57-45.89-40.2-45.89-74.26,0-27.42,22.31-49.73,49.74-49.73,18.09,0,34.84,10.03,43.54,25.81,8.69-15.78,25.44-25.81,43.53-25.81,27.43,0,49.74,22.31,49.74,49.73,0,32.47-21.12,51.19-45.58,72.87-15.31,13.57-32.65,28.95-46.34,49.65l-1.31,1.98ZM381.52-470.72c-25.65,0-46.51,20.86-46.51,46.51,0,32.59,20.75,50.77,44.79,71.83,14.63,12.82,31.16,27.3,45.23,46.95,13.7-20.07,30.61-35.05,45.58-48.33,23.87-21.17,44.49-39.44,44.49-70.46,0-25.65-20.87-46.51-46.51-46.51-17.92,0-34.43,10.53-42.07,26.82l-1.46,3.11-1.46-3.11c-7.65-16.29-24.16-26.82-42.08-26.82Z"/>
      </g>
      <path id="path23316" data-name="path233" class="st4" d="M481.29-376.66c-8.55,0-15.5,6.94-15.5,15.5,0,17.4,17.56,21.97,29.52,39.18,11.32-17.1,29.52-22.33,29.52-39.18,0-8.56-6.94-15.5-15.5-15.5-6.2,0-11.55,3.67-14.02,8.94-2.47-5.27-7.82-8.94-14.02-8.94Z"/>
    </g>
    <g>
      <path id="path23317" data-name="path233" class="st0" d="M146.89-328.12c-10.73,0-19.43,8.71-19.43,19.43,0,21.82,22.01,27.55,37.02,49.12,14.18-21.44,37.01-27.99,37.01-49.12,0-10.73-8.7-19.43-19.44-19.43-7.78,0-14.48,4.59-17.58,11.2-3.1-6.61-9.8-11.2-17.58-11.2Z"/>
      <path class="st4" d="M164.49-258.02l-.73-1.05c-5.69-8.18-12.53-14.18-18.57-19.46-9.98-8.75-18.61-16.3-18.61-30.15,0-11.2,9.11-20.3,20.3-20.3,7.25,0,13.98,3.95,17.58,10.2,3.6-6.25,10.32-10.2,17.58-10.2,11.2,0,20.3,9.1,20.3,20.3,0,13.21-8.56,20.8-18.48,29.59-6.17,5.47-13.17,11.67-18.68,20.01l-.71,1.07ZM146.89-327.25c-10.24,0-18.57,8.33-18.57,18.56,0,13.06,7.95,20.03,18.01,28.84,5.86,5.13,12.46,10.92,18.12,18.75,5.52-8,12.28-13.99,18.27-19.3,9.6-8.51,17.89-15.86,17.89-28.29,0-10.24-8.33-18.56-18.57-18.56-7.15,0-13.74,4.2-16.79,10.7l-.79,1.68-.79-1.68c-3.05-6.5-9.65-10.7-16.8-10.7Z"/>
    </g>
    <text class="st1" transform="translate(284.08 -266.03)"><tspan x="0" y="0">AMOR</tspan></text>
    <text class="st2" transform="translate(156.32 -346.71)"><tspan x="0" y="0">MANIFESTAcION</tspan></text>
  </g>
  <g>
    <text class="st3" transform="translate(488.53 -119.4)"><tspan x="0" y="0">ma</tspan></text>
    <text class="st3" transform="translate(547.1 -20.82)"><tspan x="0" y="0">D’</tspan></text>
    <g>
      <g>
        <path id="path23318" data-name="path233" class="st0" d="M711.58-204.9c-26.56,0-48.12,21.56-48.12,48.12,0,54.03,54.51,68.21,91.66,121.63,35.12-53.1,91.65-69.32,91.65-121.63,0-26.56-21.56-48.12-48.13-48.12-19.26,0-35.85,11.38-43.53,27.75-7.68-16.37-24.27-27.75-43.54-27.75Z"/>
        <path class="st4" d="M755.16-32.28l-1.36-1.95c-14.13-20.32-31.09-35.18-46.06-48.29-24.62-21.57-45.89-40.2-45.89-74.26,0-27.42,22.31-49.73,49.74-49.73,18.09,0,34.84,10.03,43.54,25.81,8.69-15.78,25.44-25.81,43.53-25.81,27.43,0,49.74,22.31,49.74,49.73,0,32.47-21.12,51.19-45.58,72.87-15.31,13.57-32.65,28.95-46.34,49.65l-1.31,1.98ZM711.58-203.29c-25.65,0-46.51,20.86-46.51,46.51,0,32.59,20.75,50.77,44.79,71.83,14.63,12.82,31.16,27.3,45.23,46.95,13.7-20.07,30.61-35.05,45.58-48.33,23.87-21.17,44.49-39.44,44.49-70.46,0-25.65-20.87-46.51-46.51-46.51-17.92,0-34.43,10.53-42.07,26.82l-1.46,3.11-1.46-3.11c-7.65-16.29-24.16-26.82-42.08-26.82Z"/>
      </g>
      <path id="path23319" data-name="path233" class="st4" d="M811.35-109.23c-8.55,0-15.5,6.94-15.5,15.5,0,17.4,17.56,21.97,29.52,39.18,11.32-17.1,29.52-22.33,29.52-39.18,0-8.56-6.94-15.5-15.5-15.5-6.2,0-11.55,3.67-14.02,8.94-2.47-5.27-7.82-8.94-14.02-8.94Z"/>
    </g>
    <g>
      <path id="path23320" data-name="path233" class="st0" d="M464.8-39.69c-10.73,0-19.43,8.71-19.43,19.43,0,21.82,22.01,27.55,37.02,49.12,14.18-21.44,37.01-27.99,37.01-49.12,0-10.73-8.7-19.43-19.44-19.43-7.78,0-14.48,4.59-17.58,11.2-3.1-6.61-9.8-11.2-17.58-11.2Z"/>
      <path class="st4" d="M482.4,30.41l-.73-1.05c-5.69-8.18-12.53-14.18-18.57-19.46-9.98-8.75-18.61-16.3-18.61-30.15,0-11.2,9.11-20.3,20.3-20.3,7.25,0,13.98,3.95,17.58,10.2,3.6-6.25,10.32-10.2,17.58-10.2,11.2,0,20.3,9.1,20.3,20.3,0,13.21-8.56,20.8-18.48,29.59-6.17,5.47-13.17,11.67-18.68,20.01l-.71,1.07ZM464.8-38.82c-10.24,0-18.57,8.33-18.57,18.56,0,13.06,7.95,20.03,18.01,28.84,5.86,5.13,12.46,10.92,18.12,18.75,5.52-8,12.28-13.99,18.27-19.3,9.6-8.51,17.89-15.86,17.89-28.29,0-10.24-8.33-18.56-18.57-18.56-7.15,0-13.74,4.2-16.79,10.7l-.79,1.68-.79-1.68c-3.05-6.5-9.65-10.7-16.8-10.7Z"/>
    </g>
    <text class="st1" transform="translate(593.85 13.76)"><tspan x="0" y="0">AMOUR</tspan></text>
    <text class="st2" transform="translate(486.38 -72.28)"><tspan x="0" y="0">MANIFESTATION</tspan></text>
  </g>
  <path id="path23321" data-name="path233" class="st4" d="M15.5,0C6.95,0,0,6.94,0,15.5c0,17.4,17.56,21.97,29.52,39.18,11.32-17.1,29.52-22.33,29.52-39.18,0-8.56-6.94-15.5-15.5-15.5-6.2,0-11.55,3.67-14.02,8.94C27.05,3.67,21.71,0,15.5,0Z"/>
</svg>