<?xml version="1.0" encoding="UTF-8"?>
<svg id="Calque_1" xmlns="http://www.w3.org/2000/svg" version="1.1" viewBox="0 0 413.81 237.86">
  <!-- Generator: Adobe Illustrator 30.1.0, SVG Export Plug-In . SVG Version: 2.1.1 Build 136)  -->
  <defs>
    <style>
      .st0 {
        fill: #700b06;
      }

      .st1 {
        isolation: isolate;
      }

      .st2 {
        fill: #fff;
      }

      .st3 {
        fill: #d46f66;
      }

      .st4 {
        fill: #f9f4f4;
      }

      .st5 {
        opacity: .4;
      }
    </style>
  </defs>
  <g>
    <g>
      <path id="path233" class="st0" d="M1468.98,333.51c-26.56,0-48.12,21.56-48.12,48.12,0,54.03,54.51,68.21,91.66,121.63,35.12-53.1,91.65-69.32,91.65-121.63,0-26.56-21.56-48.12-48.13-48.12-19.26,0-35.85,11.38-43.53,27.75-7.68-16.37-24.27-27.75-43.54-27.75h.01Z"/>
      <path class="st3" d="M1512.55,506.13l-1.36-1.95c-14.13-20.32-31.09-35.18-46.06-48.29-24.62-21.57-45.89-40.2-45.89-74.26,0-27.42,22.31-49.73,49.74-49.73,18.09,0,34.84,10.03,43.54,25.81,8.69-15.78,25.44-25.81,43.53-25.81,27.43,0,49.74,22.31,49.74,49.73,0,32.47-21.12,51.19-45.58,72.87-15.31,13.57-32.65,28.95-46.34,49.65l-1.31,1.98h-.01ZM1468.98,335.12c-25.65,0-46.51,20.86-46.51,46.51,0,32.59,20.75,50.77,44.79,71.83,14.63,12.82,31.16,27.3,45.23,46.95,13.7-20.07,30.61-35.05,45.58-48.33,23.87-21.17,44.49-39.44,44.49-70.46,0-25.65-20.87-46.51-46.51-46.51-17.92,0-34.43,10.53-42.07,26.82l-1.46,3.11-1.46-3.11c-7.65-16.29-24.16-26.82-42.08-26.82h0Z"/>
    </g>
    <g>
      <g class="st5">
        <g>
          <path class="st4" d="M1333.87,463.59c1.36,0,2.58.11,3.64.34s1.99.54,2.79.95c.8.4,1.48.88,2.03,1.44s1,1.17,1.34,1.83c.34.66.59,1.36.75,2.1.15.74.23,1.5.23,2.27,0,1.06-.12,2.21-.35,3.44-.23,1.24-.57,2.36-1.02,3.38-.44,1.02-.99,1.97-1.64,2.86-.65.89-1.39,1.67-2.23,2.33-.84.66-1.76,1.19-2.76,1.57s-2.09.57-3.25.57c-.39,0-.79-.03-1.2-.09-.41-.06-.8-.14-1.18-.24-.38-.1-.75-.21-1.09-.34s-.64-.26-.9-.39c-.11-.03-.19-.07-.26-.12-.06-.05-.11-.1-.14-.16s-.05-.14-.06-.23c0-.09-.01-.21-.01-.35,0-1.39.04-2.82.11-4.29.07-1.46.21-2.96.43-4.51.22-1.54.53-2.9.94-4.08.41-1.18.95-2.27,1.62-3.27.17-.24.7-.37,1.61-.37.71,0,1.23.26,1.54.78-.39.52-.71,1.1-.97,1.74-.26.64-.48,1.27-.66,1.88-.18.62-.32,1.29-.44,2.02-.23,1.41-.34,2.13-.33,2.14.03.02-.07.82-.29,2.42-.08.55-.15,1.04-.2,1.45-.05.41-.08.77-.1,1.08s-.03.61-.03.91.01.57.03.78.07.38.15.5c.08.12.2.21.37.27.16.06.39.08.66.08.84,0,1.64-.17,2.4-.5s1.45-.78,2.09-1.34,1.21-1.21,1.72-1.95c.51-.74.94-1.59,1.3-2.56.36-.97.63-1.88.83-2.73.19-.85.29-1.67.29-2.46,0-.97-.16-1.85-.48-2.62s-.77-1.42-1.34-1.95c-.58-.53-1.27-.94-2.07-1.22-.81-.28-1.7-.42-2.66-.42-.71,0-1.41.04-2.1.13-.69.08-1.34.21-1.93.39-.59.18-1.11.4-1.56.67-.45.27-.79.6-1.02.98-.61.95-1.12,1.68-1.51,2.2-.39.52-.73.78-1,.78-.37,0-.55-.42-.55-1.27s.11-1.56.32-2.22.51-1.24.89-1.75.84-.94,1.36-1.3,1.1-.65,1.73-.88c.62-.23,1.29-.4,2-.51.71-.11,1.43-.16,2.17-.16h-.01Z"/>
          <path class="st4" d="M1346.57,469.3c0-.15,0-.35.02-.58.02-.24.03-.5.06-.79.02-.3.05-.61.08-.93l.09-.94c.07-.73.16-1.52.25-2.36,0-.25.06-.48.18-.67.12-.2.28-.37.48-.5.2-.14.42-.25.66-.32.25-.08.49-.11.74-.11.21,0,.4.03.59.08.19.06.35.14.5.25s.26.25.35.43.13.38.13.62c0,.1,0,.2-.03.31-.02.11-.04.22-.08.33l-.38,1.34-.43,1.44-.43,1.36c-.14.44-.26.81-.38,1.11-.14.4-.35.7-.61.9-.26.2-.53.3-.8.3s-.5-.1-.71-.31c-.2-.21-.3-.52-.3-.93l.02-.03h0Z"/>
        </g>
      </g>
      <g>
        <path class="st4" d="M1256.98,451.06v-47.4h5.48c6.45,0,9.93,1.29,11.8,4.9,1.81,3.61,2.06,9.54,2.06,18.83s-.26,15.16-2.06,18.77c-1.87,3.61-5.35,4.9-11.8,4.9h-5.48ZM1263.95,444.09c2.39,0,3.74-.26,4.45-2.58.32-1.1.58-2.77.64-5.03s.06-5.29.06-9.16,0-6.9-.06-9.16c-.06-2.19-.32-3.87-.64-5.03-.71-2.26-2.06-2.52-4.45-2.52v33.47h0Z"/>
        <path class="st4" d="M1280.97,403.65h15.93v7.16h-8.96v12.45h6.45v7.61h-6.45v13.03h8.96v7.16h-15.93v-47.4h0Z"/>
        <path class="st4" d="M1318.89,434.8v6.51c-.06,1.93-.45,3.68-1.16,5.16-.58,1.29-1.48,2.52-2.77,3.48-1.29,1.03-3.03,1.61-5.35,1.61s-4.13-.58-5.42-1.61c-1.29-.97-2.13-2.19-2.71-3.48-.71-1.48-1.1-3.23-1.16-5.16v-27.93c.07-1.87.45-3.61,1.16-5.09.58-1.29,1.42-2.58,2.71-3.55,1.29-.97,3.1-1.61,5.42-1.61s4.06.65,5.35,1.61c1.29.97,2.19,2.26,2.77,3.55.71,1.48,1.1,3.22,1.16,5.09v6.51h-6.51v-6.51c0-1.29-.32-2.19-1.03-2.97-.32-.32-.9-.52-1.61-.52-1.23,0-1.81.9-2.13,1.74-.19.52-.26,1.1-.32,1.74v27.93c.06,1.35.45,2.26,1.1,2.97.32.32.77.52,1.35.52,1.48,0,2.06-.77,2.39-1.74.19-.45.26-1.03.26-1.74v-6.51h6.51-.01Z"/>
        <path class="st4" d="M1323.08,403.65h6.96v40.95h9.22v6.45h-16.19v-47.4h.01Z"/>
        <path class="st4" d="M1340.82,451.06l7.16-47.4h8.51l7.16,47.4h-6.77l-1.29-9.67h-6.71l-1.29,9.67h-6.77ZM1352.62,419.07l-.19-1.23h-.39l-.19,1.23-2,14.96h4.77l-2-14.96h0Z"/>
        <path class="st4" d="M1379.32,451.06l-3.61-19.99h-1.87v19.99h-6.97v-47.4h6.97c8.32,0,11.87,4.71,11.87,13.67,0,4.71-1.23,8.96-3.87,10.77l4.45,22.96h-6.97ZM1373.84,424.61c.97,0,2.26-.13,3.29-1.03s1.87-2.64,1.87-6-.84-5.16-1.87-6.06-2.32-.97-3.29-.97v14.06Z"/>
        <path class="st4" d="M1388.22,451.06l7.16-47.4h8.51l7.16,47.4h-6.77l-1.29-9.67h-6.71l-1.29,9.67h-6.77ZM1400.02,419.07l-.19-1.23h-.39l-.19,1.23-2,14.96h4.77l-2-14.96h0Z"/>
        <path class="st4" d="M1410.4,410.81v-7.16h20.12v7.16h-6.58v40.24h-6.97v-40.24h-6.58,0Z"/>
        <path class="st4" d="M1433.23,403.65h6.97v47.4h-6.97v-47.4Z"/>
        <path class="st4" d="M1463.48,441.32c-.06,1.93-.45,3.68-1.16,5.16-.58,1.29-1.48,2.52-2.77,3.48-1.29,1.03-3.03,1.61-5.35,1.61s-4.13-.58-5.42-1.61c-1.29-.97-2.13-2.19-2.71-3.48-.71-1.48-1.1-3.23-1.16-5.16v-27.93c.06-1.87.45-3.61,1.16-5.09.58-1.29,1.42-2.58,2.71-3.55,1.29-.97,3.09-1.61,5.42-1.61s4.06.65,5.35,1.61c1.29.97,2.19,2.26,2.77,3.55.71,1.48,1.1,3.22,1.16,5.09v27.93ZM1456.51,413.39c0-1.29-.26-2.19-.9-2.97-.32-.32-.84-.52-1.42-.52-1.22,0-1.81.9-2.06,1.74-.19.52-.26,1.1-.26,1.74v27.93c0,1.35.32,2.26.97,2.97.32.32.77.52,1.35.52,1.23,0,1.81-.77,2.06-1.74.19-.45.26-1.03.26-1.74v-27.93h0Z"/>
        <path class="st4" d="M1475.54,426.35l-.58-2.19h-.39v26.89h-6.38v-47.4h6.19l6.77,24.7.58,2.19h.39v-26.89h6.39v47.4h-6.19l-6.77-24.7h-.01Z"/>
      </g>
      <g class="st5">
        <path class="st4" d="M1259.94,395.02c-.03.25-.11.46-.24.62s-.28.29-.45.38c-.18.09-.37.16-.57.2s-.39.06-.58.06c-.22,0-.43-.02-.64-.07-.21-.05-.39-.12-.55-.21-.16-.1-.29-.21-.38-.35s-.14-.3-.14-.47c0-.34.02-.66.05-.95s.08-.58.15-.88c.21-.97.41-1.86.59-2.69.18-.83.34-1.63.47-2.41s.24-1.53.33-2.25.17-1.44.25-2.17c.07-.73.14-1.48.2-2.26l.19-2.49v-.29c0-.12-.01-.23-.04-.34s-.07-.2-.14-.28c-.07-.08-.16-.11-.29-.11-.21,0-.46.07-.76.22-.3.14-.61.34-.94.59-.33.24-.66.53-.99.86s-.63.68-.91,1.06c-.05.13-.13.23-.25.28-.11.06-.24.09-.38.09-.04,0-.09-.04-.14-.11-.05-.08-.09-.16-.13-.27s-.07-.22-.1-.34-.04-.23-.04-.32c0-.05.02-.1.05-.13.3-.98.65-1.8,1.03-2.47.38-.66.79-1.19,1.21-1.59.42-.4.86-.68,1.3-.84.44-.17.86-.25,1.27-.25.52,0,.95.1,1.3.29.35.19.62.46.82.81s.34.77.42,1.26c.08.49.12,1.04.12,1.64,0,.49-.02,1.06-.05,1.71s-.11,1.32-.24,2.01-.25,1.39-.38,2.09l-.36,1.96c.27-1.12.6-2.19.97-3.22s.77-1.99,1.21-2.88c.43-.89.89-1.71,1.36-2.43.48-.73.96-1.35,1.47-1.87.5-.52,1.01-.92,1.53-1.21.52-.29,1.03-.43,1.54-.43.38,0,.74.08,1.07.25.33.16.61.42.84.76s.42.78.55,1.31c.13.52.2,1.15.2,1.87,0,.07,0,.18-.02.33-.01.15-.03.32-.05.51s-.05.4-.08.62c-.03.22-.06.44-.08.65l-.21,1.66h.26c.33-1.26.73-2.37,1.21-3.36s1.02-1.83,1.62-2.53c.6-.69,1.24-1.22,1.93-1.59.69-.37,1.41-.55,2.15-.55.51,0,.97.15,1.37.45.4.3.73.71,1,1.22s.47,1.11.62,1.8c.14.69.21,1.42.21,2.18s-.07,1.48-.21,2.23l-.42,2.25c-.14.75-.28,1.48-.41,2.19l-.39,2.05c-.12.65-.23,1.24-.34,1.79-.1.55-.15,1.02-.15,1.41,0,.5.09.85.27,1.08.18.22.44.33.79.33.19,0,.4-.05.61-.16.21-.1.43-.24.64-.42.21-.17.43-.37.64-.59s.41-.45.6-.69c.45-.54.89-1.16,1.32-1.85,0,0,.04.1.11.26l.29.73.57,1.49c-.42.74-.85,1.37-1.3,1.88-.45.51-.9.93-1.36,1.25s-.93.56-1.41.7c-.47.14-.95.21-1.42.21s-.9-.08-1.33-.24c-.43-.16-.82-.4-1.15-.71-.34-.32-.6-.71-.81-1.17-.2-.47-.3-1-.3-1.61v-.22c0-.08.01-.15.02-.23.03-.57.11-1.17.22-1.81.11-.64.24-1.29.38-1.97l.37-2.06c.13-.71.25-1.41.38-2.1.12-.69.25-1.37.37-2.04s.18-1.32.18-1.95c0-.38-.01-.72-.04-1.02s-.08-.56-.15-.78c-.08-.21-.19-.38-.33-.5-.15-.12-.34-.18-.57-.18-.43,0-.84.16-1.22.47s-.75.74-1.09,1.29c-.34.55-.66,1.2-.96,1.95-.3.75-.58,1.56-.84,2.43-.27.87-.5,1.79-.7,2.75s-.4,1.93-.61,2.89c-.2.97-.4,1.91-.6,2.84l-.56,2.66c-.07.24-.18.43-.33.6-.15.16-.32.3-.51.4-.19.1-.4.17-.61.22-.22.05-.43.07-.65.07-.18,0-.35-.03-.52-.1s-.32-.17-.46-.32c-.13-.15-.24-.33-.32-.56s-.12-.5-.12-.83c.09-.22.19-.6.3-1.13.1-.54.22-1.17.37-1.92l.47-2.45c.17-.89.34-1.79.52-2.71.18-.92.29-1.82.35-2.72.06-.9.09-1.73.09-2.48,0-.52-.01-1-.04-1.41-.02-.41-.08-.77-.18-1.05-.09-.29-.23-.51-.4-.66s-.4-.23-.69-.23c-.24,0-.51.16-.81.47s-.63.75-.98,1.3-.7,1.21-1.04,1.99c-.35.77-.71,1.59-1.1,2.46s-.74,1.79-1.05,2.77c-.31.97-.6,1.95-.86,2.92s-.49,1.92-.68,2.85c-.19.93-.36,1.79-.53,2.58l-.04-.02h0Z"/>
        <path class="st4" d="M1305.32,393.59c-.18.18-.4.38-.67.6s-.58.45-.92.68c-.34.23-.71.45-1.1.67-.4.22-.8.41-1.21.58-.41.17-.83.3-1.24.4-.42.1-.83.15-1.23.15-.28,0-.57-.04-.86-.13s-.55-.25-.79-.48-.43-.56-.58-.97c-.15-.41-.23-.95-.23-1.61,0-.31.03-.65.09-1.01.06-.36.13-.75.23-1.17-.55.9-1.11,1.8-1.65,2.69-.55.89-1.16,1.58-1.84,2.06-.68.48-1.38.84-2.11,1.09s-1.45.37-2.18.37c-.78,0-1.52-.13-2.22-.4s-1.32-.67-1.86-1.2-.96-1.19-1.28-1.98c-.31-.79-.47-1.85-.47-3.18,0-.82.09-1.68.29-2.58.19-.9.47-1.81.83-2.72.36-.92.8-1.82,1.32-2.72.52-.9,1.1-1.75,1.76-2.56s1.38-1.56,2.16-2.25,1.61-1.29,2.5-1.79,1.82-.9,2.8-1.19c.98-.29,2-.43,3.05-.43.3,0,.54.02.73.07.18.05.32.11.41.18.09.07.15.15.18.22s.04.14.04.2v.25c.21.13.43.22.65.25s.44.05.65.08c.21.02.41.07.61.13.19.07.36.2.5.4.14.2.26.49.35.87s.13.9.13,1.55c0,.5-.05,1.06-.15,1.69s-.24,1.28-.43,1.96c-.19.68-.38,1.38-.58,2.08l-.58,2.06-.53,1.89c-.17.59-.31,1.1-.43,1.54.02.39.04.75.06,1.09s.02.69.02,1.05c0,.28,0,.52.02.7.01.18.03.33.07.43.03.11.08.18.14.22s.13.06.23.06c.17,0,.38-.04.64-.13s.53-.2.82-.34c.29-.14.59-.29.9-.47l.91-.54.82-.47.63-.36.64,2.46-.04-.04h0ZM1299.19,377.14c-.29-.08-.58-.14-.89-.18-.31-.04-.6-.06-.89-.06-.68,0-1.36.13-2.03.39s-1.31.62-1.94,1.08c-.63.45-1.23.99-1.8,1.61-.57.62-1.1,1.28-1.6,1.99-.49.71-.94,1.45-1.34,2.21-.4.76-.74,1.53-1.03,2.29s-.51,1.5-.66,2.22-.23,1.38-.23,1.98c0,1.42.24,2.44.71,3.07s1.21.94,2.21.94c.62,0,1.21-.13,1.77-.39s1.08-.6,1.56-1.03c.48-.42.91-.98,1.31-1.66l1.06-1.83c.29-.55.54-1.07.73-1.58.19-.51.33-.95.42-1.32l2.62-9.73h.02,0Z"/>
      </g>
      <g>
        <path class="st4" d="M1351.98,541.49l11.66-77.19h13.86l11.66,77.19h-11.03l-2.1-15.75h-10.92l-2.1,15.75h-11.03ZM1371.2,489.4l-.31-2h-.63l-.31,2-3.26,24.36h7.77l-3.26-24.36h0Z"/>
        <path class="st4" d="M1413.21,541.49l-7.25-48.52-.42-3.26h-.63v51.77h-10.5v-77.19h13.86l6.72,35.28.53,4.1h.21l.53-4.1,6.72-35.28h13.86v77.19h-10.5v-51.77h-.63l-.42,3.26-7.25,48.52h-4.83,0Z"/>
        <path class="st4" d="M1474.75,525.63c-.11,3.15-.73,5.99-1.89,8.4-.95,2.1-2.42,4.1-4.52,5.67-2.1,1.68-4.94,2.62-8.72,2.62s-6.72-.95-8.82-2.62c-2.1-1.57-3.47-3.57-4.41-5.67-1.15-2.42-1.79-5.25-1.89-8.4v-45.47c.1-3.05.73-5.88,1.89-8.3.95-2.1,2.31-4.2,4.41-5.78s5.04-2.63,8.82-2.63,6.61,1.05,8.72,2.63c2.1,1.58,3.57,3.68,4.52,5.78,1.16,2.41,1.78,5.25,1.89,8.3v45.47ZM1463.4,480.16c0-2.1-.42-3.57-1.47-4.83-.52-.53-1.36-.84-2.31-.84-2,0-2.94,1.47-3.36,2.84-.32.84-.42,1.79-.42,2.84v45.47c0,2.2.52,3.67,1.58,4.83.53.52,1.26.84,2.21.84,1.99,0,2.94-1.26,3.36-2.83.31-.74.42-1.68.42-2.83v-45.49h0Z"/>
        <path class="st4" d="M1512.55,464.3v61.33c-.11,3.15-.73,5.99-1.89,8.4-.94,2.1-2.41,4.1-4.52,5.67-2.1,1.68-4.93,2.62-8.72,2.62s-6.72-.95-8.82-2.62c-2.1-1.57-3.46-3.57-4.41-5.67-1.16-2.42-1.79-5.25-1.89-8.4v-61.33h11.34v61.33c0,2.2.52,3.67,1.58,4.83.52.52,1.26.84,2.21.84,1.99,0,2.94-1.26,3.36-2.83.31-.74.42-1.68.42-2.83v-61.33h11.34Z"/>
        <path class="st4" d="M1541.12,541.49l-5.88-32.56h-3.05v32.56h-11.34v-77.19h11.34c13.55,0,19.32,7.67,19.32,22.26,0,7.67-1.99,14.6-6.3,17.54l7.25,37.39h-11.34,0ZM1532.19,498.43c1.57,0,3.67-.21,5.36-1.68,1.68-1.47,3.05-4.3,3.05-9.77s-1.37-8.4-3.05-9.87-3.78-1.58-5.36-1.58v22.89h0Z"/>
      </g>
    </g>
    <path id="path2331" class="st3" d="M1568.75,429.18c-8.55,0-15.5,6.94-15.5,15.5,0,17.4,17.56,21.97,29.52,39.18,11.32-17.1,29.52-22.33,29.52-39.18,0-8.56-6.94-15.5-15.5-15.5-6.2,0-11.55,3.67-14.02,8.94-2.47-5.27-7.82-8.94-14.02-8.94Z"/>
    <g>
      <path id="path2332" class="st0" d="M1235.79,486.12c-10.73,0-19.43,8.71-19.43,19.43,0,21.82,22.01,27.55,37.02,49.12,14.18-21.44,37.01-27.99,37.01-49.12,0-10.73-8.7-19.43-19.44-19.43-7.78,0-14.48,4.59-17.58,11.2-3.1-6.61-9.8-11.2-17.58-11.2h0Z"/>
      <path class="st3" d="M1253.39,556.22l-.73-1.05c-5.69-8.18-12.53-14.18-18.57-19.46-9.98-8.75-18.61-16.3-18.61-30.15,0-11.2,9.11-20.3,20.3-20.3,7.25,0,13.98,3.95,17.58,10.2,3.6-6.25,10.32-10.2,17.58-10.2,11.2,0,20.3,9.1,20.3,20.3,0,13.21-8.56,20.8-18.48,29.59-6.17,5.47-13.17,11.67-18.68,20.01l-.71,1.07h.02,0ZM1235.79,486.99c-10.24,0-18.57,8.33-18.57,18.56,0,13.06,7.95,20.03,18.01,28.84,5.86,5.13,12.46,10.92,18.12,18.75,5.52-8,12.28-13.99,18.27-19.3,9.6-8.51,17.89-15.86,17.89-28.29,0-10.24-8.33-18.56-18.57-18.56-7.15,0-13.74,4.2-16.79,10.7l-.79,1.68-.79-1.68c-3.05-6.5-9.65-10.7-16.8-10.7h.02Z"/>
    </g>
  </g>
  <g>
    <g>
      <path id="path2333" class="st0" d="M1277.09,900.19c-26.56,0-48.12,21.56-48.12,48.12,0,54.03,54.51,68.21,91.66,121.63,35.12-53.1,91.65-69.32,91.65-121.63,0-26.56-21.56-48.12-48.13-48.12-19.26,0-35.85,11.38-43.53,27.75-7.68-16.37-24.27-27.75-43.54-27.75h.01Z"/>
      <path class="st3" d="M1320.66,1072.82l-1.36-1.95c-14.13-20.32-31.09-35.18-46.06-48.29-24.62-21.57-45.89-40.2-45.89-74.26,0-27.42,22.31-49.73,49.74-49.73,18.09,0,34.84,10.03,43.54,25.81,8.69-15.78,25.44-25.81,43.53-25.81,27.43,0,49.74,22.31,49.74,49.73,0,32.47-21.12,51.19-45.58,72.87-15.31,13.57-32.65,28.95-46.34,49.65l-1.31,1.98h-.01ZM1277.09,901.81c-25.65,0-46.51,20.86-46.51,46.51,0,32.59,20.75,50.77,44.79,71.83,14.63,12.82,31.16,27.3,45.23,46.95,13.7-20.07,30.61-35.05,45.58-48.33,23.87-21.17,44.49-39.44,44.49-70.46,0-25.65-20.87-46.51-46.51-46.51-17.92,0-34.43,10.53-42.07,26.82l-1.46,3.11-1.46-3.11c-7.65-16.29-24.16-26.82-42.08-26.82h0Z"/>
    </g>
    <path id="path2334" class="st3" d="M1376.86,995.87c-8.55,0-15.5,6.94-15.5,15.5,0,17.4,17.56,21.97,29.52,39.18,11.32-17.1,29.52-22.33,29.52-39.18,0-8.56-6.94-15.5-15.5-15.5-6.2,0-11.55,3.67-14.02,8.94-2.47-5.27-7.82-8.94-14.02-8.94h0Z"/>
    <g>
      <path id="path2335" class="st0" d="M1061.9,1052.81c-10.73,0-19.43,8.71-19.43,19.43,0,21.82,22.01,27.55,37.02,49.12,14.18-21.44,37.01-27.99,37.01-49.12,0-10.73-8.7-19.43-19.44-19.43-7.78,0-14.48,4.59-17.58,11.2-3.1-6.61-9.8-11.2-17.58-11.2h0Z"/>
      <path class="st3" d="M1079.5,1122.9l-.73-1.05c-5.69-8.18-12.53-14.18-18.57-19.46-9.98-8.75-18.61-16.3-18.61-30.15,0-11.2,9.11-20.3,20.3-20.3,7.25,0,13.98,3.95,17.58,10.2,3.6-6.25,10.32-10.2,17.58-10.2,11.2,0,20.3,9.1,20.3,20.3,0,13.21-8.56,20.8-18.48,29.59-6.17,5.47-13.17,11.67-18.68,20.01l-.71,1.07h.02,0ZM1061.9,1053.67c-10.24,0-18.57,8.33-18.57,18.56,0,13.06,7.95,20.03,18.01,28.84,5.86,5.13,12.46,10.92,18.12,18.75,5.52-8,12.28-13.99,18.27-19.3,9.6-8.51,17.89-15.86,17.89-28.29,0-10.24-8.33-18.56-18.57-18.56-7.15,0-13.74,4.2-16.79,10.7l-.79,1.68-.79-1.68c-3.05-6.5-9.65-10.7-16.8-10.7h.02Z"/>
    </g>
  </g>
  <g>
    <g class="st1">
      <g class="st1">
        <path class="st3" d="M133.42,868.27c.2.31.3.75.3,1.3,0,1.05-.25,1.86-.75,2.44-1.13,1.39-2.35,2.53-3.68,3.42-1.33.89-2.83,1.34-4.51,1.34-2.31,0-4.02-1.05-5.14-3.15-1.12-2.1-1.67-4.81-1.67-8.15s.41-6.85,1.24-10.94c.83-4.09,2.05-7.61,3.66-10.55s3.53-4.41,5.76-4.41c1.26,0,2.25.58,2.97,1.75s1.08,2.84,1.08,5.02c0,3.12-.87,6.74-2.6,10.86-1.73,4.12-4.08,8.2-7.04,12.24.18,1.08.49,1.84.91,2.3.42.46.97.69,1.65.69,1.08,0,2.02-.31,2.83-.92.81-.62,1.85-1.67,3.11-3.17.31-.37.67-.55,1.06-.55.34,0,.61.16.81.47h0ZM125.73,846.74c-.76,2.18-1.43,4.88-2.01,8.11s-.89,6.32-.94,9.29c1.86-3.07,3.34-6.14,4.45-9.23,1.1-3.08,1.65-5.9,1.65-8.44,0-1.99-.37-2.99-1.1-2.99-.6,0-1.29,1.09-2.05,3.27h0Z"/>
        <path class="st3" d="M131.08,875c-.97-1.18-1.46-2.73-1.46-4.64,0-2.1.48-4.08,1.46-5.96.97-1.88,2.26-3.38,3.88-4.53,1.61-1.14,3.33-1.71,5.14-1.71.58,0,.96.11,1.16.33s.36.62.49,1.2c.55-.1,1.13-.16,1.73-.16,1.29,0,1.93.46,1.93,1.38,0,.55-.2,1.86-.59,3.93-.6,3.02-.91,5.12-.91,6.3,0,.39.1.71.3.94.2.24.45.35.77.35.5,0,1.1-.32,1.81-.96.71-.64,1.67-1.69,2.87-3.13.31-.37.67-.55,1.06-.55.34,0,.61.16.81.47s.3.75.3,1.3c0,1.05-.25,1.86-.75,2.44-1.08,1.34-2.22,2.47-3.42,3.38-1.21.92-2.37,1.38-3.5,1.38-.87,0-1.66-.29-2.38-.88s-1.27-1.4-1.63-2.42c-1.36,2.2-3.08,3.3-5.15,3.3-1.63,0-2.93-.59-3.9-1.77h-.02ZM138.04,871.77c.52-.68.9-1.59,1.14-2.71l1.46-7.24c-1.1.03-2.12.44-3.05,1.24-.93.8-1.67,1.86-2.22,3.17s-.83,2.7-.83,4.17c0,.81.16,1.42.49,1.81s.78.59,1.36.59,1.13-.34,1.65-1.02h0Z"/>
        <path class="st3" d="M159.74,875.19c-.41-1.05-.61-2.73-.61-5.04,0-3.41.49-6.65,1.46-9.72.24-.76.62-1.32,1.16-1.67.54-.35,1.29-.53,2.26-.53.52,0,.89.07,1.1.2s.31.38.31.75c0,.42-.2,1.36-.59,2.83-.26,1.05-.47,1.96-.63,2.74-.16.77-.29,1.74-.39,2.89.71-2.05,1.55-3.78,2.54-5.19.98-1.42,1.99-2.47,3.03-3.17s2.01-1.04,2.93-1.04,1.57.21,1.95.63c.38.42.57,1.06.57,1.93s-.25,2.36-.75,4.56c-.21.94-.35,1.65-.43,2.12,1.31-3.23,2.77-5.57,4.37-7.04,1.6-1.47,3.1-2.2,4.49-2.2,1.71,0,2.56.85,2.56,2.56,0,1.02-.29,2.87-.87,5.55-.5,2.28-.75,3.79-.75,4.53,0,1.05.38,1.57,1.14,1.57.52,0,1.15-.32,1.87-.96s1.69-1.69,2.89-3.13c.31-.37.67-.55,1.06-.55.34,0,.61.16.81.47s.29.75.29,1.3c0,1.05-.25,1.86-.75,2.44-1.13,1.39-2.34,2.53-3.64,3.42-1.3.89-2.77,1.34-4.43,1.34-1.34,0-2.35-.39-3.03-1.16-.68-.77-1.02-1.9-1.02-3.36,0-.73.18-2.05.55-3.94.34-1.65.51-2.79.51-3.42,0-.42-.14-.63-.43-.63-.34,0-.83.44-1.46,1.32s-1.26,2.04-1.89,3.48-1.14,2.96-1.53,4.56c-.29,1.26-.62,2.1-1,2.52-.38.42-.99.63-1.83.63s-1.52-.41-1.95-1.24-.65-1.83-.65-3.01c0-1,.13-2.44.39-4.33.21-1.68.31-2.78.31-3.3,0-.42-.14-.63-.43-.63-.39,0-.89.47-1.5,1.42-.6.95-1.19,2.15-1.75,3.62s-1.02,2.91-1.36,4.33c-.29,1.23-.62,2.07-1,2.5s-.98.65-1.79.65c-1,0-1.7-.52-2.1-1.57v-.03Z"/>
        <path class="st3" d="M189.45,874.96c-.77-1.21-1.16-2.81-1.16-4.8,0-1.18.15-2.7.45-4.54.3-1.85.69-3.57,1.16-5.17.24-.84.55-1.42.94-1.73s1.02-.47,1.89-.47c1.34,0,2.01.45,2.01,1.34,0,.66-.25,2.18-.75,4.56-.63,2.89-.94,4.84-.94,5.86,0,.79.1,1.39.31,1.81.21.42.56.63,1.06.63.47,0,1.06-.33,1.77-.98.71-.66,1.65-1.69,2.83-3.11.31-.37.67-.55,1.06-.55.34,0,.61.16.81.47s.3.75.3,1.3c0,1.05-.25,1.86-.75,2.44-2.6,3.17-5.02,4.76-7.28,4.76-1.71,0-2.95-.6-3.72-1.81h.01ZM191.01,854.87c-.55-.51-.83-1.23-.83-2.14s.36-1.69,1.08-2.3c.72-.62,1.62-.92,2.7-.92.97,0,1.76.24,2.36.71.6.47.9,1.14.9,2.01,0,1.05-.34,1.88-1.02,2.5-.68.62-1.59.92-2.72.92s-1.93-.26-2.48-.77h.01Z"/>
        <path class="st3" d="M198.95,875c-.97-1.18-1.46-2.73-1.46-4.64,0-2.1.48-4.08,1.46-5.96.97-1.88,2.26-3.38,3.88-4.53,1.61-1.14,3.33-1.71,5.14-1.71.58,0,.96.11,1.16.33.2.22.36.62.49,1.2.55-.1,1.13-.16,1.73-.16,1.29,0,1.93.46,1.93,1.38,0,.55-.2,1.86-.59,3.93-.6,3.02-.91,5.12-.91,6.3,0,.39.1.71.3.94.2.24.45.35.77.35.5,0,1.1-.32,1.81-.96s1.67-1.69,2.87-3.13c.32-.37.67-.55,1.06-.55.34,0,.61.16.81.47s.3.75.3,1.3c0,1.05-.25,1.86-.75,2.44-1.08,1.34-2.22,2.47-3.42,3.38-1.21.92-2.37,1.38-3.5,1.38-.87,0-1.66-.29-2.38-.88s-1.27-1.4-1.63-2.42c-1.36,2.2-3.08,3.3-5.15,3.3-1.63,0-2.93-.59-3.9-1.77h-.02ZM205.92,871.77c.52-.68.9-1.59,1.14-2.71l1.46-7.24c-1.1.03-2.12.44-3.05,1.24-.93.8-1.67,1.86-2.22,3.17s-.83,2.7-.83,4.17c0,.81.16,1.42.49,1.81s.78.59,1.36.59,1.13-.34,1.65-1.02h0Z"/>
      </g>
    </g>
    <g class="st1">
      <g class="st1">
        <path class="st3" d="M181.34,974.94c-1.05-.13-1.77-.41-2.16-.83-.39-.42-.56-1.1-.51-2.05.18-2.6.62-5.8,1.3-9.62.68-3.82,1.51-7.5,2.48-11.04.18-.66.55-1.11,1.1-1.38.55-.26,1.27-.39,2.16-.39,1.6,0,2.4.45,2.4,1.34,0,.37-.08.79-.24,1.26-.68,2.1-1.36,4.91-2.05,8.44s-1.17,6.89-1.46,10.09c.79.08,1.68.12,2.68.12,4.59,0,8.02-1.39,10.29-4.17,2.27-2.78,3.4-6.49,3.4-11.14,0-3.12-.89-5.54-2.68-7.24-1.78-1.71-4.3-2.56-7.56-2.56-2.1,0-4.18.33-6.24.98-2.06.66-3.92,1.52-5.57,2.6-.34.24-.71.35-1.1.35-.45,0-.8-.19-1.06-.57s-.39-.85-.39-1.4c0-.63.1-1.15.31-1.55.21-.41.56-.78,1.06-1.12,1.81-1.23,3.94-2.17,6.37-2.81,2.44-.64,4.79-.96,7.04-.96,3.2,0,5.97.56,8.3,1.67,2.33,1.12,4.13,2.75,5.39,4.9s1.89,4.75,1.89,7.79c0,3.96-.79,7.42-2.36,10.37s-3.87,5.24-6.89,6.87-6.61,2.44-10.78,2.44c-1.52,0-3.24-.13-5.15-.39h.03Z"/>
        <path class="st3" d="M211.45,951.33c-.34-.26-.51-.68-.51-1.26,0-.24.04-.51.12-.83.29-1.21.5-2.32.65-3.34.14-1.02.22-2.16.22-3.42s.31-2.32.92-3.03,1.41-1.06,2.38-1.06,1.66.26,2.14.77.73,1.2.73,2.07c0,.92-.28,2.14-.83,3.66-.55,1.52-1.22,3-2.01,4.45-.52.97-.94,1.61-1.24,1.93s-.7.47-1.2.47c-.58,0-1.04-.13-1.38-.39v-.02Z"/>
      </g>
    </g>
    <g>
      <g>
        <path id="path2336" class="st0" d="M338.87,791.06c-26.56,0-48.12,21.56-48.12,48.12,0,54.03,54.51,68.21,91.66,121.63,35.12-53.1,91.65-69.32,91.65-121.63,0-26.56-21.56-48.12-48.13-48.12-19.26,0-35.85,11.38-43.53,27.75-7.68-16.37-24.27-27.75-43.54-27.75h.01Z"/>
        <path class="st3" d="M382.44,963.69l-1.36-1.95c-14.13-20.32-31.09-35.18-46.06-48.29-24.62-21.57-45.89-40.2-45.89-74.26,0-27.42,22.31-49.73,49.74-49.73,18.09,0,34.84,10.03,43.54,25.81,8.69-15.78,25.44-25.81,43.53-25.81,27.43,0,49.74,22.31,49.74,49.73,0,32.47-21.12,51.19-45.58,72.87-15.31,13.57-32.65,28.95-46.34,49.65l-1.31,1.98h0ZM338.87,792.68c-25.65,0-46.51,20.86-46.51,46.51,0,32.59,20.75,50.77,44.79,71.83,14.63,12.82,31.16,27.3,45.23,46.95,13.7-20.07,30.61-35.05,45.58-48.33,23.87-21.17,44.49-39.44,44.49-70.46,0-25.65-20.87-46.51-46.51-46.51-17.92,0-34.43,10.53-42.07,26.82l-1.46,3.11-1.46-3.11c-7.65-16.29-24.16-26.82-42.08-26.82h0Z"/>
      </g>
      <path id="path2337" class="st3" d="M438.64,886.74c-8.55,0-15.5,6.94-15.5,15.5,0,17.4,17.56,21.97,29.52,39.18,11.32-17.1,29.52-22.33,29.52-39.18,0-8.56-6.94-15.5-15.5-15.5-6.2,0-11.55,3.67-14.02,8.94-2.47-5.27-7.82-8.94-14.02-8.94Z"/>
    </g>
    <g>
      <path id="path2338" class="st0" d="M92.09,956.28c-10.73,0-19.43,8.71-19.43,19.43,0,21.82,22.01,27.55,37.02,49.12,14.18-21.44,37.01-27.99,37.01-49.12,0-10.73-8.7-19.43-19.44-19.43-7.78,0-14.48,4.59-17.58,11.2-3.1-6.61-9.8-11.2-17.58-11.2h0Z"/>
      <path class="st3" d="M109.69,1026.38l-.73-1.05c-5.69-8.18-12.53-14.18-18.57-19.46-9.98-8.75-18.61-16.3-18.61-30.15,0-11.2,9.11-20.3,20.3-20.3,7.25,0,13.98,3.95,17.58,10.2,3.6-6.25,10.32-10.2,17.58-10.2,11.2,0,20.3,9.1,20.3,20.3,0,13.21-8.56,20.8-18.48,29.59-6.17,5.47-13.17,11.67-18.68,20.01l-.71,1.07h.02,0ZM92.09,957.15c-10.24,0-18.57,8.33-18.57,18.56,0,13.06,7.95,20.03,18.01,28.84,5.86,5.13,12.46,10.92,18.12,18.75,5.52-8,12.28-13.99,18.27-19.3,9.6-8.51,17.89-15.86,17.89-28.29,0-10.24-8.33-18.56-18.57-18.56-7.15,0-13.74,4.2-16.79,10.7l-.79,1.68-.79-1.68c-3.05-6.5-9.65-10.7-16.8-10.7h.02Z"/>
    </g>
    <g class="st1">
      <g class="st1">
        <path class="st2" d="M233.93,938.66h15.13l11.57,71.07h-11.17l-2.03-14.11v.2h-12.69l-2.03,13.91h-10.36l11.57-71.07h0ZM246.12,986.18l-4.97-35.13h-.2l-4.87,35.13h10.05-.01Z"/>
        <path class="st2" d="M266.01,938.66h15.94l7.11,50.87h.2l7.11-50.87h15.94v71.07h-10.56v-53.81h-.2l-8.12,53.81h-9.34l-8.12-53.81h-.2v53.81h-9.75v-71.07h0Z"/>
        <path class="st2" d="M324.19,1006.07c-2.91-3.11-4.37-7.51-4.37-13.2v-37.36c0-5.69,1.45-10.09,4.37-13.2,2.91-3.11,7.11-4.67,12.59-4.67s9.68,1.56,12.59,4.67,4.37,7.51,4.37,13.2v37.36c0,5.69-1.46,10.09-4.37,13.2-2.91,3.12-7.11,4.67-12.59,4.67s-9.68-1.56-12.59-4.67ZM342.57,993.59v-38.78c0-4.67-1.93-7.01-5.79-7.01s-5.79,2.34-5.79,7.01v38.78c0,4.67,1.93,7.01,5.79,7.01s5.79-2.33,5.79-7.01h0Z"/>
        <path class="st2" d="M361.25,938.66h16.55c5.75,0,9.95,1.34,12.59,4.01s3.96,6.79,3.96,12.34v4.37c0,7.38-2.44,12.05-7.31,14.01v.2c2.71.81,4.62,2.47,5.74,4.97s1.68,5.86,1.68,10.05v12.49c0,2.03.07,3.67.2,4.92.14,1.25.47,2.49,1.02,3.71h-11.37c-.41-1.15-.68-2.23-.81-3.25-.14-1.02-.2-2.84-.2-5.48v-13c0-3.25-.53-5.52-1.57-6.8-1.05-1.28-2.86-1.93-5.43-1.93h-3.86v30.46h-11.17v-71.07h-.02ZM376.48,969.12c2.23,0,3.91-.57,5.03-1.72,1.12-1.15,1.67-3.08,1.67-5.79v-5.48c0-2.57-.46-4.43-1.37-5.59-.91-1.15-2.35-1.72-4.32-1.72h-5.08v20.3h4.07Z"/>
        <path class="st2" d="M402.17,938.66h30.46v10.15h-19.29v18.78h15.33v10.15h-15.33v21.83h19.29v10.15h-30.46v-71.07h0Z"/>
      </g>
    </g>
    <g class="st1">
      <g class="st1">
        <path class="st2" d="M116.03,883.35h9.05l4.03,28.87h.12l4.03-28.87h9.05v40.34h-5.99v-30.54h-.12l-4.61,30.54h-5.3l-4.61-30.54h-.12v30.54h-5.53s0-40.34,0-40.34Z"/>
        <path class="st2" d="M151.94,883.35h8.59l6.57,40.34h-6.34l-1.15-8.01v.12h-7.2l-1.15,7.9h-5.88l6.57-40.34h-.01ZM158.85,910.32l-2.82-19.94h-.12l-2.77,19.94h5.71Z"/>
        <path class="st2" d="M170.15,883.35h7.95l6.17,24.15h.12v-24.15h5.65v40.34h-6.51l-7.61-29.45h-.12v29.45h-5.65v-40.34Z"/>
        <path class="st2" d="M194.75,883.35h6.34v40.34h-6.34v-40.34Z"/>
        <path class="st2" d="M205.82,883.35h16.77v5.76h-10.43v11.24h8.18v5.76h-8.18v17.58h-6.34v-40.34Z"/>
        <path class="st2" d="M225.64,883.35h17.29v5.76h-10.95v10.66h8.7v5.76h-8.7v12.39h10.95v5.76h-17.29v-40.34h0Z"/>
        <path class="st2" d="M247.94,921.64c-1.58-1.75-2.36-4.25-2.36-7.52v-2.31h5.99v2.77c0,2.61,1.09,3.92,3.29,3.92,1.08,0,1.89-.32,2.45-.95s.83-1.66.83-3.08c0-1.69-.38-3.18-1.15-4.47s-2.19-2.83-4.26-4.64c-2.61-2.31-4.44-4.39-5.47-6.25-1.04-1.86-1.56-3.97-1.56-6.31,0-3.19.81-5.66,2.42-7.41s3.96-2.62,7.03-2.62,5.33.87,6.89,2.62c1.56,1.75,2.33,4.26,2.33,7.52v1.67h-5.99v-2.07c0-1.38-.27-2.39-.81-3.03s-1.33-.95-2.36-.95c-2.11,0-3.17,1.29-3.17,3.86,0,1.46.39,2.82,1.18,4.09s2.22,2.8,4.29,4.61c2.65,2.3,4.48,4.4,5.48,6.28s1.5,4.09,1.5,6.63c0,3.3-.82,5.84-2.45,7.61-1.63,1.77-4.01,2.65-7.12,2.65s-5.4-.87-6.97-2.62h-.01Z"/>
        <path class="st2" d="M273.07,889.11h-6.63v-5.76h19.59v5.76h-6.63v34.58h-6.34v-34.58h.01Z"/>
        <path class="st2" d="M291.34,883.35h8.59l6.57,40.34h-6.34l-1.15-8.01v.12h-7.2l-1.15,7.9h-5.88l6.57-40.34h-.01ZM298.25,910.32l-2.82-19.94h-.12l-2.77,19.94h5.71Z"/>
        <path class="st2" d="M308.51,918.04l11.76-28.93h-11.18v-5.76h17.98v5.65l-11.76,28.93h11.76v5.76h-18.56v-5.65h0Z"/>
        <path class="st2" d="M330.64,883.35h6.34v40.34h-6.34v-40.34Z"/>
        <path class="st2" d="M343.72,921.62c-1.65-1.77-2.48-4.26-2.48-7.49v-21.21c0-3.23.83-5.72,2.48-7.49,1.65-1.77,4.03-2.65,7.15-2.65s5.49.88,7.15,2.65c1.65,1.77,2.48,4.26,2.48,7.49v21.21c0,3.23-.83,5.72-2.48,7.49-1.65,1.77-4.03,2.65-7.15,2.65s-5.5-.88-7.15-2.65ZM354.16,914.53v-22.01c0-2.65-1.1-3.98-3.29-3.98s-3.29,1.33-3.29,3.98v22.01c0,2.65,1.09,3.98,3.29,3.98s3.29-1.33,3.29-3.98Z"/>
        <path class="st2" d="M364.76,883.35h7.95l6.17,24.15h.12v-24.15h5.65v40.34h-6.51l-7.61-29.45h-.12v29.45h-5.65v-40.34h0Z"/>
        <path class="st2" d="M389.37,883.35h17.29v5.76h-10.95v10.66h8.7v5.76h-8.7v12.39h10.95v5.76h-17.29v-40.34h0Z"/>
      </g>
    </g>
  </g>
  <g>
    <g class="st1">
      <g class="st1">
        <path class="st3" d="M161.73,545.62c-.41-1.05-.61-2.73-.61-5.04,0-3.41.49-6.65,1.46-9.72.24-.76.62-1.32,1.16-1.67.54-.35,1.29-.53,2.26-.53.52,0,.89.07,1.1.2s.31.38.31.75c0,.42-.2,1.36-.59,2.83-.26,1.05-.47,1.96-.63,2.74-.16.77-.29,1.74-.39,2.89.71-2.05,1.55-3.78,2.54-5.19.98-1.42,1.99-2.47,3.03-3.17s2.01-1.04,2.93-1.04,1.57.21,1.95.63c.38.42.57,1.06.57,1.93s-.25,2.36-.75,4.56c-.21.94-.35,1.65-.43,2.12,1.31-3.23,2.77-5.57,4.37-7.04,1.6-1.47,3.1-2.2,4.49-2.2,1.71,0,2.56.85,2.56,2.56,0,1.02-.29,2.87-.87,5.55-.5,2.28-.75,3.79-.75,4.53,0,1.05.38,1.57,1.14,1.57.52,0,1.15-.32,1.87-.96s1.69-1.69,2.89-3.13c.31-.37.67-.55,1.06-.55.34,0,.61.16.81.47s.29.75.29,1.3c0,1.05-.25,1.86-.75,2.44-1.13,1.39-2.34,2.53-3.64,3.42-1.3.89-2.77,1.34-4.43,1.34-1.34,0-2.35-.39-3.03-1.16-.68-.77-1.02-1.9-1.02-3.36,0-.73.18-2.05.55-3.94.34-1.65.51-2.79.51-3.42,0-.42-.14-.63-.43-.63-.34,0-.83.44-1.46,1.32s-1.26,2.04-1.89,3.48-1.14,2.96-1.53,4.56c-.29,1.26-.62,2.1-1,2.52-.38.42-.99.63-1.83.63s-1.52-.41-1.95-1.24-.65-1.83-.65-3.01c0-1,.13-2.44.39-4.33.21-1.68.31-2.78.31-3.3,0-.42-.14-.63-.43-.63-.39,0-.89.47-1.5,1.42-.6.95-1.19,2.15-1.75,3.62s-1.02,2.91-1.36,4.33c-.29,1.23-.62,2.07-1,2.5s-.98.65-1.79.65c-1,0-1.7-.52-2.1-1.57v-.03Z"/>
        <path class="st3" d="M211.27,538.8c.2.33.29.74.29,1.24,0,.6-.09,1.08-.28,1.42-.18.34-.47.64-.87.91l-7.56,5.08c-1,5.43-2.3,9.7-3.92,12.81-1.61,3.11-3.67,4.66-6.16,4.66-1.34,0-2.43-.41-3.27-1.24-.84-.83-1.26-1.91-1.26-3.25,0-1.23.28-2.49.85-3.78.56-1.29,1.61-2.76,3.15-4.43s3.71-3.57,6.51-5.73l.12-.91c.18-.97.39-2.36.63-4.17-.52,1.89-1.26,3.33-2.2,4.31s-1.94,1.48-2.99,1.48c-1.18,0-2.14-.54-2.89-1.63s-1.12-2.45-1.12-4.07c0-1.97.13-3.77.39-5.41.26-1.64.69-3.38,1.3-5.21.26-.79.63-1.35,1.1-1.69s1.22-.51,2.24-.51c.58,0,.98.09,1.2.28.22.18.33.46.33.83,0,.21-.14.92-.43,2.12-.26.97-.47,1.85-.63,2.64-.21,1.08-.39,2.1-.55,3.09-.16.98-.24,1.79-.24,2.42,0,1,.28,1.5.83,1.5.39,0,.89-.39,1.48-1.18s1.22-1.98,1.89-3.58c.67-1.6,1.32-3.57,1.95-5.9.21-.79.53-1.35.96-1.69.43-.34,1.08-.51,1.95-.51.6,0,1.02.08,1.26.24.24.16.35.42.35.79,0,.66-.34,2.91-1.02,6.77l-1.02,6.33c2.02-1.52,3.99-2.91,5.9-4.17.34-.21.64-.31.91-.31.34,0,.61.16.81.49v-.04ZM195.43,558.8c.81-1.52,1.63-4.05,2.44-7.59-2.02,1.7-3.48,3.26-4.39,4.66-.91,1.4-1.36,2.63-1.36,3.68,0,.45.08.81.26,1.1.17.29.45.43.85.43.66,0,1.39-.76,2.2-2.28h0Z"/>
      </g>
    </g>
    <g>
      <g>
        <path id="path2339" class="st0" d="M309.35,473.68c-26.56,0-48.12,21.56-48.12,48.12,0,54.03,54.51,68.21,91.66,121.63,35.12-53.1,91.65-69.32,91.65-121.63,0-26.56-21.56-48.12-48.13-48.12-19.26,0-35.85,11.38-43.53,27.75-7.68-16.37-24.27-27.75-43.54-27.75h.01Z"/>
        <path class="st3" d="M352.92,646.3l-1.36-1.95c-14.13-20.32-31.09-35.18-46.06-48.29-24.62-21.57-45.89-40.2-45.89-74.26,0-27.42,22.31-49.73,49.74-49.73,18.09,0,34.84,10.03,43.54,25.81,8.69-15.78,25.44-25.81,43.53-25.81,27.43,0,49.74,22.31,49.74,49.73,0,32.47-21.12,51.19-45.58,72.87-15.31,13.57-32.65,28.95-46.34,49.65l-1.31,1.98h-.01ZM309.35,475.29c-25.65,0-46.51,20.86-46.51,46.51,0,32.59,20.75,50.77,44.79,71.83,14.63,12.82,31.16,27.3,45.23,46.95,13.7-20.07,30.61-35.05,45.58-48.33,23.87-21.17,44.49-39.44,44.49-70.46,0-25.65-20.87-46.51-46.51-46.51-17.92,0-34.43,10.53-42.07,26.82l-1.46,3.11-1.46-3.11c-7.65-16.29-24.16-26.82-42.08-26.82h0Z"/>
      </g>
      <path id="path23310" class="st3" d="M409.12,569.35c-8.55,0-15.5,6.94-15.5,15.5,0,17.4,17.56,21.97,29.52,39.18,11.32-17.1,29.52-22.33,29.52-39.18,0-8.56-6.94-15.5-15.5-15.5-6.2,0-11.55,3.67-14.02,8.94-2.47-5.27-7.82-8.94-14.02-8.94Z"/>
    </g>
    <g>
      <path id="path23311" class="st0" d="M92.09,643.39c-10.73,0-19.43,8.71-19.43,19.43,0,21.82,22.01,27.55,37.02,49.12,14.18-21.44,37.01-27.99,37.01-49.12,0-10.73-8.7-19.43-19.44-19.43-7.78,0-14.48,4.59-17.58,11.2-3.1-6.61-9.8-11.2-17.58-11.2h0Z"/>
      <path class="st3" d="M109.69,713.49l-.73-1.05c-5.69-8.18-12.53-14.18-18.57-19.46-9.98-8.75-18.61-16.3-18.61-30.15,0-11.2,9.11-20.3,20.3-20.3,7.25,0,13.98,3.95,17.58,10.2,3.6-6.25,10.32-10.2,17.58-10.2,11.2,0,20.3,9.1,20.3,20.3,0,13.21-8.56,20.8-18.48,29.59-6.17,5.47-13.17,11.67-18.68,20.01l-.71,1.07h.02,0ZM92.09,644.26c-10.24,0-18.57,8.33-18.57,18.56,0,13.06,7.95,20.03,18.01,28.84,5.86,5.13,12.46,10.92,18.12,18.75,5.52-8,12.28-13.99,18.27-19.3,9.6-8.51,17.89-15.86,17.89-28.29,0-10.24-8.33-18.56-18.57-18.56-7.15,0-13.74,4.2-16.79,10.7l-.79,1.68-.79-1.68c-3.05-6.5-9.65-10.7-16.8-10.7h.02Z"/>
    </g>
    <g class="st1">
      <g class="st1">
        <path class="st2" d="M189.51,637.67h9.05l4.03,28.87h.12l4.03-28.87h9.05v40.34h-5.99v-30.54h-.12l-4.61,30.54h-5.3l-4.61-30.54h-.12v30.54h-5.53v-40.34Z"/>
        <path class="st2" d="M225.42,637.67h8.59l6.57,40.34h-6.34l-1.15-8.01v.12h-7.2l-1.15,7.9h-5.88l6.57-40.34h-.01ZM232.33,664.64l-2.82-19.94h-.12l-2.77,19.94h5.71Z"/>
        <path class="st2" d="M243.63,637.67h7.95l6.17,24.15h.12v-24.15h5.65v40.34h-6.51l-7.61-29.45h-.12v29.45h-5.65v-40.34h0Z"/>
        <path class="st2" d="M268.23,637.67h6.34v40.34h-6.34v-40.34Z"/>
        <path class="st2" d="M279.3,637.67h16.77v5.76h-10.43v11.24h8.18v5.76h-8.18v17.58h-6.34v-40.34Z"/>
        <path class="st2" d="M299.12,637.67h17.29v5.76h-10.95v10.66h8.7v5.76h-8.7v12.39h10.95v5.76h-17.29v-40.34h0Z"/>
        <path class="st2" d="M321.42,675.96c-1.58-1.75-2.36-4.25-2.36-7.52v-2.31h5.99v2.77c0,2.61,1.1,3.92,3.29,3.92,1.08,0,1.89-.32,2.45-.95s.84-1.66.84-3.08c0-1.69-.38-3.18-1.15-4.47s-2.19-2.83-4.26-4.64c-2.61-2.31-4.44-4.39-5.48-6.25s-1.56-3.97-1.56-6.31c0-3.19.81-5.66,2.42-7.41,1.61-1.75,3.96-2.62,7.03-2.62s5.33.87,6.89,2.62c1.56,1.75,2.33,4.26,2.33,7.52v1.67h-5.99v-2.07c0-1.38-.27-2.39-.81-3.03-.54-.63-1.33-.95-2.36-.95-2.11,0-3.17,1.29-3.17,3.86,0,1.46.39,2.82,1.18,4.09.79,1.27,2.22,2.8,4.29,4.61,2.65,2.3,4.47,4.4,5.47,6.28s1.5,4.09,1.5,6.63c0,3.3-.82,5.84-2.45,7.61s-4,2.65-7.12,2.65-5.4-.87-6.97-2.62h0Z"/>
        <path class="st2" d="M346.55,643.43h-6.63v-5.76h19.59v5.76h-6.63v34.58h-6.34v-34.58h.01Z"/>
        <path class="st2" d="M364.82,637.67h8.59l6.57,40.34h-6.34l-1.15-8.01v.12h-7.2l-1.15,7.9h-5.88l6.57-40.34h-.01ZM371.74,664.64l-2.82-19.94h-.12l-2.77,19.94h5.71Z"/>
        <path class="st2" d="M385.34,643.43h-6.63v-5.76h19.59v5.76h-6.63v34.58h-6.34v-34.58h.01Z"/>
        <path class="st2" d="M401.36,637.67h6.34v40.34h-6.34v-40.34Z"/>
        <path class="st2" d="M414.44,675.94c-1.65-1.77-2.48-4.26-2.48-7.49v-21.21c0-3.23.83-5.72,2.48-7.49,1.65-1.77,4.03-2.65,7.15-2.65s5.49.88,7.15,2.65c1.65,1.77,2.48,4.26,2.48,7.49v21.21c0,3.23-.83,5.72-2.48,7.49-1.65,1.77-4.03,2.65-7.15,2.65s-5.49-.88-7.15-2.65ZM424.87,668.85v-22.01c0-2.65-1.09-3.98-3.29-3.98s-3.28,1.33-3.28,3.98v22.01c0,2.65,1.09,3.98,3.28,3.98s3.29-1.33,3.29-3.98Z"/>
        <path class="st2" d="M435.47,637.67h7.95l6.17,24.15h.12v-24.15h5.65v40.34h-6.51l-7.61-29.45h-.12v29.45h-5.65v-40.34h0Z"/>
      </g>
    </g>
    <g class="st1">
      <g class="st1">
        <path class="st2" d="M168.31,556.19h11.17v60.92h18.38v10.15h-29.55v-71.07Z"/>
        <path class="st2" d="M206.39,623.6c-2.91-3.11-4.37-7.51-4.37-13.2v-37.36c0-5.69,1.45-10.08,4.37-13.2,2.91-3.11,7.11-4.67,12.59-4.67s9.68,1.56,12.59,4.67c2.91,3.11,4.37,7.51,4.37,13.2v37.36c0,5.69-1.46,10.09-4.37,13.2-2.91,3.11-7.11,4.67-12.59,4.67s-9.68-1.56-12.59-4.67ZM224.76,611.12v-38.78c0-4.67-1.93-7.01-5.79-7.01s-5.79,2.34-5.79,7.01v38.78c0,4.67,1.93,7.01,5.79,7.01s5.79-2.33,5.79-7.01Z"/>
        <path class="st2" d="M240.3,556.19h11.27l7.31,55.13h.2l7.31-55.13h10.25l-10.76,71.07h-14.82l-10.76-71.07Z"/>
        <path class="st2" d="M282.02,556.19h30.46v10.15h-19.29v18.78h15.33v10.15h-15.33v21.83h19.29v10.15h-30.46v-71.07h0Z"/>
      </g>
    </g>
  </g>
  <g>
    <g class="st1">
      <g class="st1">
        <path class="st3" d="M1222.15,193.07c-.41-1.05-.61-2.73-.61-5.04,0-3.41.49-6.65,1.46-9.72.24-.76.62-1.32,1.16-1.67.54-.35,1.29-.53,2.26-.53.52,0,.89.07,1.1.2.21.13.32.38.32.75,0,.42-.2,1.36-.59,2.83-.26,1.05-.47,1.96-.63,2.74-.16.77-.29,1.74-.39,2.89.71-2.05,1.55-3.78,2.54-5.19.98-1.42,1.99-2.47,3.03-3.17s2.01-1.04,2.93-1.04,1.57.21,1.95.63.57,1.06.57,1.93-.25,2.36-.75,4.56c-.21.94-.35,1.65-.43,2.12,1.31-3.23,2.77-5.57,4.37-7.04,1.6-1.47,3.09-2.2,4.49-2.2,1.71,0,2.56.85,2.56,2.56,0,1.02-.29,2.87-.87,5.55-.5,2.28-.75,3.79-.75,4.53,0,1.05.38,1.57,1.14,1.57.52,0,1.15-.32,1.87-.96s1.69-1.69,2.89-3.13c.31-.37.67-.55,1.06-.55.34,0,.61.16.81.47.2.31.29.75.29,1.3,0,1.05-.25,1.86-.75,2.44-1.13,1.39-2.34,2.53-3.64,3.42s-2.77,1.34-4.43,1.34c-1.34,0-2.35-.39-3.03-1.16s-1.02-1.9-1.02-3.36c0-.73.18-2.05.55-3.94.34-1.65.51-2.79.51-3.42,0-.42-.14-.63-.43-.63-.34,0-.83.44-1.46,1.32s-1.26,2.04-1.89,3.48-1.14,2.96-1.53,4.56c-.29,1.26-.62,2.1-1,2.52s-.99.63-1.83.63-1.52-.41-1.95-1.24-.65-1.83-.65-3.01c0-1,.13-2.44.39-4.33.21-1.68.31-2.78.31-3.3,0-.42-.14-.63-.43-.63-.39,0-.89.47-1.5,1.42-.6.95-1.19,2.15-1.75,3.62s-1.02,2.91-1.36,4.33c-.29,1.23-.62,2.07-1,2.5s-.98.65-1.79.65c-1,0-1.7-.52-2.11-1.57v-.03Z"/>
        <path class="st3" d="M1269.09,186.15c.2.31.29.75.29,1.3,0,1.05-.25,1.86-.75,2.44-.97,1.18-2.34,2.27-4.11,3.27s-3.67,1.5-5.69,1.5c-2.75,0-4.89-.75-6.41-2.24s-2.28-3.54-2.28-6.14c0-1.81.38-3.5,1.14-5.06s1.82-2.8,3.17-3.72c1.35-.92,2.88-1.38,4.58-1.38,1.52,0,2.74.45,3.66,1.36s1.38,2.13,1.38,3.68c0,1.81-.65,3.37-1.95,4.66s-3.5,2.33-6.59,3.09c.66,1.21,1.9,1.81,3.74,1.81,1.18,0,2.52-.41,4.03-1.24s2.81-1.91,3.92-3.25c.31-.37.67-.55,1.06-.55.34,0,.61.16.81.47h0ZM1255.91,181.66c-.67,1.13-1,2.49-1,4.09v.08c1.55-.37,2.77-.92,3.66-1.65s1.34-1.59,1.34-2.56c0-.5-.14-.9-.41-1.2-.28-.3-.65-.45-1.12-.45-.97,0-1.79.56-2.46,1.69h-.01Z"/>
        <path class="st3" d="M1267.32,192.84c-.77-1.21-1.16-2.81-1.16-4.8,0-1.18.15-2.7.45-4.54.3-1.85.69-3.57,1.16-5.17.24-.84.55-1.42.94-1.73.39-.31,1.02-.47,1.89-.47,1.34,0,2.01.45,2.01,1.34,0,.66-.25,2.18-.75,4.56-.63,2.89-.94,4.84-.94,5.86,0,.79.1,1.39.32,1.81.21.42.56.63,1.06.63.47,0,1.06-.33,1.77-.98.71-.66,1.65-1.69,2.83-3.11.31-.37.67-.55,1.06-.55.34,0,.61.16.81.47.2.31.29.75.29,1.3,0,1.05-.25,1.86-.75,2.44-2.6,3.17-5.02,4.76-7.28,4.76-1.71,0-2.95-.6-3.72-1.81h0ZM1268.88,172.75c-.55-.51-.83-1.23-.83-2.14s.36-1.69,1.08-2.3c.72-.62,1.62-.92,2.7-.92.97,0,1.76.24,2.36.71s.9,1.14.9,2.01c0,1.05-.34,1.88-1.02,2.5s-1.59.92-2.72.92-1.93-.26-2.48-.77h.01Z"/>
        <path class="st3" d="M1276.57,193.07c-.41-1.05-.61-2.73-.61-5.04,0-3.41.49-6.65,1.46-9.72.24-.76.62-1.32,1.16-1.67.54-.35,1.29-.53,2.26-.53.53,0,.89.07,1.1.2.21.13.31.38.31.75,0,.42-.2,1.36-.59,2.83-.26,1.05-.47,1.97-.63,2.75s-.29,1.76-.39,2.91c.87-2.26,1.84-4.09,2.91-5.51,1.08-1.42,2.13-2.43,3.17-3.03s1.99-.91,2.85-.91c1.71,0,2.56.85,2.56,2.56,0,1.02-.29,2.87-.87,5.55-.5,2.28-.75,3.79-.75,4.53,0,1.05.38,1.57,1.14,1.57.52,0,1.15-.32,1.87-.96s1.69-1.69,2.89-3.13c.31-.37.67-.55,1.06-.55.34,0,.61.16.81.47.2.31.29.75.29,1.3,0,1.05-.25,1.86-.75,2.44-1.13,1.39-2.34,2.53-3.64,3.42s-2.77,1.34-4.43,1.34c-1.34,0-2.35-.39-3.03-1.16s-1.02-1.9-1.02-3.36c0-.73.18-2.05.55-3.94.34-1.65.51-2.79.51-3.42,0-.42-.14-.63-.43-.63-.34,0-.82.44-1.44,1.32s-1.25,2.04-1.89,3.48-1.16,2.96-1.55,4.56c-.29,1.23-.62,2.07-1,2.5s-.98.65-1.79.65c-1,0-1.7-.52-2.1-1.57h0Z"/>
        <path class="st3" d="M1313.75,186.15c.2.31.29.75.29,1.3,0,1.05-.25,1.86-.75,2.44-.97,1.18-2.34,2.27-4.11,3.27s-3.67,1.5-5.69,1.5c-2.75,0-4.89-.75-6.41-2.24-1.52-1.5-2.28-3.54-2.28-6.14,0-1.81.38-3.5,1.14-5.06s1.82-2.8,3.17-3.72c1.35-.92,2.88-1.38,4.58-1.38,1.52,0,2.74.45,3.66,1.36s1.38,2.13,1.38,3.68c0,1.81-.65,3.37-1.95,4.66-1.3,1.3-3.5,2.33-6.59,3.09.66,1.21,1.9,1.81,3.74,1.81,1.18,0,2.52-.41,4.03-1.24s2.81-1.91,3.92-3.25c.32-.37.67-.55,1.06-.55.34,0,.61.16.81.47h0ZM1300.57,181.66c-.67,1.13-1,2.49-1,4.09v.08c1.55-.37,2.77-.92,3.66-1.65s1.34-1.59,1.34-2.56c0-.5-.14-.9-.41-1.2-.28-.3-.65-.45-1.12-.45-.97,0-1.79.56-2.46,1.69h-.01Z"/>
      </g>
    </g>
    <g>
      <g>
        <path id="path23312" class="st0" d="M1369.76,121.13c-26.56,0-48.12,21.56-48.12,48.12,0,54.03,54.51,68.21,91.66,121.63,35.12-53.1,91.65-69.32,91.65-121.63,0-26.56-21.56-48.12-48.13-48.12-19.26,0-35.85,11.38-43.53,27.75-7.68-16.37-24.27-27.75-43.54-27.75,0,0,.01,0,.01,0Z"/>
        <path class="st3" d="M1413.34,293.75l-1.36-1.95c-14.13-20.32-31.09-35.18-46.06-48.29-24.62-21.57-45.89-40.2-45.89-74.26,0-27.42,22.31-49.73,49.74-49.73,18.09,0,34.84,10.03,43.54,25.81,8.69-15.78,25.44-25.81,43.53-25.81,27.43,0,49.74,22.31,49.74,49.73,0,32.47-21.12,51.19-45.58,72.87-15.31,13.57-32.65,28.95-46.34,49.65l-1.31,1.98h-.01ZM1369.76,122.74c-25.65,0-46.51,20.86-46.51,46.51,0,32.59,20.75,50.77,44.79,71.83,14.63,12.82,31.16,27.3,45.23,46.95,13.7-20.07,30.61-35.05,45.58-48.33,23.87-21.17,44.49-39.44,44.49-70.46,0-25.65-20.87-46.51-46.51-46.51-17.92,0-34.43,10.53-42.07,26.82l-1.46,3.11-1.46-3.11c-7.65-16.29-24.16-26.82-42.08-26.82h0Z"/>
      </g>
      <path id="path23313" class="st3" d="M1469.53,216.8c-8.55,0-15.5,6.94-15.5,15.5,0,17.4,17.56,21.97,29.52,39.18,11.32-17.1,29.52-22.33,29.52-39.18,0-8.56-6.94-15.5-15.5-15.5-6.2,0-11.55,3.67-14.02,8.94-2.47-5.27-7.82-8.94-14.02-8.94h0Z"/>
    </g>
    <g>
      <path id="path23314" class="st0" d="M1153.39,284.36c-10.73,0-19.43,8.71-19.43,19.43,0,21.82,22.01,27.55,37.02,49.12,14.18-21.44,37.01-27.99,37.01-49.12,0-10.73-8.7-19.43-19.44-19.43-7.78,0-14.48,4.59-17.58,11.2-3.1-6.61-9.8-11.2-17.58-11.2h0Z"/>
      <path class="st3" d="M1170.99,354.46l-.73-1.05c-5.69-8.18-12.53-14.18-18.57-19.46-9.98-8.75-18.61-16.3-18.61-30.15,0-11.2,9.11-20.3,20.3-20.3,7.25,0,13.98,3.95,17.58,10.2,3.6-6.25,10.32-10.2,17.58-10.2,11.2,0,20.3,9.1,20.3,20.3,0,13.21-8.56,20.8-18.48,29.59-6.17,5.47-13.17,11.67-18.68,20.01l-.71,1.07h.02,0ZM1153.39,285.23c-10.24,0-18.57,8.33-18.57,18.56,0,13.06,7.95,20.03,18.01,28.84,5.86,5.13,12.46,10.92,18.12,18.75,5.52-8,12.28-13.99,18.27-19.3,9.6-8.51,17.89-15.86,17.89-28.29,0-10.24-8.33-18.56-18.57-18.56-7.15,0-13.74,4.2-16.79,10.7l-.79,1.68-.79-1.68c-3.05-6.5-9.65-10.7-16.8-10.7h.02Z"/>
    </g>
    <g class="st1">
      <g class="st1">
        <path class="st2" d="M1249.93,285.11h9.05l4.03,28.87h.12l4.03-28.87h9.05v40.34h-5.99v-30.54h-.12l-4.61,30.54h-5.3l-4.61-30.54h-.12v30.54h-5.53v-40.34h0Z"/>
        <path class="st2" d="M1285.84,285.11h8.59l6.57,40.34h-6.34l-1.15-8.01v.12h-7.2l-1.15,7.9h-5.88l6.57-40.34h0ZM1292.75,312.08l-2.82-19.94h-.12l-2.77,19.94h5.71Z"/>
        <path class="st2" d="M1304.05,285.11h7.95l6.17,24.15h.12v-24.15h5.65v40.34h-6.51l-7.61-29.45h-.12v29.45h-5.65v-40.34Z"/>
        <path class="st2" d="M1328.65,285.11h6.34v40.34h-6.34v-40.34Z"/>
        <path class="st2" d="M1339.72,285.11h16.77v5.76h-10.43v11.24h8.18v5.76h-8.18v17.58h-6.34v-40.34Z"/>
        <path class="st2" d="M1359.54,285.11h17.29v5.76h-10.95v10.66h8.7v5.76h-8.7v12.39h10.95v5.76h-17.29v-40.34h0Z"/>
        <path class="st2" d="M1381.84,323.4c-1.58-1.75-2.36-4.25-2.36-7.52v-2.31h5.99v2.77c0,2.61,1.1,3.92,3.29,3.92,1.08,0,1.89-.32,2.45-.95.56-.63.84-1.66.84-3.08,0-1.69-.38-3.18-1.15-4.47s-2.19-2.83-4.26-4.64c-2.61-2.31-4.44-4.39-5.48-6.25s-1.56-3.97-1.56-6.31c0-3.19.81-5.66,2.42-7.41s3.96-2.62,7.03-2.62,5.33.87,6.89,2.62,2.33,4.26,2.33,7.52v1.67h-5.99v-2.07c0-1.38-.27-2.39-.81-3.03-.54-.63-1.33-.95-2.36-.95-2.11,0-3.17,1.29-3.17,3.86,0,1.46.39,2.82,1.18,4.09s2.22,2.8,4.29,4.61c2.65,2.3,4.47,4.4,5.47,6.28s1.5,4.09,1.5,6.63c0,3.3-.82,5.84-2.45,7.61s-4,2.65-7.12,2.65-5.4-.87-6.97-2.62h0Z"/>
        <path class="st2" d="M1406.97,290.87h-6.63v-5.76h19.59v5.76h-6.63v34.58h-6.34v-34.58h.01Z"/>
        <path class="st2" d="M1425.24,285.11h8.59l6.57,40.34h-6.34l-1.15-8.01v.12h-7.2l-1.15,7.9h-5.88l6.57-40.34h0ZM1432.16,312.08l-2.82-19.94h-.12l-2.77,19.94h5.71Z"/>
        <path class="st2" d="M1445.76,290.87h-6.63v-5.76h19.59v5.76h-6.63v34.58h-6.34v-34.58h.01Z"/>
        <path class="st2" d="M1461.78,285.11h6.34v40.34h-6.34v-40.34Z"/>
        <path class="st2" d="M1474.86,323.38c-1.65-1.77-2.48-4.26-2.48-7.49v-21.21c0-3.23.83-5.72,2.48-7.49s4.03-2.65,7.15-2.65,5.49.88,7.15,2.65c1.65,1.77,2.48,4.26,2.48,7.49v21.21c0,3.23-.83,5.72-2.48,7.49s-4.03,2.65-7.15,2.65-5.49-.88-7.15-2.65ZM1485.29,316.29v-22.01c0-2.65-1.09-3.98-3.29-3.98s-3.28,1.33-3.28,3.98v22.01c0,2.65,1.09,3.98,3.28,3.98s3.29-1.33,3.29-3.98Z"/>
        <path class="st2" d="M1495.89,285.11h7.95l6.17,24.15h.12v-24.15h5.65v40.34h-6.51l-7.61-29.45h-.12v29.45h-5.65v-40.34Z"/>
      </g>
    </g>
    <g class="st1">
      <g class="st1">
        <path class="st2" d="M1228.73,203.64h11.17v60.92h18.38v10.15h-29.55v-71.07h0Z"/>
        <path class="st2" d="M1263.66,203.64h11.17v71.07h-11.17v-71.07h0Z"/>
        <path class="st2" d="M1283.15,203.64h30.46v10.15h-19.29v18.78h15.33v10.15h-15.33v21.83h19.29v10.15h-30.46v-71.07h0Z"/>
        <path class="st2" d="M1320,203.64h16.85c5.75,0,9.95,1.34,12.59,4.01s3.96,6.79,3.96,12.34v2.84c0,3.66-.59,6.63-1.78,8.93-1.18,2.3-3,3.96-5.43,4.97v.2c5.55,1.9,8.33,6.84,8.33,14.82v6.09c0,5.48-1.44,9.66-4.32,12.54s-7.09,4.32-12.64,4.32h-17.57v-71.07h.01ZM1335.54,232.58c2.23,0,3.91-.57,5.03-1.73,1.12-1.15,1.67-3.08,1.67-5.79v-3.96c0-2.57-.46-4.43-1.37-5.58-.91-1.15-2.35-1.73-4.32-1.73h-5.38v18.78h4.37,0ZM1337.57,264.56c1.96,0,3.42-.52,4.37-1.57.95-1.05,1.42-2.86,1.42-5.43v-6.19c0-3.25-.56-5.5-1.68-6.75s-2.96-1.88-5.53-1.88h-4.97v21.83h6.4-.01Z"/>
        <path class="st2" d="M1361.02,203.64h30.46v10.15h-19.29v18.78h15.33v10.15h-15.33v21.83h19.29v10.15h-30.46v-71.07h0Z"/>
        <path class="st2" d="M1397.88,203.64h16.55c5.75,0,9.95,1.34,12.59,4.01s3.96,6.79,3.96,12.34v4.37c0,7.38-2.44,12.05-7.31,14.01v.2c2.71.81,4.62,2.47,5.74,4.97s1.68,5.86,1.68,10.05v12.49c0,2.03.07,3.67.2,4.92.14,1.25.47,2.49,1.02,3.71h-11.37c-.41-1.15-.68-2.23-.81-3.25-.14-1.02-.2-2.84-.2-5.48v-13c0-3.25-.53-5.52-1.57-6.8-1.05-1.28-2.86-1.93-5.43-1.93h-3.86v30.46h-11.17v-71.07h-.02ZM1413.11,234.1c2.23,0,3.91-.57,5.03-1.73,1.12-1.15,1.67-3.08,1.67-5.79v-5.48c0-2.57-.46-4.43-1.37-5.58-.91-1.15-2.35-1.73-4.32-1.73h-5.08v20.31h4.07Z"/>
      </g>
    </g>
  </g>
  <g>
    <g class="st1">
      <g class="st1">
        <path class="st3" d="M-148-281.66c-.41-1.05-.61-2.73-.61-5.04,0-3.41.49-6.65,1.46-9.72.24-.76.62-1.32,1.16-1.67s1.29-.53,2.26-.53c.52,0,.89.07,1.1.2s.31.38.31.75c0,.42-.2,1.36-.59,2.83-.26,1.05-.47,1.96-.63,2.74-.16.77-.29,1.74-.39,2.89.71-2.05,1.55-3.78,2.54-5.19.98-1.42,1.99-2.47,3.03-3.17,1.04-.7,2.01-1.04,2.93-1.04s1.57.21,1.95.63c.38.42.57,1.06.57,1.93s-.25,2.36-.75,4.56c-.21.94-.35,1.65-.43,2.12,1.31-3.23,2.77-5.57,4.37-7.04s3.1-2.2,4.49-2.2c1.71,0,2.56.85,2.56,2.56,0,1.02-.29,2.87-.87,5.55-.5,2.28-.75,3.79-.75,4.53,0,1.05.38,1.57,1.14,1.57.52,0,1.15-.32,1.87-.96.72-.64,1.69-1.69,2.89-3.13.31-.37.67-.55,1.06-.55.34,0,.61.16.81.47s.29.75.29,1.3c0,1.05-.25,1.86-.75,2.44-1.13,1.39-2.34,2.53-3.64,3.42s-2.77,1.34-4.43,1.34c-1.34,0-2.35-.39-3.03-1.16-.68-.77-1.02-1.9-1.02-3.36,0-.73.18-2.05.55-3.94.34-1.65.51-2.79.51-3.42,0-.42-.14-.63-.43-.63-.34,0-.83.44-1.46,1.32-.63.88-1.26,2.04-1.89,3.48s-1.14,2.96-1.53,4.56c-.29,1.26-.62,2.1-1,2.52s-.99.63-1.83.63-1.52-.41-1.95-1.24c-.43-.83-.65-1.83-.65-3.01,0-1,.13-2.44.39-4.33.21-1.68.31-2.78.31-3.3,0-.42-.14-.63-.43-.63-.39,0-.89.47-1.5,1.42-.6.95-1.19,2.15-1.75,3.62s-1.02,2.91-1.36,4.33c-.29,1.23-.62,2.07-1,2.5s-.98.65-1.79.65c-1,0-1.7-.52-2.1-1.57v-.03Z"/>
        <path class="st3" d="M-118.29-281.89c-.77-1.21-1.16-2.81-1.16-4.8,0-1.18.15-2.7.45-4.54.3-1.85.69-3.57,1.16-5.17.24-.84.55-1.42.94-1.73s1.02-.47,1.89-.47c1.34,0,2.01.45,2.01,1.34,0,.66-.25,2.18-.75,4.56-.63,2.89-.94,4.84-.94,5.86,0,.79.1,1.39.31,1.81s.56.63,1.06.63c.47,0,1.06-.33,1.77-.98.71-.66,1.65-1.69,2.83-3.11.31-.37.67-.55,1.06-.55.34,0,.61.16.81.47s.3.75.3,1.3c0,1.05-.25,1.86-.75,2.44-2.6,3.17-5.02,4.76-7.28,4.76-1.71,0-2.95-.6-3.72-1.81h.01ZM-116.74-301.98c-.55-.51-.83-1.23-.83-2.14s.36-1.69,1.08-2.3c.72-.62,1.62-.92,2.7-.92.97,0,1.76.24,2.36.71.6.47.9,1.14.9,2.01,0,1.05-.34,1.88-1.02,2.5s-1.59.92-2.72.92-1.93-.26-2.48-.77h.01Z"/>
      </g>
    </g>
    <g class="st1">
      <g class="st1">
        <path class="st3" d="M-76.04-188.91c-1.05-.13-1.77-.41-2.16-.83-.39-.42-.56-1.1-.51-2.05.18-2.6.62-5.8,1.3-9.62.68-3.82,1.51-7.5,2.48-11.04.18-.66.55-1.11,1.1-1.38.55-.26,1.27-.39,2.16-.39,1.6,0,2.4.45,2.4,1.34,0,.37-.08.79-.24,1.26-.68,2.1-1.36,4.91-2.05,8.44s-1.17,6.89-1.46,10.09c.79.08,1.68.12,2.68.12,4.59,0,8.02-1.39,10.29-4.17,2.27-2.78,3.4-6.49,3.4-11.14,0-3.12-.89-5.54-2.68-7.24-1.78-1.71-4.3-2.56-7.56-2.56-2.1,0-4.18.33-6.24.98-2.06.66-3.92,1.52-5.57,2.6-.34.24-.71.35-1.1.35-.45,0-.8-.19-1.06-.57-.26-.38-.39-.85-.39-1.4,0-.63.1-1.15.31-1.55.21-.41.56-.78,1.06-1.12,1.81-1.23,3.94-2.17,6.37-2.81,2.44-.64,4.79-.96,7.04-.96,3.2,0,5.97.56,8.3,1.67,2.33,1.12,4.13,2.75,5.39,4.9,1.26,2.15,1.89,4.75,1.89,7.79,0,3.96-.79,7.42-2.36,10.37-1.57,2.95-3.87,5.24-6.89,6.87-3.02,1.63-6.61,2.44-10.78,2.44-1.52,0-3.24-.13-5.15-.39h.03Z"/>
        <path class="st3" d="M-29.87-197.01c.2.31.29.75.29,1.3,0,1.05-.25,1.86-.75,2.44-.97,1.18-2.34,2.27-4.11,3.27s-3.67,1.5-5.69,1.5c-2.75,0-4.89-.75-6.41-2.24-1.52-1.5-2.28-3.54-2.28-6.14,0-1.81.38-3.5,1.14-5.06s1.82-2.8,3.17-3.72c1.35-.92,2.88-1.38,4.58-1.38,1.52,0,2.74.45,3.66,1.36s1.38,2.13,1.38,3.68c0,1.81-.65,3.37-1.95,4.66-1.3,1.3-3.5,2.33-6.59,3.09.66,1.21,1.9,1.81,3.74,1.81,1.18,0,2.52-.41,4.03-1.24s2.81-1.91,3.92-3.25c.31-.37.67-.55,1.06-.55.34,0,.61.16.81.47h0ZM-43.05-201.5c-.67,1.13-1,2.49-1,4.09v.08c1.55-.37,2.77-.92,3.66-1.65s1.34-1.59,1.34-2.56c0-.5-.14-.9-.41-1.2-.28-.3-.65-.45-1.12-.45-.97,0-1.79.56-2.46,1.69h0Z"/>
      </g>
    </g>
    <g>
      <g>
        <path id="path23315" class="st0" d="M72.48-358.79c-26.56,0-48.12,21.56-48.12,48.12,0,54.03,54.51,68.21,91.66,121.63,35.12-53.1,91.65-69.32,91.65-121.63,0-26.56-21.56-48.12-48.13-48.12-19.26,0-35.85,11.38-43.53,27.75-7.68-16.37-24.27-27.75-43.54-27.75h.01Z"/>
        <path class="st3" d="M116.05-186.16l-1.36-1.95c-14.13-20.32-31.09-35.18-46.06-48.29-24.62-21.57-45.89-40.2-45.89-74.26,0-27.42,22.31-49.73,49.74-49.73,18.09,0,34.84,10.03,43.54,25.81,8.69-15.78,25.44-25.81,43.53-25.81,27.43,0,49.74,22.31,49.74,49.73,0,32.47-21.12,51.19-45.58,72.87-15.31,13.57-32.65,28.95-46.34,49.65l-1.31,1.98h-.01,0ZM72.48-357.17c-25.65,0-46.51,20.86-46.51,46.51,0,32.59,20.75,50.77,44.79,71.83,14.63,12.82,31.16,27.3,45.23,46.95,13.7-20.07,30.61-35.05,45.58-48.33,23.87-21.17,44.49-39.44,44.49-70.46,0-25.65-20.87-46.51-46.51-46.51-17.92,0-34.43,10.53-42.07,26.82l-1.46,3.11-1.46-3.11c-7.65-16.29-24.16-26.82-42.08-26.82h0Z"/>
      </g>
      <path id="path23316" class="st3" d="M172.25-263.11c-8.55,0-15.5,6.94-15.5,15.5,0,17.4,17.56,21.97,29.52,39.18,11.32-17.1,29.52-22.33,29.52-39.18,0-8.56-6.94-15.5-15.5-15.5-6.2,0-11.55,3.67-14.02,8.94-2.47-5.27-7.82-8.94-14.02-8.94Z"/>
    </g>
    <g>
      <path id="path23317" class="st0" d="M-162.16-214.57c-10.73,0-19.43,8.71-19.43,19.43,0,21.82,22.01,27.55,37.02,49.12,14.18-21.44,37.01-27.99,37.01-49.12,0-10.73-8.7-19.43-19.44-19.43-7.78,0-14.48,4.59-17.58,11.2-3.1-6.61-9.8-11.2-17.58-11.2h0Z"/>
      <path class="st3" d="M-144.56-144.47l-.73-1.05c-5.69-8.18-12.53-14.18-18.57-19.46-9.98-8.75-18.6-16.3-18.6-30.15,0-11.2,9.11-20.3,20.3-20.3,7.25,0,13.98,3.95,17.58,10.2,3.6-6.25,10.32-10.2,17.58-10.2,11.2,0,20.3,9.1,20.3,20.3,0,13.21-8.56,20.8-18.48,29.59-6.17,5.47-13.17,11.67-18.68,20.01l-.71,1.07h.02,0ZM-162.16-213.7c-10.24,0-18.57,8.33-18.57,18.56,0,13.06,7.95,20.03,18.01,28.84,5.86,5.13,12.46,10.92,18.12,18.75,5.52-8,12.28-13.99,18.27-19.3,9.6-8.51,17.89-15.86,17.89-28.29,0-10.24-8.33-18.56-18.57-18.56-7.15,0-13.74,4.2-16.79,10.7l-.79,1.68-.79-1.68c-3.05-6.5-9.65-10.7-16.8-10.7h.02,0Z"/>
    </g>
    <g class="st1">
      <g class="st1">
        <path class="st2" d="M-12.18-223.55H2.95l11.57,71.07H3.35l-2.03-14.11v.2h-12.69l-2.03,13.91h-10.36l11.58-71.07h0ZM.01-176.03l-4.98-35.13h-.2l-4.87,35.13H.01h0Z"/>
        <path class="st2" d="M19.9-223.55h15.94l7.11,50.87h.2l7.11-50.87h15.94v71.07h-10.56v-53.81h-.2l-8.12,53.81h-9.34l-8.12-53.81h-.2v53.81h-9.75v-71.07h-.01Z"/>
        <path class="st2" d="M78.08-156.14c-2.91-3.11-4.37-7.51-4.37-13.2v-37.36c0-5.69,1.46-10.08,4.37-13.2,2.91-3.11,7.11-4.67,12.59-4.67s9.68,1.56,12.59,4.67,4.37,7.51,4.37,13.2v37.36c0,5.69-1.46,10.09-4.37,13.2s-7.11,4.67-12.59,4.67-9.68-1.56-12.59-4.67ZM96.46-168.62v-38.78c0-4.67-1.93-7.01-5.79-7.01s-5.79,2.34-5.79,7.01v38.78c0,4.67,1.93,7.01,5.79,7.01s5.79-2.33,5.79-7.01Z"/>
        <path class="st2" d="M115.14-223.55h16.55c5.75,0,9.95,1.34,12.59,4.01,2.64,2.67,3.96,6.79,3.96,12.34v4.37c0,7.38-2.44,12.05-7.31,14.01v.2c2.71.81,4.62,2.47,5.74,4.97s1.67,5.86,1.67,10.05v12.49c0,2.03.07,3.67.2,4.92s.47,2.49,1.02,3.71h-11.37c-.41-1.15-.68-2.23-.81-3.25-.14-1.02-.2-2.84-.2-5.48v-13c0-3.25-.53-5.52-1.57-6.8-1.05-1.28-2.86-1.93-5.43-1.93h-3.86v30.46h-11.17v-71.07h0ZM130.37-193.09c2.23,0,3.91-.57,5.03-1.73,1.12-1.15,1.68-3.08,1.68-5.79v-5.48c0-2.57-.46-4.43-1.37-5.58-.91-1.15-2.35-1.73-4.31-1.73h-5.08v20.31h4.06-.01Z"/>
      </g>
    </g>
    <g class="st1">
      <g class="st1">
        <path class="st2" d="M-150.37-273.5h9.05l4.03,28.87h.12l4.03-28.87h9.05v40.34h-5.99v-30.54h-.12l-4.61,30.54h-5.3l-4.61-30.54h-.12v30.54h-5.53v-40.34Z"/>
        <path class="st2" d="M-114.46-273.5h8.59l6.57,40.34h-6.34l-1.15-8.01v.12h-7.2l-1.15,7.9h-5.88l6.57-40.34h0ZM-107.55-246.53l-2.82-19.94h-.12l-2.77,19.94h5.71Z"/>
        <path class="st2" d="M-96.25-273.5h7.95l6.17,24.15h.12v-24.15h5.65v40.34h-6.51l-7.61-29.45h-.12v29.45h-5.65s0-40.34,0-40.34Z"/>
        <path class="st2" d="M-71.65-273.5h6.34v40.34h-6.34v-40.34Z"/>
        <path class="st2" d="M-60.58-273.5h16.77v5.76h-10.43v11.24h8.18v5.76h-8.18v17.58h-6.34s0-40.34,0-40.34Z"/>
        <path class="st2" d="M-40.76-273.5h17.29v5.76h-10.95v10.66h8.7v5.76h-8.7v12.39h10.95v5.76h-17.29v-40.34h0Z"/>
        <path class="st2" d="M-18.46-235.21c-1.58-1.75-2.36-4.25-2.36-7.52v-2.31h5.99v2.77c0,2.61,1.1,3.92,3.29,3.92,1.08,0,1.89-.32,2.45-.95s.84-1.66.84-3.08c0-1.69-.38-3.18-1.15-4.47-.77-1.29-2.19-2.83-4.26-4.64-2.61-2.31-4.44-4.39-5.48-6.25s-1.56-3.97-1.56-6.31c0-3.19.81-5.66,2.42-7.41s3.96-2.62,7.03-2.62,5.33.87,6.89,2.62,2.33,4.26,2.33,7.52v1.67h-5.99v-2.07c0-1.38-.27-2.39-.81-3.03-.54-.63-1.33-.95-2.36-.95-2.11,0-3.17,1.29-3.17,3.86,0,1.46.39,2.82,1.18,4.09s2.22,2.8,4.29,4.61c2.65,2.3,4.48,4.4,5.48,6.28s1.5,4.09,1.5,6.63c0,3.3-.82,5.84-2.45,7.61-1.63,1.77-4.01,2.65-7.12,2.65s-5.4-.87-6.97-2.62h0Z"/>
        <path class="st2" d="M6.67-267.74H.04v-5.76h19.59v5.76h-6.63v34.58h-6.34v-34.58h.01Z"/>
        <path class="st2" d="M24.94-273.5h8.59l6.57,40.34h-6.34l-1.15-8.01v.12h-7.2l-1.15,7.9h-5.88l6.57-40.34h-.01ZM31.85-246.53l-2.82-19.94h-.12l-2.77,19.94h5.71Z"/>
        <path class="st2" d="M45.02-235.18c-1.59-1.73-2.39-4.17-2.39-7.32v-21.67c0-3.15.8-5.59,2.39-7.32,1.59-1.73,3.91-2.59,6.95-2.59s5.35.86,6.94,2.59c1.59,1.73,2.39,4.17,2.39,7.32v4.26h-5.99v-4.67c0-2.5-1.06-3.75-3.17-3.75s-3.17,1.25-3.17,3.75v22.53c0,2.46,1.06,3.69,3.17,3.69s3.17-1.23,3.17-3.69v-6.17h5.99v5.71c0,3.15-.8,5.59-2.39,7.32-1.59,1.73-3.91,2.59-6.94,2.59s-5.35-.86-6.95-2.59h0Z"/>
        <path class="st2" d="M65.11-273.5h6.34v40.34h-6.34v-40.34Z"/>
        <path class="st2" d="M78.19-235.23c-1.65-1.77-2.48-4.26-2.48-7.49v-21.21c0-3.23.83-5.72,2.48-7.49,1.65-1.77,4.03-2.65,7.15-2.65s5.49.88,7.15,2.65c1.65,1.77,2.48,4.26,2.48,7.49v21.21c0,3.23-.83,5.72-2.48,7.49-1.65,1.77-4.03,2.65-7.15,2.65s-5.5-.88-7.15-2.65ZM88.62-242.32v-22.01c0-2.65-1.09-3.98-3.29-3.98s-3.28,1.33-3.28,3.98v22.01c0,2.65,1.09,3.98,3.28,3.98s3.29-1.33,3.29-3.98Z"/>
        <path class="st2" d="M99.22-273.5h7.95l6.17,24.15h.12v-24.15h5.65v40.34h-6.51l-7.61-29.45h-.12v29.45h-5.65v-40.34h0Z"/>
      </g>
    </g>
  </g>
  <g>
    <g class="st1">
      <g class="st1">
        <path class="st3" d="M626.04,655.09c-.41-1.05-.61-2.73-.61-5.04,0-3.41.48-6.65,1.46-9.72.24-.76.62-1.32,1.16-1.67s1.29-.53,2.26-.53c.53,0,.89.07,1.1.2.21.13.32.38.32.75,0,.42-.2,1.36-.59,2.83-.26,1.05-.47,1.96-.63,2.74-.16.77-.29,1.74-.39,2.89.71-2.05,1.55-3.78,2.54-5.19.98-1.42,1.99-2.47,3.03-3.17,1.04-.7,2.01-1.04,2.93-1.04s1.57.21,1.95.63.57,1.06.57,1.93-.25,2.36-.75,4.56c-.21.94-.35,1.65-.43,2.12,1.31-3.23,2.77-5.57,4.37-7.04s3.09-2.2,4.49-2.2c1.71,0,2.56.85,2.56,2.56,0,1.02-.29,2.87-.87,5.55-.5,2.28-.75,3.79-.75,4.53,0,1.05.38,1.57,1.14,1.57.52,0,1.15-.32,1.87-.96s1.69-1.69,2.89-3.13c.31-.37.67-.55,1.06-.55.34,0,.61.16.81.47s.29.75.29,1.3c0,1.05-.25,1.86-.75,2.44-1.13,1.39-2.34,2.53-3.64,3.42-1.3.89-2.77,1.34-4.43,1.34-1.34,0-2.35-.39-3.03-1.16-.68-.77-1.02-1.9-1.02-3.36,0-.73.18-2.05.55-3.94.34-1.65.51-2.79.51-3.42,0-.42-.14-.63-.43-.63-.34,0-.83.44-1.46,1.32s-1.26,2.04-1.89,3.48-1.14,2.96-1.54,4.56c-.29,1.26-.62,2.1-1,2.52s-.99.63-1.83.63-1.51-.41-1.95-1.24c-.43-.83-.65-1.83-.65-3.01,0-1,.13-2.44.39-4.33.21-1.68.31-2.78.31-3.3,0-.42-.14-.63-.43-.63-.39,0-.89.47-1.5,1.42-.6.95-1.19,2.15-1.75,3.62s-1.02,2.91-1.36,4.33c-.29,1.23-.62,2.07-1,2.5s-.98.65-1.79.65c-1,0-1.7-.52-2.11-1.57l.02-.03Z"/>
        <path class="st3" d="M655.57,654.9c-.97-1.18-1.46-2.73-1.46-4.64,0-2.1.48-4.08,1.46-5.96.97-1.88,2.26-3.38,3.88-4.53s3.32-1.71,5.13-1.71c.58,0,.96.11,1.16.33s.36.62.49,1.2c.55-.1,1.13-.16,1.73-.16,1.29,0,1.93.46,1.93,1.38,0,.55-.2,1.86-.59,3.93-.6,3.02-.91,5.12-.91,6.3,0,.39.1.71.3.94.2.24.45.35.77.35.5,0,1.1-.32,1.81-.96s1.67-1.69,2.87-3.13c.31-.37.67-.55,1.06-.55.34,0,.61.16.81.47s.29.75.29,1.3c0,1.05-.25,1.86-.75,2.44-1.08,1.34-2.22,2.47-3.42,3.38-1.21.92-2.37,1.38-3.5,1.38-.87,0-1.66-.29-2.38-.88-.72-.59-1.27-1.4-1.63-2.42-1.36,2.2-3.08,3.3-5.15,3.3-1.63,0-2.93-.59-3.9-1.77h0ZM662.53,651.67c.52-.68.91-1.59,1.14-2.71l1.46-7.24c-1.1.03-2.12.44-3.05,1.24s-1.67,1.86-2.22,3.17-.83,2.7-.83,4.17c0,.81.16,1.42.49,1.81s.78.59,1.36.59,1.13-.34,1.65-1.02h0Z"/>
      </g>
    </g>
    <g class="st1">
      <g class="st1">
        <path class="st3" d="M689,754.85c-1.05-.13-1.77-.41-2.16-.83-.39-.42-.56-1.1-.51-2.05.18-2.6.62-5.8,1.3-9.62s1.51-7.5,2.48-11.04c.18-.66.55-1.11,1.1-1.38.55-.26,1.27-.39,2.17-.39,1.6,0,2.4.45,2.4,1.34,0,.37-.08.79-.24,1.26-.68,2.1-1.36,4.91-2.05,8.44-.68,3.53-1.17,6.89-1.46,10.09.79.08,1.68.12,2.68.12,4.59,0,8.02-1.39,10.29-4.17,2.27-2.78,3.4-6.49,3.4-11.14,0-3.12-.89-5.54-2.68-7.24-1.78-1.71-4.3-2.56-7.56-2.56-2.1,0-4.18.33-6.24.98-2.06.66-3.92,1.52-5.57,2.6-.34.24-.71.35-1.1.35-.45,0-.8-.19-1.06-.57s-.39-.85-.39-1.4c0-.63.1-1.15.31-1.55.21-.41.56-.78,1.06-1.12,1.81-1.23,3.94-2.17,6.38-2.81s4.79-.96,7.04-.96c3.2,0,5.97.56,8.3,1.67,2.33,1.12,4.13,2.75,5.39,4.9s1.89,4.75,1.89,7.79c0,3.96-.79,7.42-2.36,10.37s-3.87,5.24-6.89,6.87-6.61,2.44-10.78,2.44c-1.52,0-3.24-.13-5.15-.39h.01Z"/>
        <path class="st3" d="M719.1,731.24c-.34-.26-.51-.68-.51-1.26,0-.24.04-.51.12-.83.29-1.21.5-2.32.65-3.34.14-1.02.22-2.16.22-3.42s.31-2.32.92-3.03c.62-.71,1.41-1.06,2.38-1.06s1.66.26,2.14.77c.48.51.73,1.2.73,2.07,0,.92-.28,2.14-.83,3.66s-1.22,3-2.01,4.45c-.53.97-.94,1.61-1.24,1.93s-.7.47-1.2.47c-.58,0-1.04-.13-1.38-.39v-.02Z"/>
      </g>
    </g>
    <g>
      <g>
        <path id="path23318" class="st0" d="M846.51,570.96c-26.56,0-48.12,21.56-48.12,48.12,0,54.03,54.51,68.21,91.66,121.63,35.12-53.1,91.65-69.32,91.65-121.63,0-26.56-21.56-48.12-48.13-48.12-19.26,0-35.85,11.38-43.53,27.75-7.68-16.37-24.27-27.75-43.54-27.75h0Z"/>
        <path class="st3" d="M890.08,743.59l-1.36-1.95c-14.13-20.32-31.09-35.18-46.06-48.29-24.62-21.57-45.89-40.2-45.89-74.26,0-27.42,22.31-49.73,49.74-49.73,18.09,0,34.84,10.03,43.54,25.81,8.69-15.78,25.44-25.81,43.53-25.81,27.43,0,49.74,22.31,49.74,49.73,0,32.47-21.12,51.19-45.58,72.87-15.31,13.57-32.65,28.95-46.34,49.65l-1.31,1.98h0ZM846.51,572.58c-25.65,0-46.51,20.86-46.51,46.51,0,32.59,20.75,50.77,44.79,71.83,14.63,12.82,31.16,27.3,45.23,46.95,13.7-20.07,30.61-35.05,45.58-48.33,23.87-21.17,44.49-39.44,44.49-70.46,0-25.65-20.87-46.51-46.51-46.51-17.92,0-34.43,10.53-42.07,26.82l-1.46,3.11-1.46-3.11c-7.65-16.29-24.16-26.82-42.08-26.82h0Z"/>
      </g>
      <path id="path23319" class="st3" d="M946.28,666.64c-8.55,0-15.5,6.94-15.5,15.5,0,17.4,17.56,21.97,29.52,39.18,11.32-17.1,29.52-22.33,29.52-39.18,0-8.56-6.94-15.5-15.5-15.5-6.2,0-11.55,3.67-14.02,8.94-2.47-5.27-7.82-8.94-14.02-8.94Z"/>
    </g>
    <g>
      <path id="path23320" class="st0" d="M599.73,736.18c-10.73,0-19.43,8.71-19.43,19.43,0,21.82,22.01,27.55,37.02,49.12,14.18-21.44,37.01-27.99,37.01-49.12,0-10.73-8.7-19.43-19.44-19.43-7.78,0-14.48,4.59-17.58,11.2-3.1-6.61-9.8-11.2-17.58-11.2Z"/>
      <path class="st3" d="M617.33,806.28l-.73-1.05c-5.69-8.18-12.53-14.18-18.57-19.46-9.98-8.75-18.61-16.3-18.61-30.15,0-11.2,9.11-20.3,20.3-20.3,7.25,0,13.98,3.95,17.58,10.2,3.6-6.25,10.32-10.2,17.58-10.2,11.2,0,20.3,9.1,20.3,20.3,0,13.21-8.56,20.8-18.48,29.59-6.17,5.47-13.17,11.67-18.68,20.01l-.71,1.07h.02,0ZM599.73,737.05c-10.24,0-18.57,8.33-18.57,18.56,0,13.06,7.95,20.03,18.01,28.84,5.86,5.13,12.46,10.92,18.12,18.75,5.52-8,12.28-13.99,18.27-19.3,9.6-8.51,17.89-15.86,17.89-28.29,0-10.24-8.33-18.56-18.57-18.56-7.15,0-13.74,4.2-16.79,10.7l-.79,1.68-.79-1.68c-3.05-6.5-9.65-10.7-16.8-10.7h.02,0Z"/>
    </g>
    <g class="st1">
      <g class="st1">
        <path class="st2" d="M741.57,718.56h15.13l11.57,71.07h-11.17l-2.03-14.11v.2h-12.69l-2.03,13.91h-10.36l11.58-71.07ZM753.76,766.08l-4.98-35.13h-.2l-4.87,35.13h10.05Z"/>
        <path class="st2" d="M773.65,718.56h15.94l7.11,50.87h.2l7.11-50.87h15.94v71.07h-10.56v-53.81h-.2l-8.12,53.81h-9.34l-8.12-53.81h-.2v53.81h-9.75v-71.07h0Z"/>
        <path class="st2" d="M831.83,785.97c-2.91-3.11-4.37-7.51-4.37-13.2v-37.36c0-5.69,1.46-10.08,4.37-13.2,2.91-3.11,7.11-4.67,12.59-4.67s9.68,1.56,12.59,4.67c2.91,3.11,4.37,7.51,4.37,13.2v37.36c0,5.69-1.46,10.09-4.37,13.2s-7.11,4.67-12.59,4.67-9.68-1.56-12.59-4.67ZM850.21,773.49v-38.78c0-4.67-1.93-7.01-5.79-7.01s-5.79,2.34-5.79,7.01v38.78c0,4.67,1.93,7.01,5.79,7.01s5.79-2.33,5.79-7.01Z"/>
        <path class="st2" d="M872.75,786.03c-2.84-3.08-4.26-7.5-4.26-13.25v-54.22h11.17v55.03c0,2.44.49,4.2,1.47,5.28s2.39,1.62,4.21,1.62,3.23-.54,4.21-1.62c.98-1.08,1.47-2.84,1.47-5.28v-55.03h10.76v54.22c0,5.75-1.42,10.17-4.26,13.25s-6.97,4.62-12.39,4.62-9.54-1.54-12.39-4.62h.01Z"/>
        <path class="st2" d="M909.7,718.56h16.55c5.75,0,9.95,1.34,12.59,4.01s3.96,6.79,3.96,12.34v4.37c0,7.38-2.44,12.05-7.31,14.01v.2c2.71.81,4.62,2.47,5.74,4.97s1.67,5.86,1.67,10.05v12.49c0,2.03.07,3.67.2,4.92s.47,2.49,1.02,3.71h-11.37c-.41-1.15-.68-2.23-.81-3.25-.14-1.02-.2-2.84-.2-5.48v-13c0-3.25-.53-5.52-1.57-6.8-1.05-1.28-2.86-1.93-5.43-1.93h-3.86v30.46h-11.17v-71.07h-.01ZM924.93,749.02c2.23,0,3.91-.57,5.03-1.73,1.12-1.15,1.68-3.08,1.68-5.79v-5.48c0-2.57-.46-4.43-1.37-5.58s-2.35-1.73-4.31-1.73h-5.08v20.31h4.06-.01Z"/>
      </g>
    </g>
    <g class="st1">
      <g class="st1">
        <path class="st2" d="M623.67,663.25h9.05l4.03,28.87h.12l4.03-28.87h9.05v40.34h-5.99v-30.54h-.12l-4.61,30.54h-5.3l-4.61-30.54h-.12v30.54h-5.53v-40.34h0Z"/>
        <path class="st2" d="M659.58,663.25h8.59l6.57,40.34h-6.34l-1.15-8.01v.12h-7.2l-1.15,7.9h-5.88l6.57-40.34h0ZM666.49,690.22l-2.82-19.94h-.12l-2.77,19.94h5.71Z"/>
        <path class="st2" d="M677.79,663.25h7.95l6.17,24.15h.12v-24.15h5.65v40.34h-6.51l-7.61-29.45h-.12v29.45h-5.65v-40.34Z"/>
        <path class="st2" d="M702.39,663.25h6.34v40.34h-6.34v-40.34Z"/>
        <path class="st2" d="M713.46,663.25h16.77v5.76h-10.43v11.24h8.18v5.76h-8.18v17.58h-6.34v-40.34Z"/>
        <path class="st2" d="M733.28,663.25h17.29v5.76h-10.95v10.66h8.7v5.76h-8.7v12.39h10.95v5.76h-17.29v-40.34h0Z"/>
        <path class="st2" d="M755.58,701.54c-1.58-1.75-2.36-4.25-2.36-7.52v-2.31h5.99v2.77c0,2.61,1.1,3.92,3.29,3.92,1.08,0,1.89-.32,2.45-.95s.84-1.66.84-3.08c0-1.69-.38-3.18-1.15-4.47s-2.19-2.83-4.27-4.64c-2.61-2.31-4.44-4.39-5.47-6.25-1.04-1.86-1.56-3.97-1.56-6.31,0-3.19.81-5.66,2.42-7.41s3.96-2.62,7.03-2.62,5.33.87,6.89,2.62,2.33,4.26,2.33,7.52v1.67h-5.99v-2.07c0-1.38-.27-2.39-.81-3.03-.54-.63-1.33-.95-2.36-.95-2.11,0-3.17,1.29-3.17,3.86,0,1.46.39,2.82,1.18,4.09s2.22,2.8,4.29,4.61c2.65,2.3,4.48,4.4,5.48,6.28s1.5,4.09,1.5,6.63c0,3.3-.82,5.84-2.45,7.61-1.63,1.77-4,2.65-7.12,2.65s-5.4-.87-6.97-2.62h-.01Z"/>
        <path class="st2" d="M780.71,669.01h-6.63v-5.76h19.59v5.76h-6.63v34.58h-6.34v-34.58h.01Z"/>
        <path class="st2" d="M798.98,663.25h8.59l6.57,40.34h-6.34l-1.15-8.01v.12h-7.2l-1.15,7.9h-5.88l6.57-40.34h0ZM805.89,690.22l-2.82-19.94h-.12l-2.77,19.94h5.71Z"/>
        <path class="st2" d="M819.5,669.01h-6.63v-5.76h19.59v5.76h-6.63v34.58h-6.34v-34.58h.01Z"/>
        <path class="st2" d="M835.52,663.25h6.34v40.34h-6.34v-40.34Z"/>
        <path class="st2" d="M848.6,701.52c-1.65-1.77-2.48-4.26-2.48-7.49v-21.21c0-3.23.83-5.72,2.48-7.49,1.65-1.77,4.04-2.65,7.15-2.65s5.49.88,7.15,2.65c1.65,1.77,2.48,4.26,2.48,7.49v21.21c0,3.23-.83,5.72-2.48,7.49-1.65,1.77-4.03,2.65-7.15,2.65s-5.49-.88-7.15-2.65ZM859.03,694.43v-22.01c0-2.65-1.1-3.98-3.29-3.98s-3.29,1.33-3.29,3.98v22.01c0,2.65,1.1,3.98,3.29,3.98s3.29-1.33,3.29-3.98Z"/>
        <path class="st2" d="M869.63,663.25h7.95l6.17,24.15h.12v-24.15h5.65v40.34h-6.51l-7.61-29.45h-.12v29.45h-5.65v-40.34Z"/>
      </g>
    </g>
  </g>
  <g>
    <g>
      <path class="st3" d="M46.61,85.74c-.41-1.05-.61-2.73-.61-5.04,0-3.41.48-6.65,1.46-9.72.24-.76.62-1.32,1.16-1.67.54-.35,1.29-.53,2.26-.53.52,0,.89.07,1.1.2.21.13.31.38.31.75,0,.42-.2,1.36-.59,2.83-.26,1.05-.47,1.96-.63,2.73-.16.77-.29,1.74-.39,2.89.71-2.05,1.55-3.78,2.54-5.19s1.99-2.47,3.03-3.17c1.04-.69,2.01-1.04,2.93-1.04s1.57.21,1.95.63c.38.42.57,1.06.57,1.93s-.25,2.36-.75,4.56c-.21.94-.35,1.65-.43,2.12,1.31-3.23,2.77-5.57,4.37-7.04,1.6-1.47,3.09-2.2,4.49-2.2,1.71,0,2.56.85,2.56,2.56,0,1.02-.29,2.87-.87,5.55-.5,2.28-.75,3.79-.75,4.52,0,1.05.38,1.57,1.14,1.57.52,0,1.15-.32,1.87-.96.72-.64,1.69-1.69,2.89-3.13.31-.37.67-.55,1.06-.55.34,0,.61.16.81.47.2.31.3.75.3,1.3,0,1.05-.25,1.86-.75,2.44-1.13,1.39-2.34,2.53-3.64,3.42-1.3.89-2.77,1.34-4.43,1.34-1.34,0-2.35-.39-3.03-1.16-.68-.77-1.02-1.9-1.02-3.36,0-.73.18-2.05.55-3.93.34-1.65.51-2.79.51-3.42,0-.42-.14-.63-.43-.63-.34,0-.83.44-1.46,1.32-.63.88-1.26,2.04-1.89,3.48-.63,1.44-1.14,2.96-1.54,4.56-.29,1.26-.62,2.1-1,2.52-.38.42-.99.63-1.83.63s-1.51-.41-1.95-1.24c-.43-.83-.65-1.83-.65-3.01,0-1,.13-2.44.39-4.33.21-1.68.32-2.78.32-3.3,0-.42-.14-.63-.43-.63-.39,0-.89.47-1.5,1.42s-1.19,2.15-1.75,3.62c-.56,1.47-1.02,2.91-1.36,4.33-.29,1.23-.62,2.07-1,2.5-.38.43-.98.65-1.79.65-1,0-1.7-.52-2.11-1.57Z"/>
      <path class="st3" d="M76.31,85.51c-.77-1.21-1.16-2.81-1.16-4.8,0-1.18.15-2.69.45-4.54.3-1.85.69-3.57,1.16-5.17.24-.84.55-1.42.94-1.73.39-.31,1.02-.47,1.89-.47,1.34,0,2.01.45,2.01,1.34,0,.66-.25,2.18-.75,4.56-.63,2.89-.94,4.84-.94,5.86,0,.79.1,1.39.31,1.81.21.42.56.63,1.06.63.47,0,1.06-.33,1.77-.98s1.65-1.69,2.83-3.11c.31-.37.67-.55,1.06-.55.34,0,.61.16.81.47.2.31.3.75.3,1.3,0,1.05-.25,1.86-.75,2.44-2.6,3.17-5.02,4.76-7.28,4.76-1.71,0-2.94-.6-3.72-1.81ZM77.87,65.42c-.55-.51-.83-1.23-.83-2.14s.36-1.69,1.08-2.3c.72-.62,1.62-.92,2.7-.92.97,0,1.76.24,2.36.71.6.47.9,1.14.9,2.01,0,1.05-.34,1.88-1.02,2.5-.68.62-1.59.92-2.71.92s-1.93-.26-2.48-.77Z"/>
      <path class="st3" d="M85.56,85.74c-.41-1.05-.61-2.73-.61-5.04,0-3.41.49-6.65,1.46-9.72.24-.76.62-1.32,1.16-1.67.54-.35,1.29-.53,2.26-.53.52,0,.89.07,1.1.2.21.13.32.38.32.75,0,.42-.2,1.36-.59,2.83-.26,1.05-.47,1.97-.63,2.75-.16.79-.29,1.76-.39,2.91.87-2.26,1.84-4.09,2.91-5.51,1.08-1.42,2.13-2.43,3.17-3.03,1.04-.6,1.99-.91,2.85-.91,1.7,0,2.56.85,2.56,2.56,0,1.02-.29,2.87-.87,5.55-.5,2.28-.75,3.79-.75,4.52,0,1.05.38,1.57,1.14,1.57.52,0,1.15-.32,1.87-.96.72-.64,1.68-1.69,2.89-3.13.32-.37.67-.55,1.06-.55.34,0,.61.16.81.47.2.31.29.75.29,1.3,0,1.05-.25,1.86-.75,2.44-1.13,1.39-2.34,2.53-3.64,3.42-1.3.89-2.77,1.34-4.43,1.34-1.34,0-2.35-.39-3.03-1.16-.68-.77-1.02-1.9-1.02-3.36,0-.73.18-2.05.55-3.93.34-1.65.51-2.79.51-3.42,0-.42-.14-.63-.43-.63-.34,0-.82.44-1.44,1.32-.62.88-1.25,2.04-1.89,3.48-.64,1.44-1.16,2.96-1.55,4.56-.29,1.23-.62,2.07-1,2.5-.38.43-.98.65-1.79.65-1,0-1.7-.52-2.1-1.57Z"/>
      <path class="st3" d="M127.03,78.82c.2.31.29.75.29,1.3,0,1.05-.25,1.86-.75,2.44-1.21,1.39-2.45,2.53-3.72,3.42-1.27.89-2.72,1.34-4.35,1.34-1.34,0-2.35-.39-3.03-1.16-.68-.77-1.02-1.9-1.02-3.36,0-.73.18-2.05.55-3.93.34-1.65.51-2.79.51-3.42,0-.42-.14-.63-.43-.63-.34,0-.83.44-1.46,1.32-.63.88-1.26,2.04-1.89,3.48-.63,1.44-1.14,2.96-1.53,4.56-.5,2.1-1.73,3.15-3.7,3.15-.79,0-1.31-.28-1.55-.85-.25-.56-.37-1.58-.37-3.05,0-.84.01-1.51.04-2.01l.04-3.15c0-4.04.41-8.25,1.24-12.63.83-4.38,2.05-8.06,3.66-11.04,1.61-2.98,3.55-4.47,5.8-4.47,1.21,0,2.18.52,2.93,1.55.75,1.04,1.12,2.38,1.12,4.03,0,2.65-.77,5.4-2.32,8.24-1.55,2.85-4.07,6.17-7.55,9.97-.08,1.36-.12,2.77-.12,4.21.87-2.23,1.83-4.05,2.89-5.45,1.06-1.4,2.11-2.41,3.15-3.01,1.04-.6,1.99-.91,2.85-.91,1.71,0,2.56.85,2.56,2.56,0,1.02-.29,2.87-.87,5.55-.5,2.28-.75,3.79-.75,4.52,0,1.05.38,1.57,1.14,1.57.52,0,1.15-.32,1.87-.96.72-.64,1.69-1.69,2.89-3.13.32-.37.67-.55,1.06-.55.34,0,.61.16.81.47ZM112.96,56.06c-.58,1.35-1.13,3.17-1.67,5.47-.54,2.3-.98,4.79-1.32,7.5,1.63-1.91,2.97-4,4.03-6.26s1.59-4.3,1.59-6.14c0-.84-.09-1.48-.28-1.93-.18-.45-.45-.67-.79-.67-.47,0-1,.68-1.57,2.03Z"/>
      <path class="st3" d="M125.02,85.54c-.93-1.18-1.4-2.73-1.4-4.64,0-2.1.49-4.08,1.46-5.96.97-1.88,2.26-3.38,3.88-4.52,1.61-1.14,3.33-1.71,5.13-1.71.58,0,.96.11,1.16.33.2.22.36.62.49,1.2.5-.1,1.05-.16,1.65-.16s1.12.16,1.46.47c.34.31.51.76.51,1.34s-.13,1.65-.39,3.15c-.29,1.6-.51,3.13-.67,4.58-.16,1.46-.24,3.09-.24,4.9,0,1-.2,1.71-.61,2.14-.41.43-1.07.65-1.99.65s-1.55-.22-1.99-.65c-.43-.43-.65-1.13-.65-2.1l.04-.63c-.81,2.26-2.22,3.38-4.21,3.38-1.5,0-2.71-.59-3.64-1.77ZM132.2,81.81c.6-1.02,1.14-2.85,1.61-5.47l.75-3.97c-1.08.03-2.07.44-2.99,1.24-.92.8-1.65,1.86-2.2,3.17-.55,1.31-.83,2.7-.83,4.17,0,.79.15,1.38.45,1.79.3.41.7.61,1.2.61.73,0,1.4-.51,2.01-1.53Z"/>
    </g>
    <g>
      <path class="st3" d="M109.56,185.5c-1.05-.13-1.77-.41-2.16-.83-.39-.42-.56-1.1-.51-2.05.18-2.6.62-5.8,1.3-9.62.68-3.82,1.51-7.5,2.48-11.04.18-.66.55-1.11,1.1-1.38.55-.26,1.27-.39,2.16-.39,1.6,0,2.4.45,2.4,1.34,0,.37-.08.79-.24,1.26-.68,2.1-1.36,4.91-2.05,8.44-.68,3.53-1.17,6.89-1.46,10.09.79.08,1.68.12,2.68.12,4.59,0,8.02-1.39,10.29-4.17,2.27-2.78,3.4-6.49,3.4-11.13,0-3.12-.89-5.53-2.68-7.24-1.78-1.7-4.3-2.56-7.55-2.56-2.1,0-4.18.33-6.24.98-2.06.66-3.92,1.52-5.57,2.6-.34.24-.71.35-1.1.35-.45,0-.8-.19-1.06-.57-.26-.38-.39-.85-.39-1.4,0-.63.1-1.15.31-1.55.21-.41.56-.78,1.06-1.12,1.81-1.23,3.93-2.17,6.37-2.81s4.79-.96,7.04-.96c3.2,0,5.97.56,8.3,1.67,2.33,1.12,4.13,2.75,5.39,4.9,1.26,2.15,1.89,4.75,1.89,7.79,0,3.96-.79,7.42-2.36,10.37-1.57,2.95-3.87,5.24-6.89,6.87-3.02,1.63-6.61,2.44-10.78,2.44-1.52,0-3.24-.13-5.15-.39Z"/>
      <path class="st3" d="M139.66,161.89c-.34-.26-.51-.68-.51-1.26,0-.24.04-.51.12-.83.29-1.21.5-2.32.65-3.34.14-1.02.22-2.16.22-3.42s.31-2.32.92-3.03c.62-.71,1.41-1.06,2.38-1.06s1.66.26,2.14.77c.48.51.73,1.2.73,2.07,0,.92-.28,2.14-.83,3.66s-1.22,3-2.01,4.45c-.52.97-.94,1.61-1.24,1.93-.3.31-.7.47-1.2.47-.58,0-1.04-.13-1.38-.39Z"/>
    </g>
    <g>
      <g>
        <path id="path23321" data-name="path233" class="st0" d="M267.09,1.61c-26.56,0-48.12,21.56-48.12,48.12,0,54.03,54.51,68.21,91.66,121.63,35.12-53.1,91.65-69.32,91.65-121.63,0-26.56-21.56-48.12-48.13-48.12-19.26,0-35.85,11.38-43.53,27.75-7.68-16.37-24.27-27.75-43.54-27.75Z"/>
        <path class="st3" d="M310.66,174.24l-1.36-1.95c-14.13-20.32-31.09-35.18-46.06-48.29-24.62-21.57-45.89-40.2-45.89-74.26,0-27.42,22.31-49.73,49.74-49.73,18.09,0,34.84,10.03,43.54,25.81,8.69-15.78,25.44-25.81,43.53-25.81,27.43,0,49.74,22.31,49.74,49.73,0,32.47-21.12,51.19-45.58,72.87-15.31,13.57-32.65,28.95-46.34,49.65l-1.31,1.98ZM267.09,3.23c-25.65,0-46.51,20.86-46.51,46.51,0,32.59,20.75,50.77,44.79,71.83,14.63,12.82,31.16,27.3,45.23,46.95,13.7-20.07,30.61-35.05,45.58-48.33,23.87-21.17,44.49-39.44,44.49-70.46,0-25.65-20.87-46.51-46.51-46.51-17.92,0-34.43,10.53-42.07,26.82l-1.46,3.11-1.46-3.11c-7.65-16.29-24.16-26.82-42.08-26.82Z"/>
      </g>
      <path id="path23322" data-name="path233" class="st3" d="M366.85,97.29c-8.55,0-15.5,6.94-15.5,15.5,0,17.4,17.56,21.97,29.52,39.18,11.32-17.1,29.52-22.33,29.52-39.18,0-8.56-6.94-15.5-15.5-15.5-6.2,0-11.55,3.67-14.02,8.94-2.47-5.27-7.82-8.94-14.02-8.94Z"/>
    </g>
    <g>
      <path id="path23323" data-name="path233" class="st0" d="M20.3,166.83c-10.73,0-19.43,8.71-19.43,19.43,0,21.82,22.01,27.55,37.02,49.12,14.18-21.44,37.01-27.99,37.01-49.12,0-10.73-8.7-19.43-19.44-19.43-7.78,0-14.48,4.59-17.58,11.2-3.1-6.61-9.8-11.2-17.58-11.2Z"/>
      <path class="st3" d="M37.9,236.93l-.73-1.05c-5.69-8.18-12.53-14.18-18.57-19.46-9.98-8.75-18.61-16.3-18.61-30.15,0-11.2,9.11-20.3,20.3-20.3,7.25,0,13.98,3.95,17.58,10.2,3.6-6.25,10.32-10.2,17.58-10.2,11.2,0,20.3,9.1,20.3,20.3,0,13.21-8.56,20.8-18.48,29.59-6.17,5.47-13.17,11.67-18.68,20.01l-.71,1.07ZM20.3,167.7c-10.24,0-18.57,8.33-18.57,18.56,0,13.06,7.95,20.03,18.01,28.84,5.86,5.13,12.46,10.92,18.12,18.75,5.52-8,12.28-13.99,18.27-19.3,9.6-8.51,17.89-15.86,17.89-28.29,0-10.24-8.33-18.56-18.57-18.56-7.15,0-13.74,4.2-16.79,10.7l-.79,1.68-.79-1.68c-3.05-6.5-9.65-10.7-16.8-10.7Z"/>
    </g>
    <g>
      <path class="st2" d="M162.15,149.21h15.13l11.57,71.07h-11.17l-2.03-14.11v.2h-12.69l-2.03,13.91h-10.36l11.57-71.07ZM174.33,196.72l-4.98-35.13h-.2l-4.87,35.13h10.05Z"/>
      <path class="st2" d="M194.23,149.21h15.94l7.11,50.87h.2l7.11-50.87h15.94v71.07h-10.56v-53.81h-.2l-8.12,53.81h-9.34l-8.12-53.81h-.2v53.81h-9.75v-71.07Z"/>
      <path class="st2" d="M252.4,216.62c-2.91-3.11-4.37-7.51-4.37-13.2v-37.36c0-5.69,1.45-10.08,4.37-13.2,2.91-3.11,7.11-4.67,12.59-4.67s9.68,1.56,12.59,4.67c2.91,3.11,4.37,7.51,4.37,13.2v37.36c0,5.69-1.46,10.09-4.37,13.2-2.91,3.11-7.11,4.67-12.59,4.67s-9.68-1.56-12.59-4.67ZM270.78,204.13v-38.79c0-4.67-1.93-7-5.79-7s-5.79,2.33-5.79,7v38.79c0,4.67,1.93,7.01,5.79,7.01s5.79-2.33,5.79-7.01Z"/>
      <path class="st2" d="M289.46,149.21h16.55c5.75,0,9.95,1.34,12.59,4.01,2.64,2.67,3.96,6.79,3.96,12.34v4.37c0,7.38-2.44,12.05-7.31,14.01v.2c2.71.81,4.62,2.47,5.74,4.98,1.12,2.5,1.67,5.86,1.67,10.05v12.49c0,2.03.07,3.67.2,4.92.13,1.25.47,2.49,1.02,3.71h-11.37c-.41-1.15-.68-2.23-.81-3.25-.14-1.02-.2-2.84-.2-5.48v-13c0-3.25-.53-5.52-1.57-6.8-1.05-1.29-2.86-1.93-5.43-1.93h-3.86v30.46h-11.17v-71.07ZM304.69,179.67c2.23,0,3.91-.57,5.03-1.73,1.12-1.15,1.67-3.08,1.67-5.79v-5.48c0-2.57-.46-4.43-1.37-5.58-.91-1.15-2.35-1.73-4.31-1.73h-5.08v20.31h4.06Z"/>
      <path class="st2" d="M330.38,149.21h30.46v10.15h-19.29v18.78h15.33v10.15h-15.33v21.83h19.29v10.15h-30.46v-71.07Z"/>
    </g>
    <g>
      <path class="st2" d="M44.25,93.9h9.05l4.03,28.87h.12l4.03-28.87h9.05v40.34h-5.99v-30.54h-.12l-4.61,30.54h-5.3l-4.61-30.54h-.12v30.54h-5.53v-40.34Z"/>
      <path class="st2" d="M80.15,93.9h8.59l6.57,40.34h-6.34l-1.15-8.01v.12h-7.2l-1.15,7.89h-5.88l6.57-40.34ZM87.06,120.87l-2.82-19.94h-.12l-2.77,19.94h5.71Z"/>
      <path class="st2" d="M98.36,93.9h7.95l6.17,24.15h.12v-24.15h5.65v40.34h-6.51l-7.61-29.45h-.12v29.45h-5.65v-40.34Z"/>
      <path class="st2" d="M122.96,93.9h6.34v40.34h-6.34v-40.34Z"/>
      <path class="st2" d="M134.03,93.9h16.77v5.76h-10.43v11.24h8.18v5.76h-8.18v17.58h-6.34v-40.34Z"/>
      <path class="st2" d="M153.85,93.9h17.29v5.76h-10.95v10.66h8.7v5.76h-8.7v12.39h10.95v5.76h-17.29v-40.34Z"/>
      <path class="st2" d="M176.15,132.2c-1.58-1.75-2.36-4.25-2.36-7.52v-2.3h5.99v2.77c0,2.61,1.1,3.92,3.29,3.92,1.08,0,1.89-.32,2.45-.95.56-.63.84-1.66.84-3.08,0-1.69-.38-3.18-1.15-4.47-.77-1.29-2.19-2.83-4.26-4.64-2.61-2.3-4.44-4.39-5.47-6.25-1.04-1.86-1.56-3.97-1.56-6.31,0-3.19.81-5.66,2.42-7.41,1.61-1.75,3.96-2.62,7.03-2.62s5.33.87,6.89,2.62c1.56,1.75,2.33,4.26,2.33,7.52v1.67h-5.99v-2.07c0-1.38-.27-2.39-.81-3.03s-1.33-.95-2.36-.95c-2.11,0-3.17,1.29-3.17,3.86,0,1.46.39,2.82,1.18,4.09.79,1.27,2.22,2.8,4.29,4.61,2.65,2.31,4.48,4.4,5.47,6.28,1,1.88,1.5,4.09,1.5,6.63,0,3.3-.82,5.84-2.45,7.61-1.63,1.77-4.01,2.65-7.12,2.65s-5.4-.87-6.97-2.62Z"/>
      <path class="st2" d="M201.27,99.67h-6.63v-5.76h19.59v5.76h-6.63v34.58h-6.34v-34.58Z"/>
      <path class="st2" d="M219.54,93.9h8.59l6.57,40.34h-6.34l-1.15-8.01v.12h-7.2l-1.15,7.89h-5.88l6.57-40.34ZM226.46,120.87l-2.82-19.94h-.12l-2.77,19.94h5.71Z"/>
      <path class="st2" d="M249.91,107.5v-4.67c0-2.5-1.06-3.75-3.17-3.75s-3.17,1.25-3.17,3.75v22.53c0,2.46,1.06,3.69,3.17,3.69s3.17-1.23,3.17-3.69v-6.17h5.99v5.7c0,2.88-.67,5.18-2.02,6.89-1.34,1.71-3.28,2.7-5.82,2.97v1.73c1.31,0,2.3.21,2.97.63s1.01,1.11,1.01,2.08c0,1.42-.48,2.36-1.44,2.82-.96.46-2.44.69-4.44.69-1.77,0-3.13-.25-4.09-.75s-1.44-1.36-1.44-2.59v-.58h4.26v.46c0,.38.12.67.37.86.25.19.55.29.89.29.54,0,.92-.11,1.15-.32s.35-.57.35-1.07c0-.54-.17-.92-.52-1.15s-.88-.35-1.61-.35h-.29v-2.77c-2.61-.27-4.6-1.25-5.96-2.94s-2.04-4-2.04-6.92v-21.67c0-3.15.8-5.59,2.39-7.32,1.59-1.73,3.91-2.59,6.94-2.59s5.35.86,6.94,2.59c1.59,1.73,2.39,4.17,2.39,7.32v4.26h-5.99Z"/>
      <path class="st2" d="M264.6,93.9h8.59l6.57,40.34h-6.34l-1.15-8.01v.12h-7.2l-1.15,7.89h-5.88l6.57-40.34ZM271.52,120.87l-2.82-19.94h-.12l-2.77,19.94h5.71Z"/>
      <path class="st2" d="M284.72,132.17c-1.65-1.77-2.48-4.26-2.48-7.49v-21.21c0-3.23.83-5.72,2.48-7.49,1.65-1.77,4.03-2.65,7.15-2.65s5.49.88,7.15,2.65c1.65,1.77,2.48,4.26,2.48,7.49v21.21c0,3.23-.83,5.73-2.48,7.49-1.65,1.77-4.03,2.65-7.15,2.65s-5.49-.88-7.15-2.65ZM295.15,125.08v-22.01c0-2.65-1.1-3.98-3.29-3.98s-3.28,1.33-3.28,3.98v22.01c0,2.65,1.09,3.98,3.28,3.98s3.29-1.33,3.29-3.98Z"/>
    </g>
  </g>
</svg>