<?xml version="1.0" encoding="UTF-8"?>
<svg id="Calque_1" xmlns="http://www.w3.org/2000/svg" version="1.1" viewBox="0 0 78.13 73.51">
  <!-- Generator: Adobe Illustrator 30.1.0, SVG Export Plug-In . SVG Version: 2.1.1 Build 136)  -->
  <defs>
    <style>
      .st0 {
        fill: #700b06;
      }

      .st1 {
        fill: #d46f66;
      }
    </style>
  </defs>
  <path id="path23311" class="st0" d="M20.3,3.41C9.57,3.41.87,12.11.87,22.84c0,21.82,22.01,27.55,37.02,49.12,14.18-21.44,37.01-27.99,37.01-49.12,0-10.73-8.7-19.43-19.44-19.43-7.78,0-14.48,4.59-17.58,11.2-3.1-6.61-9.8-11.2-17.58-11.2Z"/>
  <path class="st1" d="M37.9,73.51l-.73-1.05c-5.69-8.18-12.53-14.18-18.57-19.46C8.62,44.24,0,36.69,0,22.84,0,11.65,9.11,2.54,20.3,2.54c7.25,0,13.98,3.95,17.58,10.2,3.6-6.25,10.32-10.2,17.58-10.2,11.2,0,20.3,9.1,20.3,20.3,0,13.21-8.56,20.8-18.48,29.59-6.17,5.47-13.17,11.67-18.68,20.01l-.71,1.07h.01ZM20.3,4.28C10.07,4.28,1.74,12.6,1.74,22.84c0,13.06,7.95,20.03,18.01,28.84,5.86,5.13,12.46,10.92,18.12,18.75,5.52-8,12.28-13.99,18.27-19.3,9.6-8.51,17.89-15.86,17.89-28.29,0-10.24-8.33-18.56-18.57-18.56-7.15,0-13.74,4.2-16.79,10.7l-.79,1.68-.79-1.68c-3.05-6.5-9.65-10.7-16.8-10.7h.01Z"/>
</svg>