<svg xmlns="http://www.w3.org/2000/svg"  viewBox="0 0 148.213 44.985"><path class='textlogo' d="M0 44.516v-41.643h18.417c1.915 0 3.685.401 5.308 1.202 1.623.802 3.021 1.858 4.194 3.167 1.173 1.311 2.091 2.796 2.757 4.458.664 1.662.997 3.334.997 5.015 0 2.698-.675 5.152-2.023 7.361-1.349 2.209-3.178 3.803-5.484 4.78l9.502 15.66h-9.091l-8.504-13.959h-7.979v13.959h-8.094zm8.094-21.057h10.147c.743 0 1.437-.176 2.083-.528.645-.352 1.202-.831 1.671-1.437.469-.606.84-1.32 1.114-2.141.273-.821.411-1.701.411-2.639 0-.977-.157-1.877-.469-2.698-.313-.821-.733-1.534-1.261-2.141-.528-.605-1.135-1.075-1.818-1.408-.685-.332-1.378-.499-2.082-.499h-9.796v13.491zm100.061-9.677c-.274-.273-.772-.645-1.496-1.114-.724-.469-1.604-.929-2.64-1.378-1.037-.449-2.161-.831-3.373-1.144-1.212-.312-2.444-.469-3.695-.469-2.229 0-3.891.41-4.985 1.231-1.095.821-1.643 1.975-1.643 3.46 0 .861.206 1.575.616 2.141.411.567 1.006 1.065 1.789 1.496.782.431 1.769.821 2.962 1.173 1.192.352 2.571.724 4.135 1.114 2.033.548 3.88 1.135 5.542 1.76 1.662.626 3.069 1.408 4.223 2.346 1.153.938 2.042 2.063 2.668 3.373.625 1.311.938 2.923.938 4.839 0 2.229-.42 4.135-1.261 5.718-.841 1.584-1.975 2.865-3.402 3.842-1.428.978-3.07 1.692-4.927 2.141-1.857.449-3.803.674-5.836.674-3.128 0-6.217-.469-9.267-1.408-3.05-.938-5.787-2.267-8.211-3.988l3.578-6.979c.352.352.987.812 1.906 1.378.918.567 2.003 1.135 3.255 1.701 1.25.567 2.639 1.046 4.164 1.437s3.088.586 4.692.586c4.458 0 6.686-1.427 6.686-4.282 0-.899-.254-1.661-.762-2.287-.509-.625-1.232-1.173-2.17-1.643s-2.073-.899-3.402-1.29c-1.33-.391-2.815-.821-4.458-1.291-1.994-.547-3.724-1.144-5.19-1.789-1.466-.645-2.689-1.408-3.666-2.287-.978-.88-1.711-1.896-2.199-3.05-.49-1.153-.733-2.531-.733-4.135 0-2.111.391-3.988 1.173-5.631.782-1.642 1.867-3.01 3.255-4.105 1.388-1.094 3-1.925 4.839-2.493 1.837-.566 3.812-.851 5.924-.851 2.933 0 5.631.46 8.094 1.378 2.463.919 4.613 2.004 6.452 3.255l-3.575 6.571zm40.058 23.636v7.097h-28.916v-41.642h28.388v7.097h-20.294v10.03h17.537v6.569h-17.537v10.851h20.822z"/>
<g fill-rule="evenodd" clip-rule="evenodd">
<path class="corps tomate" d="M60.81 16.847c-.056-.118-.11-.237-.086-.374l.003-.005.097-.125.011.006-.003-.012c.468-.45.976-.844 1.537-1.178.411-.243.821-.479 1.256-.677.811-.37 1.65-.637 2.529-.784 1.146-.193 2.294-.221 3.435.015.937.194 1.846.464 2.699.934.624.344 1.252.67 1.81 1.117.871.699 1.603 1.523 2.238 2.441.722 1.042 1.207 2.182 1.529 3.403.44 1.667.546 3.361.417 5.07-.094 1.252-.352 2.476-.734 3.677-.543 1.708-1.315 3.3-2.318 4.781-1.305 1.928-2.934 3.537-4.831 4.879-1.715 1.213-3.58 2.134-5.562 2.812-2.005.687-4.068 1.102-6.185 1.267-1.943.151-3.872.081-5.8-.193-1.662-.236-3.285-.625-4.856-1.206-3.86-1.427-7.126-3.674-9.558-7.046-1.18-1.635-2.047-3.426-2.63-5.349-.424-1.398-.675-2.831-.773-4.296-.127-1.877.077-3.712.602-5.507.457-1.565 1.174-3.01 2.179-4.309 1.48-1.915 3.358-3.285 5.588-4.203 1.284-.529 2.624-.785 3.992-.975 1.612-.223 3.171.019 4.721.393.449.108.904.243 1.313.48.081.047.164.083.208.168-1.178-.063-2.351-.151-3.537-.062-1.228.093-2.401.371-3.507.872-2.195.997-4.008 2.465-5.257 4.566-.565.949-.99 1.958-1.285 3.021-.097.066-.117.156-.079.263l-.044.293c-.23.22-.118.48-.088.736.057-.303.337-.525.289-.857.65-1.883 1.681-3.521 3.165-4.857 1.175-1.058 2.499-1.863 4.012-2.374 1.56-.526 3.144-.842 4.791-.749 1.524.086 2.969.486 4.381 1.076 1.371.573 2.516 1.433 3.56 2.458.26.256.498.534.745.802l-.008.023.024.005.095.128c.036.142.108.257.247.321l.053.093c.076.227.257.365.447.5-.191-.454-.324-.936-.684-1.301l-.045-.06-.007-.003-.088-.09.01-.012-.018.004z"/>
<path class="queue"  d="M54.366 3.235c.022-.225.179-.326.313-.44.329-.281.7-.507 1.117-.607.925-.222 1.437.049 1.879.922.735 1.452 1.152 2.996 1.407 4.596.083.524.016 1.059.14 1.613.265-.305.365-.663.524-.985.734-1.486 1.813-2.677 3.13-3.659.931-.695 1.893-1.348 2.831-2.031.406-.295.74-.667 1.013-1.092.277-.433.338-.864.05-1.315-.04-.062-.148-.131-.064-.206.094-.084.164.031.228.084.457.385.592.893.505 1.459-.161 1.048-.794 1.809-1.555 2.487-.775.693-1.611 1.315-2.335 2.067-1.069 1.112-1.864 2.377-2.258 3.885-.128.491-.262.977-.351 1.477-.043.241.029.307.242.342 1.211.2 2.394.1 3.557-.289 1.713-.573 3.063-1.595 3.961-3.181.39-.69.609-1.438.709-2.284.106.231.143.414.146.609.03 2.018-.872 3.59-2.311 4.925-1.139 1.056-2.535 1.638-3.927 2.246-.562.246-1.13.475-1.675.772-.426.233-.801.506-1.171.803-.103.083-.197.104-.293-.005-.909-1.041-2.119-1.656-3.277-2.353-1.165-.701-2.34-1.405-3.286-2.402-.678-.715-1.245-1.525-1.82-2.325-.715-.992-1.389-2.014-2.193-2.938-.638-.732-1.388-1.321-2.352-1.506-1.128-.217-2.021.036-2.782 1.182-.042.063-.046.164-.176.167-.034-.274.13-.482.25-.687.659-1.12 1.675-1.519 2.931-1.401 1.337.124 2.389.818 3.348 1.689.991.901 1.812 1.958 2.667 2.98.715.854 1.458 1.674 2.443 2.231.303.172.618.336.957.387.314.047.452.182.458.485l.052.294c.24-.818.172-1.591.023-2.344-.241-1.226-.77-2.331-1.597-3.279-.422-.485-.88-.933-1.441-1.26-.052-.03-.13-.053-.101-.128.035-.089.135-.084.213-.086.473-.013.931-.108 1.374-.269.336-.121.659-.271.914-.533.164-.169.285-.361.199-.603-.092-.255-.327-.338-.563-.348-.61-.024-1.15.193-1.642.544l-.411.31z"/>
<path class="corps tomate"  d="M62.39 11.7c-.306-.019-.611-.03-.915-.06-.237-.023-.321-.131-.254-.396.142-.551.272-1.105.438-1.649.084-.274.195-.43.537-.459 1.638-.136 3.232.07 4.799.537.234.069.25.178.04.359-.567.488-1.211.858-1.904 1.129-.879.344-1.79.547-2.741.539zm8.436 1.525c-.159-.027-.325-.029-.472-.109-.059-.08-.146-.046-.222-.054-1.036-.184-2.08-.267-3.133-.218-.325.016-.649.038-.975.086-.018-.135.06-.187.149-.244.905-.569 1.68-1.284 2.314-2.143.154-.208.319-.231.52-.125.76.399 1.522.802 2.188 1.348.287.236.606.437.856.716.114.214.175.433.068.67l.004.09c.027.269-.038.328-.297.249-.328-.103-.644-.263-1-.266z"/>
<path class="queue"  d="M43.519 9.163l.804.219c1.204.256 2.417.172 3.628.121 1.212-.05 2.415-.231 3.628-.263.394-.01.692.099.927.459.258.398.584.756.927 1.092.059.058.134.116.092.206-.055.118-.153.054-.239.037l-1.471-.401c-.783-.157-1.571-.259-2.363-.28-1.245-.033-2.488-.086-3.725-.215-.802-.084-1.578-.312-2.265-.77-.057-.038-.147-.058-.121-.15.021-.073.099-.048.178-.055zm27.307 4.062c.356.003.672.164 1.002.265.259.08.324.021.297-.249l-.004-.09c.106-.238.046-.457-.068-.67.255.162.404.424.608.635l-.138.044c-.132.198-.011.63.199.745l.368.209c.077.039.175.123.248.046.095-.098-.021-.188-.074-.259-.161-.213-.373-.388-.475-.645.352.273.562.663.825 1.008.045.059.067.138.02.2-.073.094-.122-.01-.176-.04-.372-.208-.73-.447-1.117-.621-.405-.182-.837-.302-1.258-.448-.092-.031-.207-.017-.257-.13zm2.562 1.036l.053.023.016-.019-.032-.029-.037.025z"/>
<path class="corps tomate"  d="M72.79 13.257c.102.256.313.432.475.645.054.071.169.161.074.259-.073.076-.171-.007-.248-.046l-.368-.209c-.21-.115-.331-.547-.199-.745l.138-.044.128.14z"/>
<path  class="queue"  d="M61.14 17.719c-.139-.063-.211-.179-.247-.321l.073.023c.052.05.082.169.177.089.062-.053-.013-.129-.038-.189-.045-.105-.17-.172-.148-.31.359.365.492.847.684 1.301-.19-.135-.371-.273-.447-.5.053-.025.12-.041.104-.123l-.072-.08-.086.11zm-21.012 3.167c.048.333-.232.555-.289.857-.03-.256-.143-.516.088-.736.042.104.085.156.142.008l.059-.129zm-.157-.172c-.038-.107-.018-.197.079-.263.024.103-.014.187-.079.263zm30.161-7.653c.076.008.163-.025.222.054-.097.073-.165.032-.222-.054zm-26.851-3.957l-.049.042-.073-.039.042-.036.08.033zm17.529 7.743l.017-.001-.01.012zm.095.101l.007.004-.012.01zm-.178-.479l-.003.005-.016-.008zm.051.775h.025v.025h-.025zm.054-.906l.002.013-.01-.007-.003-.011z"/>
<path  class="queue"  d="M61.14 17.719l.085-.11.072.08c.016.082-.052.098-.104.123l-.053-.093z"/>
<path  class="corps tomate"  d="M73.388 14.261l.036-.025.032.029-.016.019-.052-.023z"/></g>
</svg>