<?xml version="1.0" encoding="utf-8"?>
<!-- Generator: Adobe Illustrator 27.8.0, SVG Export Plug-In . SVG Version: 6.00 Build 0)  -->
<svg version="1.1" xmlns="http://www.w3.org/2000/svg" xmlns:xlink="http://www.w3.org/1999/xlink" x="0px" y="0px"
	 viewBox="0 0 311.2 146.1" style="enable-background:new 0 0 311.2 146.1;" xml:space="preserve">
<style type="text/css">
	.st0{fill:#0C000B;}
	<!-- .st1{fill:#400D3C;} -->
	.st2{fill:#F9F9F9;}
	.st3{fill:#FFFFFF;}
</style>
<g id="Calque_2">
</g>
<g id="Calque_4">
	<path class="st0" d="M0,0v146.1h311.2V0H0z M145,127.6c21.7,0,40.5-12.7,49.5-31c0.4,0,0.8,0,1.2,0c2.4,0,4.7-0.4,6.8-1
		c-9.2,22.8-31.5,39-57.5,39c-34.2,0-62-27.8-62-62c0-34.2,27.8-62,62-62c26.7,0,49.5,16.9,58.2,40.6c-2.3-0.8-4.9-1.2-7.5-1.2
		c-0.2,0-0.4,0-0.6,0c-8.6-19.1-27.8-32.4-50.1-32.4c-30.3,0-55,24.7-55,55S114.7,127.6,145,127.6z"/>
	<path id="lit" fill="url(#pattern)" class="st1" d="M47.8,135c-21.1,0-38.3-17.2-38.3-38.3c0-21.1,17.2-38.3,38.3-38.3c21.1,0,38.3,17.2,38.3,38.3
		C86.1,117.8,68.9,135,47.8,135z M47.8,62.7c-18.7,0-34,15.2-34,34s15.2,34,34,34s34-15.2,34-34S66.5,62.7,47.8,62.7z"/>
		        <animate attributeType="XML" attributeName="x" from="0" to="150%" dur="7s" repeatCount="indefinite"></animate>

	<g>
		<path class="st2" d="M221.2,120.6v-13.7l-2.4-0.1c-0.1,0-0.2,0-0.2-0.1v-0.1h2.6v-2.2c0-0.8,0.1-1.6,0.3-2.2
			c0.2-0.6,0.5-1.1,0.8-1.5c0.4-0.4,0.8-0.7,1.3-0.9c0.5-0.2,1-0.3,1.6-0.3c0.3,0,0.6,0,0.9,0.1s0.6,0.1,0.8,0.2l0,0.1
			c0,0.1-0.1,0.1-0.1,0.1c-0.1,0-0.3,0-0.5-0.1c-0.2-0.1-0.6-0.1-1-0.1c-0.5,0-1,0.1-1.4,0.2c-0.4,0.2-0.8,0.4-1.2,0.8
			c-0.3,0.4-0.6,0.8-0.8,1.4c-0.2,0.6-0.3,1.3-0.3,2.1v2.2h5.2v0.3h-5.2v13.7L221.2,120.6L221.2,120.6z"/>
		<path class="st3" d="M221.7,120.7h-0.6V107l-2.3-0.1c-0.3,0-0.3-0.2-0.3-0.2v-0.2h2.6v-2.1c0-0.8,0.1-1.6,0.3-2.2
			c0.2-0.6,0.5-1.1,0.9-1.6c0.4-0.4,0.8-0.7,1.3-0.9c0.7-0.3,1.6-0.4,2.6-0.2c0.3,0.1,0.6,0.1,0.8,0.3l0.1,0L227,100
			c0,0.1-0.1,0.2-0.2,0.2c-0.1,0-0.3,0-0.5-0.1c-0.2-0.1-0.6-0.1-1-0.1c-0.5,0-1,0.1-1.4,0.2c-0.4,0.2-0.8,0.4-1.1,0.8
			c-0.3,0.3-0.6,0.8-0.7,1.4c-0.2,0.6-0.3,1.3-0.3,2.1v2.1h5.2v0.5h-5.2V120.7z M221.3,120.4h0.1v-13.7h5.2v0h-5.2v-2.4
			c0-0.8,0.1-1.6,0.3-2.2c0.2-0.6,0.5-1.1,0.8-1.5c0.3-0.4,0.7-0.7,1.2-0.8c0.5-0.2,1-0.3,1.5-0.3c0.5,0,0.8,0,1.1,0.1
			c0.3,0.1,0.4,0.1,0.5,0.1l0,0c-0.2-0.1-0.4-0.2-0.7-0.2c-0.9-0.2-1.7-0.1-2.4,0.2c-0.5,0.2-0.9,0.5-1.2,0.9
			c-0.3,0.4-0.6,0.9-0.8,1.5c-0.2,0.6-0.3,1.3-0.3,2.1v2.4h-2.1l2.1,0V120.4z"/>
	</g>
	<g>
		<path class="st2" d="M231.7,105.9v9.4c0,0.8,0.1,1.5,0.3,2.2c0.2,0.6,0.5,1.2,0.8,1.6s0.8,0.8,1.4,1c0.6,0.2,1.2,0.4,2,0.4
			c1.1,0,2.2-0.3,3.2-0.9c1-0.6,1.8-1.4,2.5-2.5v-11.1h0.4v14.6h-0.1c-0.1,0-0.2-0.1-0.2-0.2l-0.1-2.8c-0.3,0.5-0.7,1-1.1,1.4
			c-0.4,0.4-0.9,0.8-1.4,1c-0.5,0.3-1,0.5-1.5,0.7c-0.5,0.2-1.1,0.2-1.7,0.2c-1.6,0-2.8-0.5-3.6-1.4s-1.2-2.3-1.2-4v-9.4
			L231.7,105.9L231.7,105.9z"/>
		<path class="st3" d="M236.2,120.9c-1.7,0-2.9-0.5-3.7-1.5c-0.8-1-1.2-2.4-1.2-4.1v-9.5h0.6v9.5c0,0.8,0.1,1.5,0.3,2.2
			c0.2,0.6,0.4,1.2,0.8,1.6c0.4,0.4,0.8,0.8,1.3,1c0.5,0.2,1.2,0.3,1.9,0.3c1.1,0,2.2-0.3,3.1-0.9c0.9-0.6,1.8-1.4,2.5-2.5v-11.2
			h0.6v14.9h-0.2c-0.2,0-0.3-0.1-0.3-0.4l-0.1-2.4c-0.3,0.4-0.6,0.7-0.9,1.1c-0.4,0.4-0.9,0.8-1.4,1.1c-0.5,0.3-1,0.5-1.6,0.7
			C237.3,120.9,236.8,120.9,236.2,120.9z M231.5,106.1v9.2c0,1.7,0.4,3,1.2,4c0.8,0.9,2,1.4,3.5,1.4c0.6,0,1.1-0.1,1.6-0.2
			c0.5-0.2,1-0.4,1.5-0.6c0.5-0.3,0.9-0.6,1.3-1c0.4-0.4,0.8-0.8,1.1-1.3l0.2-0.3l0.1,3.2c0,0.1,0,0.1,0,0.1v-14.4H242v11l0,0
			c-0.7,1.1-1.6,1.9-2.6,2.6c-1,0.6-2.1,0.9-3.2,0.9c-0.8,0-1.5-0.1-2-0.4c-0.6-0.2-1.1-0.6-1.4-1.1c-0.4-0.5-0.7-1-0.9-1.7
			c-0.2-0.6-0.3-1.4-0.3-2.2v-9.2H231.5z"/>
	</g>
	<g>
		<path class="st2" d="M257.1,107.2c0,0.1-0.1,0.1-0.1,0.1c-0.1,0-0.2-0.1-0.4-0.2c-0.2-0.1-0.4-0.3-0.7-0.4
			c-0.3-0.2-0.7-0.3-1.1-0.5c-0.4-0.1-1-0.2-1.7-0.2c-0.6,0-1.2,0.1-1.7,0.3c-0.5,0.2-1,0.4-1.3,0.8s-0.7,0.7-0.9,1.1
			s-0.3,0.8-0.3,1.3c0,0.5,0.1,1,0.4,1.3c0.2,0.4,0.6,0.7,1,0.9c0.4,0.2,0.9,0.5,1.4,0.6c0.5,0.2,1,0.3,1.6,0.5s1.1,0.3,1.6,0.5
			c0.5,0.2,1,0.4,1.4,0.7c0.4,0.3,0.7,0.6,1,1c0.2,0.4,0.4,0.9,0.4,1.5s-0.1,1.2-0.3,1.7c-0.2,0.5-0.5,1-0.9,1.4
			c-0.4,0.4-0.9,0.7-1.5,0.9s-1.3,0.3-2,0.3c-0.5,0-1,0-1.4-0.1c-0.4-0.1-0.8-0.2-1.1-0.4c-0.4-0.1-0.7-0.3-1-0.6s-0.6-0.5-0.9-0.7
			l0.1-0.1c0,0,0.1-0.1,0.1-0.1c0,0,0.1,0,0.1,0c0.1,0,0.2,0.1,0.4,0.3s0.4,0.4,0.8,0.6c0.3,0.2,0.7,0.4,1.2,0.6
			c0.5,0.2,1.1,0.3,1.8,0.3c0.7,0,1.4-0.1,1.9-0.3c0.6-0.2,1-0.5,1.4-0.9c0.4-0.4,0.7-0.8,0.9-1.3c0.2-0.5,0.3-1,0.3-1.6
			c0-0.6-0.1-1-0.4-1.4c-0.2-0.4-0.6-0.7-1-0.9c-0.4-0.3-0.9-0.5-1.4-0.6c-0.5-0.2-1-0.3-1.6-0.5s-1.1-0.3-1.6-0.5
			c-0.5-0.2-1-0.4-1.4-0.7c-0.4-0.3-0.7-0.6-1-1c-0.2-0.4-0.4-0.9-0.4-1.4c0-0.5,0.1-1,0.3-1.4c0.2-0.4,0.5-0.8,0.9-1.2
			c0.4-0.3,0.9-0.6,1.4-0.8c0.6-0.2,1.2-0.3,1.8-0.3c0.8,0,1.6,0.1,2.2,0.3C255.9,106.3,256.5,106.6,257.1,107.2L257.1,107.2z"/>
		<path class="st3" d="M252.8,120.9c-0.5,0-1,0-1.4-0.1c-0.4-0.1-0.8-0.2-1.2-0.4c-0.4-0.2-0.7-0.3-1-0.6c-0.3-0.2-0.6-0.5-0.9-0.7
			l-0.1-0.1l0.2-0.2c0,0,0.1-0.1,0.1-0.1c0,0,0.1,0,0.2,0c0.1,0,0.3,0.1,0.5,0.3c0.2,0.2,0.4,0.3,0.7,0.6c0.3,0.2,0.7,0.4,1.2,0.6
			s1.1,0.2,1.8,0.2c0.7,0,1.3-0.1,1.9-0.3c0.5-0.2,1-0.5,1.4-0.8c0.4-0.3,0.6-0.8,0.8-1.2c0.2-0.5,0.3-1,0.3-1.5
			c0-0.5-0.1-1-0.4-1.3c-0.2-0.4-0.6-0.7-0.9-0.9c-0.4-0.3-0.8-0.5-1.4-0.6c-0.5-0.2-1.1-0.3-1.6-0.5c-0.5-0.2-1.1-0.3-1.6-0.5
			c-0.5-0.2-1-0.4-1.4-0.7c-0.4-0.3-0.8-0.6-1-1c-0.3-0.4-0.4-0.9-0.4-1.5c0-0.5,0.1-1,0.3-1.5c0.2-0.5,0.5-0.9,1-1.2
			c0.4-0.4,0.9-0.6,1.5-0.8c0.6-0.2,1.2-0.3,1.9-0.3c0.8,0,1.6,0.1,2.2,0.3c0.6,0.2,1.3,0.6,1.9,1.1l0.1,0.1l-0.1,0.2
			c-0.1,0.1-0.2,0.1-0.3,0.1c-0.1,0-0.3-0.1-0.4-0.2c-0.1-0.1-0.4-0.3-0.7-0.4c-0.3-0.2-0.6-0.3-1.1-0.4c-0.4-0.1-1-0.2-1.6-0.2
			c-0.6,0-1.2,0.1-1.7,0.3c-0.5,0.2-0.9,0.4-1.3,0.7c-0.4,0.3-0.6,0.7-0.8,1c-0.2,0.4-0.3,0.8-0.3,1.2c0,0.5,0.1,0.9,0.4,1.2
			c0.2,0.3,0.6,0.6,0.9,0.9c0.4,0.2,0.8,0.4,1.4,0.6c0.5,0.2,1,0.3,1.6,0.5c0.5,0.2,1.1,0.3,1.6,0.5c0.5,0.2,1,0.4,1.4,0.7
			c0.4,0.3,0.8,0.6,1,1.1c0.3,0.4,0.4,0.9,0.4,1.6c0,0.6-0.1,1.2-0.3,1.7c-0.2,0.5-0.5,1-1,1.4c-0.4,0.4-0.9,0.7-1.5,1
			C254.3,120.8,253.6,120.9,252.8,120.9z M248.5,119c0.3,0.2,0.5,0.4,0.8,0.6c0.3,0.2,0.6,0.4,1,0.5c0.3,0.1,0.7,0.3,1.1,0.3
			c0.4,0.1,0.9,0.1,1.4,0.1c0.7,0,1.4-0.1,2-0.3c0.6-0.2,1.1-0.5,1.5-0.9c0.4-0.4,0.7-0.8,0.9-1.3c0.2-0.5,0.3-1.1,0.3-1.6
			c0-0.6-0.1-1.1-0.4-1.4c-0.2-0.4-0.6-0.7-0.9-1c-0.4-0.3-0.8-0.5-1.4-0.7c-0.5-0.2-1.1-0.4-1.6-0.5c-0.5-0.2-1.1-0.3-1.6-0.5
			c-0.5-0.2-1-0.4-1.4-0.6c-0.4-0.3-0.8-0.6-1-0.9c-0.3-0.4-0.4-0.8-0.4-1.4c0-0.5,0.1-0.9,0.3-1.3c0.2-0.4,0.5-0.8,0.9-1.1
			c0.4-0.3,0.8-0.6,1.4-0.8s1.1-0.3,1.7-0.3c0.7,0,1.2,0.1,1.7,0.2c0.5,0.1,0.8,0.3,1.1,0.5c0.3,0.2,0.5,0.3,0.7,0.5
			c0.2,0.2,0.3,0.2,0.3,0.2c0,0,0,0,0,0c-0.5-0.5-1.1-0.8-1.7-1c-0.6-0.2-1.3-0.3-2.1-0.3c-0.6,0-1.2,0.1-1.8,0.3
			c-0.5,0.2-1,0.5-1.4,0.8c-0.4,0.3-0.7,0.7-0.9,1.1c-0.2,0.4-0.3,0.9-0.3,1.3c0,0.6,0.1,1,0.4,1.4c0.2,0.4,0.6,0.7,0.9,0.9
			c0.4,0.3,0.8,0.5,1.4,0.7c0.5,0.2,1,0.3,1.6,0.5c0.5,0.2,1.1,0.3,1.6,0.5c0.5,0.2,1,0.4,1.4,0.7c0.4,0.3,0.8,0.6,1,1
			c0.3,0.4,0.4,0.9,0.4,1.5c0,0.6-0.1,1.1-0.3,1.6c-0.2,0.5-0.5,0.9-0.9,1.3c-0.4,0.4-0.9,0.7-1.4,0.9c-0.6,0.2-1.2,0.3-1.9,0.3
			c-0.7,0-1.3-0.1-1.9-0.3c-0.5-0.2-0.9-0.4-1.2-0.6c-0.3-0.2-0.6-0.4-0.8-0.6C248.7,119,248.6,119,248.5,119
			C248.6,119,248.6,119,248.5,119C248.6,119,248.6,119,248.5,119z"/>
	</g>
	<g>
		<path class="st2" d="M265.4,100.5c0,0.2-0.1,0.4-0.3,0.6s-0.4,0.2-0.6,0.2c-0.2,0-0.4-0.1-0.6-0.2c-0.2-0.2-0.2-0.4-0.2-0.6
			c0-0.2,0.1-0.4,0.2-0.6c0.2-0.2,0.4-0.2,0.6-0.2c0.2,0,0.4,0.1,0.6,0.2S265.4,100.3,265.4,100.5z M264.7,105.9v14.6h-0.4v-14.6
			H264.7z"/>
		<path class="st3" d="M264.9,120.7h-0.6v-14.9h0.6V120.7z M264.5,120.4h0.1v-14.4h-0.1V120.4z M264.6,101.4c-0.3,0-0.5-0.1-0.7-0.3
			c-0.2-0.2-0.3-0.4-0.3-0.6c0-0.3,0.1-0.5,0.3-0.7c0.2-0.2,0.4-0.3,0.7-0.3c0.2,0,0.5,0.1,0.7,0.3c0.2,0.2,0.3,0.4,0.3,0.7
			c0,0.2-0.1,0.5-0.3,0.7C265,101.4,264.8,101.4,264.6,101.4z M264.6,99.8c-0.2,0-0.4,0.1-0.5,0.2c-0.1,0.1-0.2,0.3-0.2,0.5
			c0,0.2,0.1,0.3,0.2,0.5c0.3,0.3,0.7,0.3,1,0c0.1-0.1,0.2-0.3,0.2-0.5c0-0.2-0.1-0.4-0.2-0.5C264.9,99.9,264.7,99.8,264.6,99.8z"/>
	</g>
	<g>
		<path class="st2" d="M277.6,105.7c1,0,1.9,0.2,2.7,0.5s1.5,0.9,2,1.5c0.5,0.7,1,1.4,1.2,2.4c0.3,0.9,0.4,2,0.4,3.1
			c0,1.1-0.1,2.2-0.4,3.1c-0.3,0.9-0.7,1.7-1.2,2.4s-1.2,1.2-2,1.5c-0.8,0.4-1.7,0.5-2.7,0.5c-1,0-1.9-0.2-2.7-0.5
			c-0.8-0.4-1.5-0.9-2-1.5c-0.5-0.7-1-1.4-1.2-2.4s-0.4-1.9-0.4-3.1c0-1.1,0.1-2.2,0.4-3.1c0.3-0.9,0.7-1.7,1.2-2.4
			c0.5-0.7,1.2-1.2,2-1.5C275.6,105.9,276.5,105.7,277.6,105.7z M277.6,120.5c1,0,1.9-0.2,2.6-0.5s1.4-0.8,1.9-1.5
			c0.5-0.6,0.9-1.4,1.1-2.3s0.4-1.9,0.4-2.9c0-1.1-0.1-2.1-0.4-2.9c-0.3-0.9-0.6-1.7-1.1-2.3c-0.5-0.6-1.1-1.1-1.9-1.5
			c-0.8-0.4-1.6-0.5-2.6-0.5c-1,0-1.9,0.2-2.6,0.5c-0.8,0.4-1.4,0.8-1.9,1.5s-0.9,1.4-1.1,2.3c-0.3,0.9-0.4,1.9-0.4,2.9
			c0,1.1,0.1,2.1,0.4,2.9c0.3,0.9,0.6,1.6,1.1,2.3c0.5,0.6,1.1,1.1,1.9,1.5S276.6,120.5,277.6,120.5z"/>
		<path class="st3" d="M277.6,120.9c-1,0-2-0.2-2.8-0.5c-0.8-0.4-1.5-0.9-2-1.5c-0.5-0.7-1-1.5-1.3-2.4c-0.3-0.9-0.4-2-0.4-3.1
			c0-1.1,0.1-2.2,0.4-3.1c0.3-0.9,0.7-1.8,1.3-2.4c0.6-0.7,1.2-1.2,2-1.6c0.8-0.4,1.7-0.6,2.8-0.6c1,0,2,0.2,2.8,0.6
			c0.8,0.4,1.5,0.9,2.1,1.6c0.5,0.7,1,1.5,1.3,2.4c0.3,0.9,0.4,2,0.4,3.1c0,1.1-0.1,2.2-0.4,3.1c-0.3,0.9-0.7,1.7-1.3,2.4
			c-0.6,0.7-1.2,1.2-2.1,1.5C279.5,120.7,278.6,120.9,277.6,120.9z M277.6,105.8c-1,0-1.9,0.2-2.7,0.5c-0.8,0.4-1.4,0.9-2,1.5
			c-0.5,0.6-0.9,1.4-1.2,2.3c-0.3,0.9-0.4,1.9-0.4,3.1c0,1.1,0.1,2.1,0.4,3c0.3,0.9,0.7,1.7,1.2,2.3c0.5,0.6,1.2,1.1,2,1.5
			c0.8,0.3,1.7,0.5,2.7,0.5c1,0,1.9-0.2,2.7-0.5c0.8-0.3,1.4-0.8,2-1.5c0.5-0.6,0.9-1.4,1.2-2.3c0.3-0.9,0.4-1.9,0.4-3
			c0-1.1-0.1-2.1-0.4-3.1c-0.3-0.9-0.7-1.7-1.2-2.3c-0.5-0.6-1.2-1.1-2-1.5C279.5,106,278.6,105.8,277.6,105.8z M277.6,120.6
			c-1,0-1.9-0.2-2.7-0.5c-0.8-0.4-1.4-0.9-1.9-1.5c-0.5-0.6-0.9-1.4-1.2-2.3c-0.3-0.9-0.4-1.9-0.4-3s0.1-2.1,0.4-3
			c0.3-0.9,0.6-1.7,1.2-2.3c0.5-0.6,1.2-1.2,1.9-1.5c0.8-0.4,1.7-0.5,2.7-0.5c1,0,1.9,0.2,2.7,0.5c0.8,0.4,1.4,0.9,1.9,1.5
			c0.5,0.6,0.9,1.4,1.2,2.3c0.3,0.9,0.4,1.9,0.4,3s-0.1,2.1-0.4,3c-0.3,0.9-0.6,1.7-1.2,2.3c-0.5,0.6-1.2,1.1-1.9,1.5
			C279.5,120.4,278.6,120.6,277.6,120.6z M277.6,106.1c-1,0-1.8,0.2-2.6,0.5c-0.7,0.3-1.3,0.8-1.8,1.4c-0.5,0.6-0.9,1.4-1.1,2.2
			c-0.2,0.9-0.4,1.9-0.4,2.9s0.1,2,0.4,2.9c0.2,0.9,0.6,1.6,1.1,2.2c0.5,0.6,1.1,1.1,1.8,1.4s1.6,0.5,2.6,0.5c1,0,1.8-0.2,2.6-0.5
			c0.7-0.3,1.4-0.8,1.8-1.4c0.5-0.6,0.9-1.4,1.1-2.2c0.2-0.9,0.4-1.8,0.4-2.9s-0.1-2-0.4-2.9c-0.2-0.9-0.6-1.6-1.1-2.2
			c-0.5-0.6-1.1-1.1-1.8-1.4C279.4,106.3,278.5,106.1,277.6,106.1z"/>
	</g>
	<g>
		<path class="st2" d="M289.9,120.6v-14.6h0.1c0.1,0,0.2,0.1,0.2,0.2l0,2.8c0.3-0.5,0.7-1,1.1-1.4c0.4-0.4,0.9-0.8,1.4-1
			c0.5-0.3,1-0.5,1.5-0.7c0.5-0.2,1.1-0.2,1.7-0.2c1.6,0,2.8,0.5,3.6,1.4s1.2,2.3,1.2,4v9.4h-0.4v-9.4c0-0.8-0.1-1.5-0.3-2.2
			c-0.2-0.6-0.5-1.2-0.8-1.6s-0.8-0.8-1.4-1c-0.6-0.2-1.2-0.4-2-0.4c-1.1,0-2.2,0.3-3.2,0.9c-1,0.6-1.8,1.5-2.5,2.5v11.1
			C290.3,120.6,289.9,120.6,289.9,120.6z"/>
		<path class="st3" d="M300.9,120.7h-0.6v-9.5c0-0.8-0.1-1.5-0.3-2.2c-0.2-0.6-0.4-1.2-0.8-1.6c-0.4-0.4-0.8-0.8-1.4-1
			c-0.5-0.2-1.2-0.3-1.9-0.3c-1.1,0-2.2,0.3-3.1,0.9c-0.9,0.6-1.8,1.4-2.5,2.5v11.2h-0.6v-14.9h0.2c0.2,0,0.3,0.1,0.3,0.4l0,2.4
			c0.3-0.4,0.6-0.7,0.9-1.1c0.4-0.4,0.9-0.8,1.4-1.1c0.5-0.3,1-0.5,1.6-0.7c0.5-0.2,1.1-0.2,1.7-0.2c1.7,0,2.9,0.5,3.7,1.5
			c0.8,1,1.2,2.4,1.2,4.1V120.7z M300.6,120.4h0.1v-9.2c0-1.7-0.4-3-1.2-4c-0.8-0.9-2-1.4-3.5-1.4c-0.6,0-1.1,0.1-1.6,0.2
			c-0.5,0.2-1,0.4-1.5,0.7c-0.5,0.3-0.9,0.6-1.3,1c-0.4,0.4-0.8,0.8-1.1,1.3l-0.2,0.3l-0.1-3.2c0-0.1,0-0.1,0-0.1v14.4h0.1v-11l0,0
			c0.7-1.1,1.6-1.9,2.6-2.6c1-0.6,2.1-0.9,3.2-0.9c0.8,0,1.4,0.1,2,0.4c0.6,0.2,1.1,0.6,1.5,1.1c0.4,0.5,0.7,1,0.9,1.7
			c0.2,0.6,0.3,1.4,0.3,2.2V120.4z"/>
	</g>
	<path class="st3" d="M128.8,60.1v27.3h-2.5V60.1H128.8z"/>
	<path class="st3" d="M170.7,87.5h-2.5v-5.6c-0.5,0.6-1,1.3-1.6,1.9c-3,3-6.6,4.5-10.8,4.5c-4.2,0-7.8-1.5-10.8-4.5
		c-3-3-4.5-6.6-4.5-10.8c0-4.2,1.5-7.8,4.5-10.8c3-3,6.6-4.5,10.8-4.5c4.2,0,7.8,1.5,10.8,4.5c0.6,0.6,1.1,1.2,1.6,1.9V42.9h2.5
		V87.5z M168.2,75.4v-5c-0.5-2.4-1.6-4.6-3.5-6.5c-2.5-2.5-5.4-3.7-8.9-3.7c-3.5,0-6.5,1.2-8.9,3.7c-2.5,2.5-3.7,5.4-3.7,8.9
		c0,3.5,1.2,6.5,3.7,8.9c2.5,2.5,5.4,3.7,8.9,3.7c3.5,0,6.5-1.2,8.9-3.7C166.6,80,167.7,77.9,168.2,75.4z"/>
	<path class="st3" d="M185.7,80.4c1.8,2.7,4.2,4.4,7.4,5.2c3.4,0.8,6.6,0.4,9.6-1.4c0.4-0.2,0.7-0.5,1.1-0.7l2.3,1.6
		c-0.6,0.5-1.3,1-2.1,1.5c-3.6,2.2-7.5,2.8-11.6,1.7c-4.1-1-7.2-3.3-9.4-7c-2.2-3.6-2.8-7.5-1.7-11.6c1-4.1,3.3-7.2,7-9.4
		c3.6-2.2,7.5-2.8,11.6-1.7c3.5,0.9,6.3,2.7,8.4,5.5c0.3,0.5,0.7,1,1,1.5c0.1,0.2,0.2,0.4,0.3,0.6l-2.3,1.4L185.7,80.4z M205.9,65.3
		c-1.7-2.1-4-3.6-6.7-4.3c-3.4-0.8-6.5-0.4-9.5,1.4c-3,1.8-4.9,4.4-5.7,7.8c-0.7,2.8-0.5,5.4,0.6,7.9L205.9,65.3z"/>
	<path class="st3" d="M248.3,87.5h-2.5v-5.6c-0.5,0.6-1,1.3-1.6,1.9c-3,3-6.6,4.5-10.8,4.5c-4.2,0-7.8-1.5-10.8-4.5
		c-3-3-4.5-6.6-4.5-10.8c0-4.2,1.5-7.8,4.5-10.8c3-3,6.6-4.5,10.8-4.5c4.2,0,7.8,1.5,10.8,4.5c0.6,0.6,1.1,1.2,1.6,1.9v-3.9h2.5
		V87.5z M245.7,75.4v-5c-0.5-2.4-1.6-4.6-3.5-6.5c-2.5-2.5-5.4-3.7-8.9-3.7c-3.5,0-6.5,1.2-8.9,3.7c-2.5,2.5-3.7,5.4-3.7,8.9
		c0,3.5,1.2,6.5,3.7,8.9c2.5,2.5,5.4,3.7,8.9,3.7c3.5,0,6.5-1.2,8.9-3.7C244.1,80,245.3,77.9,245.7,75.4z"/>
	<path class="st2" d="M47.5,104.4c-4.5,0-8.2-3.7-8.2-8.2s3.7-8.2,8.2-8.2s8.2,3.7,8.2,8.2S52,104.4,47.5,104.4z M47.5,88.6
		c-4.2,0-7.5,3.4-7.5,7.5s3.4,7.5,7.5,7.5s7.5-3.4,7.5-7.5S51.6,88.6,47.5,88.6z"/>
</g>
<defs>  
    <!-- Da gradient -->
    <linearGradient id="gradient" x1="0%" y1="0%" x2="100%" y2="0">
      <stop offset="0%" style="stop-color:#33235b;"></stop>
      <stop offset="25%" style="stop-color:#D62229;"></stop>
      <stop offset="50%" style="stop-color:#E97639;"></stop>
      <stop offset="75%" style="stop-color:#792042;"></stop>
      <stop offset="100%" style="stop-color:#33235b;"></stop>
    </linearGradient>
    
   

  </defs>
</svg>
